<?xml version="1.0" encoding="UTF-8" standalone="no"?><!DOCTYPE svg PUBLIC "-//W3C//DTD SVG 1.1//EN" "http://www.w3.org/Graphics/SVG/1.1/DTD/svg11.dtd"><svg width="100%" height="100%" viewBox="0 0 5 9" version="1.1" xmlns="http://www.w3.org/2000/svg" xmlns:xlink="http://www.w3.org/1999/xlink" xml:space="preserve" style="fill-rule:evenodd;clip-rule:evenodd;stroke-linejoin:round;stroke-miterlimit:1.41421;"><path d="M2.5,9l-2.5,-2.814l5,0l-2.5,2.814Z" style="fill:#33cc45;"/><path d="M2.5,9l-2.5,-2.814l5,0l-2.5,2.814Zm-2.055,-2.614l2.055,2.313l2.055,-2.313l-4.11,0Z" style="fill:#fff;"/><rect x="0" y="0" width="5" height="6.333" style="fill:#33cc45;"/><path d="M5,6.333l-5,0l0,-6.333l5,0l0,6.333Zm-4.833,-6.166l0,6l4.666,0l0,-6l-4.666,0Z" style="fill:#fff;"/><rect x="1.279" y="3.649" width="0.423" height="0.855" style="fill:#fff;"/><rect x="3.219" y="3.649" width="0.423" height="0.855" style="fill:#fff;"/><rect x="0.683" y="3.438" width="3.633" height="0.423" style="fill:#fff;"/><rect x="1.081" y="2.4" width="2.766" height="0.794" style="fill:#fff;"/></svg>