<?xml version="1.0" encoding="UTF-8" standalone="no"?><!DOCTYPE svg PUBLIC "-//W3C//DTD SVG 1.1//EN" "http://www.w3.org/Graphics/SVG/1.1/DTD/svg11.dtd"><svg width="100%" height="100%" viewBox="0 0 5 9" version="1.1" xmlns="http://www.w3.org/2000/svg" xmlns:xlink="http://www.w3.org/1999/xlink" xml:space="preserve" style="fill-rule:evenodd;clip-rule:evenodd;stroke-linejoin:round;stroke-miterlimit:1.41421;"><path d="M2.5,9l-2.5,-2.814l5,0l-2.5,2.814Z" style="fill:#eddc11;"/><path d="M2.5,9l-2.5,-2.814l5,0l-2.5,2.814Zm-2.055,-2.614l2.055,2.313l2.055,-2.313l-4.11,0Z" style="fill:#fff;"/><rect x="0" y="0" width="5" height="6.333" style="fill:#eddc11;"/><path d="M5,6.333l-5,0l0,-6.333l5,0l0,6.333Zm-4.833,-6.166l0,6l4.666,0l0,-6l-4.666,0Z" style="fill:#fff;"/><rect x="2.803" y="2.986" width="0.286" height="0.286" style="fill:#fff;"/><rect x="2.803" y="1.86" width="0.286" height="0.857" style="fill:#fff;"/><path d="M4.317,3.735l-0.917,0l0.183,0.268l-0.203,0.042l0.174,0.264l-0.135,0.114l-0.096,-0.148l-0.074,0.225l-0.149,-0.507l-0.06,0.131l-0.383,-0.047l-0.179,0.31l-0.042,-0.26l-0.151,-0.119l0.165,-0.273l-1.767,0l0,0.958l3.634,0l0,-0.958Z" style="fill:#fff;"/></svg>