<?xml version="1.0" encoding="UTF-8" standalone="no"?><!DOCTYPE svg PUBLIC "-//W3C//DTD SVG 1.1//EN" "http://www.w3.org/Graphics/SVG/1.1/DTD/svg11.dtd"><svg width="100%" height="100%" viewBox="0 0 5 9" version="1.1" xmlns="http://www.w3.org/2000/svg" xmlns:xlink="http://www.w3.org/1999/xlink" xml:space="preserve" style="fill-rule:evenodd;clip-rule:evenodd;stroke-linejoin:round;stroke-miterlimit:1.41421;"><path d="M2.5,9l-2.5,-2.814l5,0l-2.5,2.814Z" style="fill:#33cc45;"/><path d="M2.5,9l-2.5,-2.814l5,0l-2.5,2.814Zm-2.055,-2.614l2.055,2.313l2.055,-2.313l-4.11,0Z" style="fill:#fff;"/><rect x="0" y="0" width="5" height="6.333" style="fill:#33cc45;"/><path d="M5,6.333l-5,0l0,-6.333l5,0l0,6.333Zm-4.8,-6.133l0,5.933l4.6,0l0,-5.933l-4.6,0Z" style="fill:#fff;"/><circle cx="1.835" cy="1.975" r="0.25" style="fill:#fff;"/><path d="M2.127,2.276l-0.559,0c-0.177,0 -0.288,0.144 -0.288,0.324l0,0.767c0,0.149 0.197,0.149 0.197,0l0,-0.746l0.063,0l-0.001,1.979c0,0.078 0.063,0.14 0.14,0.14c0.078,0 0.141,-0.062 0.141,-0.14l0,-1.129l0.062,0l0,1.129c0,0.078 0.062,0.14 0.14,0.14c0.077,0 0.139,-0.062 0.139,-0.14l0.001,-1.979l0.061,0l0,0.746c0,0.15 0.196,0.15 0.196,0l0,-0.762c0,-0.166 -0.098,-0.329 -0.292,-0.329Z" style="fill:#fff;fill-rule:nonzero;"/><path d="M3.549,4.471l0.227,-0.227l0,-0.192l-0.16,0.16l0,-0.688l-0.134,0l0,0.688l-0.159,-0.16l0,0.192l0.226,0.227Z" style="fill:#fff;fill-rule:nonzero;"/><path d="M1.856,1.221l-1.181,0l0,3.995l3.608,0l0,-3.995l-1.292,0l-1.135,0Zm0,3.861l-1.047,0l0,-3.728l2.048,0l0,3.728l-1.001,0Zm2.293,-3.728l0,3.728l-1.158,0l0,-3.728l1.158,0Z" style="fill:#fff;fill-rule:nonzero;"/><path d="M3.482,2.912l0.134,0l0,-0.688l0.16,0.16l0,-0.192l-0.227,-0.227l-0.226,0.227l0,0.192l0.159,-0.16l0,0.688Z" style="fill:#fff;fill-rule:nonzero;"/></svg>