<?xml version="1.0" encoding="UTF-8" standalone="no"?><!DOCTYPE svg PUBLIC "-//W3C//DTD SVG 1.1//EN" "http://www.w3.org/Graphics/SVG/1.1/DTD/svg11.dtd"><svg width="100%" height="100%" viewBox="0 0 5 9" version="1.1" xmlns="http://www.w3.org/2000/svg" xmlns:xlink="http://www.w3.org/1999/xlink" xml:space="preserve" style="fill-rule:evenodd;clip-rule:evenodd;stroke-linejoin:round;stroke-miterlimit:1.41421;"><rect x="0" y="0" width="5" height="6.333" style="fill:#eddc11;"/><path d="M5,6.333l-5,0l0,-6.333l5,0l0,6.333Zm-4.8,-6.133l0,5.933l4.6,0l0,-5.933l-4.6,0Z" style="fill:#fff;"/><path d="M2.697,5.435l0.227,0.228l0.194,0l-0.161,-0.161l1.345,0l0,-0.134l-1.345,0l0.161,-0.161l-0.194,0l-0.227,0.228Z" style="fill:#fff;fill-rule:nonzero;"/><g><path d="M1.862,0.836l-1.187,0l0,4.016l3.627,0l0,-4.016l-1.299,0l-1.141,0Zm0,3.882l-1.053,0l0,-3.748l1.646,0l0,3.748l-0.593,0Zm2.305,-3.748l0,3.748l-1.578,0l0,-3.748l1.578,0Z" style="fill:#fff;fill-rule:nonzero;"/><rect x="2.828" y="2.844" width="0.216" height="0.216" style="fill:#fff;"/><rect x="2.002" y="2.844" width="0.216" height="0.216" style="fill:#fff;"/></g><path d="M0.675,5.368l0,0.134l1.46,0l-0.16,0.161l0.193,0l0.228,-0.228l-0.228,-0.228l-0.193,0l0.16,0.161l-1.46,0Z" style="fill:#fff;fill-rule:nonzero;"/><path d="M2.5,9l-2.5,-2.814l5,0l-2.5,2.814Z" style="fill:#eddc11;"/><path d="M2.5,9l-2.5,-2.814l5,0l-2.5,2.814Zm-2.055,-2.614l2.055,2.313l2.055,-2.313l-4.11,0Z" style="fill:#fff;"/></svg>