<?xml version="1.0" encoding="UTF-8" standalone="no"?><!DOCTYPE svg PUBLIC "-//W3C//DTD SVG 1.1//EN" "http://www.w3.org/Graphics/SVG/1.1/DTD/svg11.dtd"><svg width="100%" height="100%" viewBox="0 0 15 19" version="1.1" xmlns="http://www.w3.org/2000/svg" xmlns:xlink="http://www.w3.org/1999/xlink" xml:space="preserve" style="fill-rule:evenodd;clip-rule:evenodd;stroke-linejoin:round;stroke-miterlimit:1.41421;"><rect x="-0.006" y="0.117" width="15" height="19" style="fill:#eddc11;"/><path d="M14.994,19.117l-15,0l0,-19l15,0l0,19Zm-14.5,-0.5l14,0l0,-18l-14,0l0,18Z" style="fill:#fff;"/><path d="M6.873,5.19c0.375,-0.468 1.06,-0.543 1.528,-0.168c0.469,0.375 0.544,1.06 0.168,1.528c-0.375,0.468 -1.06,0.544 -1.528,0.168c-0.468,-0.375 -0.543,-1.06 -0.168,-1.528Z" style="fill:#fff;"/><path d="M2.309,7.51c0.046,-0.103 0.093,-0.201 0.141,-0.296l-0.245,-0.153l-0.185,0.297l0.28,0.175c0.003,-0.007 0.005,-0.015 0.009,-0.023Z" style="fill:#fff;fill-rule:nonzero;"/><path d="M5.957,7.099c0.16,0.131 0.395,0.126 0.548,-0.02c0.11,-0.104 0.15,-0.254 0.119,-0.391c-0.016,-0.071 -0.05,-0.139 -0.103,-0.195c-0.015,-0.016 -0.192,-0.202 -0.487,-0.395c-0.011,-0.007 -0.022,-0.014 -0.033,-0.021c-0.292,-0.184 -0.698,-0.377 -1.189,-0.38c-0.364,-0.002 -0.768,0.121 -1.128,0.411c-0.306,0.244 -0.583,0.596 -0.832,1.081c-0.046,0.089 -0.091,0.183 -0.135,0.282c-0.005,0.012 -0.01,0.025 -0.014,0.037c-0.068,0.2 0.027,0.423 0.225,0.511c0.054,0.024 0.112,0.036 0.168,0.036c0.108,0 0.213,-0.044 0.29,-0.12c0.036,-0.036 0.067,-0.077 0.089,-0.127c0.028,-0.062 0.056,-0.121 0.084,-0.178c0.218,-0.443 0.442,-0.715 0.642,-0.873c0.226,-0.178 0.418,-0.228 0.611,-0.23c0.049,0 0.098,0.004 0.148,0.011c0.221,0.033 0.444,0.138 0.62,0.255c0.107,0.07 0.196,0.141 0.256,0.193c0.03,0.026 0.052,0.048 0.066,0.061c0.008,0.007 0.012,0.012 0.015,0.015c0.001,0.001 0.001,0.001 0.002,0.002l0,0c0.012,0.013 0.025,0.024 0.038,0.035Z" style="fill:#fff;fill-rule:nonzero;"/><path d="M12.461,13.477c-0.428,-0.231 -0.349,-0.611 -0.777,-0.726c-0.428,-0.116 -0.519,-0.365 -0.786,-0.48c-0.267,-0.115 -0.234,-0.634 -0.802,-0.634c-0.127,0 -0.255,0.046 -0.382,0.117l-2.471,-1.544c0.073,-0.151 0.05,-0.338 -0.072,-0.466c-0.656,-0.699 -0.787,-1.349 -0.791,-1.82c0,-0.035 0.001,-0.069 0.003,-0.102c0.02,-0.025 -0.288,0.353 0.06,-0.073c0.387,-0.392 0.441,-0.86 0.101,-1.242c-0.26,-0.292 -0.876,-0.291 -0.876,-0.291c0,0 -0.587,0.224 -0.787,0.213c-0.424,0.407 -1.059,1.055 -1.305,1.489l-1.17,-0.731c-0.026,0.052 -0.051,0.107 -0.077,0.165c-0.024,0.053 -0.056,0.1 -0.094,0.141l1.179,0.737c-0.11,0.229 -0.211,0.482 -0.312,0.771c-0.074,0.294 -0.052,0.527 0.03,0.715c0.001,0.006 0.003,0.011 0.004,0.017c0.042,0.167 0.125,0.568 0.125,1.059c0,0.389 -0.052,0.832 -0.205,1.267c-0.153,0.436 -0.403,0.864 -0.82,1.255c-0.261,0.245 -0.275,0.655 -0.031,0.916c0.245,0.262 0.655,0.276 0.916,0.031l0,0c0.581,-0.542 0.947,-1.167 1.159,-1.773c0.205,-0.587 0.272,-1.157 0.277,-1.647c0.157,0.169 0.296,0.359 0.396,0.564c0.111,0.228 0.178,0.471 0.178,0.752c-0.001,0.385 -0.125,0.864 -0.535,1.476c-0.201,0.297 -0.122,0.7 0.175,0.9c0.111,0.075 0.237,0.11 0.361,0.11c0.209,0 0.413,-0.1 0.538,-0.285c0.523,-0.773 0.758,-1.519 0.757,-2.201c0.001,-0.574 -0.166,-1.084 -0.404,-1.501c-0.255,-0.446 -0.583,-0.793 -0.898,-1.061c0.036,-0.075 0.074,-0.15 0.116,-0.224l1.108,0.693c0.068,0.083 0.141,0.167 0.22,0.25c0.081,0.086 0.191,0.129 0.301,0.129c0.025,0 0.05,-0.002 0.075,-0.007l2.458,1.536c-0.327,0.264 -0.634,0.587 -0.876,0.587c-0.41,0 -0.388,0.641 -0.922,0.814c-0.535,0.173 -0.861,0.378 -0.968,0.82c-0.066,0.271 6.65,0.481 6.775,-0.134c-0.357,-0.462 -0.523,-0.352 -0.951,-0.582Zm-7.039,-4.406c0.075,-0.115 0.154,-0.228 0.235,-0.339c0.054,0.205 0.133,0.419 0.242,0.638l-0.477,-0.299Z" style="fill:#fff;fill-rule:nonzero;"/></svg>