<?xml version="1.0" encoding="UTF-8" standalone="no"?><!DOCTYPE svg PUBLIC "-//W3C//DTD SVG 1.1//EN" "http://www.w3.org/Graphics/SVG/1.1/DTD/svg11.dtd"><svg width="100%" height="100%" viewBox="0 0 5 9" version="1.1" xmlns="http://www.w3.org/2000/svg" xmlns:xlink="http://www.w3.org/1999/xlink" xml:space="preserve" style="fill-rule:evenodd;clip-rule:evenodd;stroke-linejoin:round;stroke-miterlimit:1.41421;"><rect x="-0.006" y="0" width="5.006" height="6.342" style="fill:#eddc11;"/><path d="M5,6.342l-5.006,0l0,-6.342l5.006,0l0,6.342Zm-4.84,-6.175l0,6.008l4.673,0l0,-6.008l-4.673,0Z" style="fill:#fff;"/><path d="M2.29,1.811c0.125,-0.157 0.354,-0.182 0.51,-0.057c0.156,0.126 0.181,0.354 0.056,0.511c-0.125,0.156 -0.354,0.181 -0.51,0.056c-0.156,-0.126 -0.182,-0.354 -0.056,-0.51Z" style="fill:#fff;"/><path d="M0.766,2.585c0.016,-0.035 0.031,-0.067 0.048,-0.099l-0.082,-0.051l-0.062,0.099l0.093,0.059c0.001,-0.003 0.002,-0.006 0.003,-0.008Z" style="fill:#fff;fill-rule:nonzero;"/><path d="M1.984,2.448c0.053,0.043 0.132,0.042 0.183,-0.007c0.037,-0.035 0.05,-0.085 0.04,-0.131c-0.006,-0.023 -0.017,-0.046 -0.035,-0.065c-0.005,-0.005 -0.064,-0.067 -0.162,-0.131c-0.004,-0.003 -0.008,-0.005 -0.011,-0.007c-0.098,-0.062 -0.233,-0.126 -0.397,-0.127c-0.122,-0.001 -0.256,0.04 -0.377,0.137c-0.102,0.081 -0.194,0.199 -0.277,0.361c-0.016,0.03 -0.031,0.061 -0.045,0.094c-0.002,0.004 -0.004,0.008 -0.005,0.012c-0.023,0.067 0.009,0.141 0.075,0.171c0.018,0.008 0.037,0.012 0.056,0.012c0.036,0 0.071,-0.015 0.097,-0.04c0.012,-0.012 0.022,-0.026 0.03,-0.043c0.009,-0.02 0.018,-0.04 0.027,-0.059c0.073,-0.148 0.148,-0.239 0.215,-0.292c0.075,-0.059 0.139,-0.075 0.204,-0.076c0.016,0 0.033,0.001 0.049,0.003c0.074,0.011 0.148,0.047 0.207,0.085c0.036,0.024 0.066,0.048 0.085,0.065c0.01,0.009 0.018,0.016 0.023,0.02c0.002,0.003 0.004,0.004 0.005,0.005c0,0.001 0,0.001 0,0.001l0,0c0.004,0.004 0.009,0.008 0.013,0.012Z" style="fill:#fff;fill-rule:nonzero;"/><path d="M4.155,4.576c-0.143,-0.077 -0.117,-0.204 -0.26,-0.242c-0.143,-0.039 -0.173,-0.122 -0.262,-0.16c-0.089,-0.039 -0.078,-0.212 -0.268,-0.212c-0.042,0 -0.085,0.016 -0.127,0.039l-0.825,-0.515c0.024,-0.05 0.017,-0.113 -0.024,-0.156c-0.219,-0.233 -0.263,-0.45 -0.264,-0.607c0,-0.012 0.001,-0.023 0.001,-0.034c0.007,-0.008 -0.096,0.118 0.02,-0.025c0.129,-0.13 0.147,-0.286 0.034,-0.414c-0.087,-0.097 -0.293,-0.097 -0.293,-0.097c0,0 -0.195,0.075 -0.262,0.071c-0.142,0.136 -0.354,0.352 -0.436,0.497l-0.39,-0.244c-0.009,0.018 -0.017,0.036 -0.026,0.055c-0.008,0.018 -0.019,0.033 -0.031,0.047l0.393,0.246c-0.036,0.077 -0.07,0.161 -0.104,0.258c-0.025,0.098 -0.017,0.175 0.01,0.238c0.001,0.002 0.001,0.004 0.002,0.006c0.013,0.055 0.041,0.189 0.041,0.353c0,0.13 -0.017,0.278 -0.068,0.423c-0.051,0.146 -0.135,0.289 -0.274,0.419c-0.087,0.082 -0.092,0.219 -0.01,0.306c0.081,0.087 0.218,0.092 0.306,0.01l0,0c0.193,-0.181 0.315,-0.389 0.386,-0.592c0.069,-0.196 0.091,-0.386 0.093,-0.549c0.052,0.056 0.099,0.12 0.132,0.188c0.037,0.076 0.059,0.157 0.059,0.251c0,0.128 -0.041,0.288 -0.178,0.492c-0.067,0.1 -0.041,0.234 0.058,0.301c0.037,0.025 0.079,0.037 0.121,0.037c0.069,0 0.137,-0.034 0.179,-0.096c0.175,-0.257 0.253,-0.506 0.253,-0.734c0,-0.192 -0.056,-0.362 -0.135,-0.501c-0.085,-0.149 -0.195,-0.265 -0.3,-0.354c0.012,-0.025 0.025,-0.05 0.039,-0.075l0.37,0.231c0.022,0.028 0.047,0.056 0.073,0.084c0.027,0.028 0.064,0.043 0.101,0.043c0.008,0 0.016,-0.001 0.025,-0.002l0.82,0.512c-0.109,0.088 -0.211,0.196 -0.292,0.196c-0.137,0 -0.13,0.214 -0.308,0.272c-0.179,0.057 -0.287,0.126 -0.323,0.273c-0.022,0.091 2.219,0.161 2.261,-0.045c-0.119,-0.153 -0.174,-0.117 -0.317,-0.194Zm-2.35,-1.47c0.025,-0.039 0.052,-0.076 0.079,-0.113c0.018,0.068 0.044,0.14 0.081,0.212l-0.16,-0.099Z" style="fill:#fff;fill-rule:nonzero;"/><path d="M2.5,9l-2.5,-2.814l5,0l-2.5,2.814Z" style="fill:#eddc11;"/><path d="M2.5,9l-2.5,-2.814l5,0l-2.5,2.814Zm-2.055,-2.614l2.055,2.313l2.055,-2.313l-4.11,0Z" style="fill:#fff;"/></svg>