<?xml version="1.0" encoding="UTF-8" standalone="no"?><!DOCTYPE svg PUBLIC "-//W3C//DTD SVG 1.1//EN" "http://www.w3.org/Graphics/SVG/1.1/DTD/svg11.dtd"><svg width="100%" height="100%" viewBox="0 0 5 9" version="1.1" xmlns="http://www.w3.org/2000/svg" xmlns:xlink="http://www.w3.org/1999/xlink" xml:space="preserve" style="fill-rule:evenodd;clip-rule:evenodd;stroke-linejoin:round;stroke-miterlimit:1.41421;"><path d="M2.5,9l-2.5,-2.814l5,0l-2.5,2.814Z" style="fill:#d92626;"/><path d="M2.5,9l-2.5,-2.814l5,0l-2.5,2.814Zm-2.055,-2.614l2.055,2.313l2.055,-2.313l-4.11,0Z" style="fill:#fff;"/><rect x="0" y="0" width="5" height="6.333" style="fill:#d92626;"/><path d="M5,6.333l-5,0l0,-6.333l5,0l0,6.333Zm-4.833,-6.166l0,6l4.666,0l0,-6l-4.666,0Z" style="fill:#fff;"/><path d="M4.309,4.591l0.008,-2.723l-0.926,0l0,0.628l-0.882,0l0,0.606l-0.938,0l0,0.658l-0.898,0l0,0.856l3.636,-0.025Z" style="fill:#fff;"/></svg>