<?xml version="1.0" encoding="UTF-8" standalone="no"?><!DOCTYPE svg PUBLIC "-//W3C//DTD SVG 1.1//EN" "http://www.w3.org/Graphics/SVG/1.1/DTD/svg11.dtd"><svg width="100%" height="100%" viewBox="0 0 5 9" version="1.1" xmlns="http://www.w3.org/2000/svg" xmlns:xlink="http://www.w3.org/1999/xlink" xml:space="preserve" style="fill-rule:evenodd;clip-rule:evenodd;stroke-linejoin:round;stroke-miterlimit:1.41421;"><rect x="0" y="0" width="5" height="6.333" style="fill:#eddc11;"/><path d="M5,6.333l-5,0l0,-6.333l5,0l0,6.333Zm-4.833,-6.166l0,6l4.666,0l0,-6l-4.666,0Z" style="fill:#fff;"/><path d="M2.268,3.997l-1.585,0l0,0.377l1.577,0l2.067,-0.027l-0.01,-1.084l0,-0.486l-0.795,-0.004l-1.254,1.224Z" style="fill:#fff;fill-rule:nonzero;"/><rect x="2.013" y="3.081" width="0.303" height="0.303" style="fill:#fff;"/><rect x="2.013" y="1.889" width="0.303" height="0.908" style="fill:#fff;"/><path d="M2.5,9l-2.5,-2.814l5,0l-2.5,2.814Z" style="fill:#eddc11;"/><path d="M2.5,9l-2.5,-2.814l5,0l-2.5,2.814Zm-2.055,-2.614l2.055,2.313l2.055,-2.313l-4.11,0Z" style="fill:#fff;"/></svg>