<svg viewBox="0 0 42 42" xmlns="http://www.w3.org/2000/svg" fill-rule="evenodd" clip-rule="evenodd" stroke-linejoin="round" stroke-miterlimit="1.414"><path d="M40.382 19.154H23.796V1.618h-5.592v17.536H1.618v5.59h16.586v15.638h5.592V24.745h16.586v-5.59z" fill="#fff" fill-rule="nonzero"/><path d="M23.943.125l.145.022.143.036.14.05.133.062.126.076.117.088.11.1.098.108.088.12.076.125.06.134.05.14.037.14.02.147.01.148v16.036H40.38l.147.007.145.023.142.036.14.048.132.063.125.077.12.088.108.098.1.11.086.118.075.127.063.133.05.14.035.14.022.147.007.147v5.59l-.007.148-.022.146-.036.143-.05.14-.062.133-.076.126-.088.117-.1.11-.108.098-.12.088-.125.075-.134.063-.14.05-.14.037-.147.02-.148.008H25.296v14.137l-.008.147-.02.145-.037.142-.05.14-.06.132-.077.125-.088.12-.1.108-.108.1-.118.086-.127.075-.133.063-.14.05-.142.035-.145.022-.147.007h-5.592l-.147-.007-.145-.022-.143-.036-.14-.05-.133-.062-.126-.076-.117-.088-.11-.1-.098-.108-.088-.12-.076-.125-.06-.134-.05-.14-.037-.14-.02-.147-.01-.148V26.245H1.62l-.147-.007-.145-.02-.142-.037-.14-.05-.132-.062-.125-.075-.12-.088-.108-.1-.1-.108-.086-.118-.075-.127-.063-.134-.05-.14-.035-.142-.022-.146-.007-.147v-5.59l.007-.148.022-.146.036-.14.05-.14.062-.133.076-.126.088-.117.1-.11.108-.098.12-.088.125-.076.134-.062.14-.05.14-.035.147-.022.148-.006h15.086V1.618l.008-.147.02-.145.037-.142.05-.14.06-.132.077-.125.088-.12.1-.108.108-.1.118-.086.127-.075.133-.063.14-.05.142-.035.145-.022.147-.007h5.592l.147.007zm-5.74 1.493v17.536H1.62v5.59h16.586v15.638h5.592V24.745h16.586v-5.59H23.796V1.617h-5.592z" fill="#1370b8"/></svg>