<svg viewBox="0 0 700 400" xmlns="http://www.w3.org/2000/svg" fill-rule="evenodd" clip-rule="evenodd" stroke-linecap="round" stroke-linejoin="round" stroke-miterlimit="1.5"><path d="M271.503 98.987c-1.017-1.625-5.556-.965-8.032.354l-78.607 41.89c-2.476 1.32-5.365 4.618-4.348 6.243l3.683 5.888c1.016 1.626 5.556.966 8.032-.354l78.608-41.888c2.476-1.32 5.365-4.618 4.348-6.243l-3.683-5.888z" fill="#fff"/><path d="M268.957 93.03l.226.003.228.01.232.013.233.018.235.023.24.03.225.032.137.022.123.02.124.025.124.025.125.028.127.03.128.03.13.035.13.037.13.04.134.04.133.046.136.048.135.05.138.056.14.058.14.062.14.066.143.07.143.075.143.08.145.083.147.09.145.094.147.1.147.107.146.11.145.12.145.123.143.13.142.138.14.144.137.15.134.156.13.163.127.17.123.174.094.145 3.728 5.96.09.148.103.187.1.19.09.195.084.195.077.196.07.197.062.196.055.195.05.196.04.193.036.192.03.19.023.187.018.185.012.183.007.18.003.175-.002.173-.006.17-.01.167-.014.164-.017.16-.02.157-.023.156-.026.15-.028.148-.03.145-.034.14-.035.14-.036.135-.04.135-.04.13-.04.13-.044.125-.045.124-.046.12-.048.122-.048.117-.05.114-.05.114-.057.127-.098.205-.11.213-.11.208-.116.203-.117.197-.12.194-.122.19-.124.184-.125.18-.13.18-.13.174-.132.172-.135.17-.136.166-.138.164-.14.162-.142.16-.144.156-.145.155-.148.153-.148.15-.15.15-.153.145-.153.144-.155.142-.156.14-.16.14-.16.135-.162.134-.163.133-.165.13-.166.13-.17.125-.17.124-.17.123-.175.12-.177.117-.177.115-.18.114-.183.112-.185.11-.188.105-.172.093-78.646 41.91-.173.09-.194.096-.193.093-.194.09-.195.085-.195.084-.196.08-.197.077-.197.076-.198.072-.2.07-.198.068-.2.065-.202.063-.202.062-.203.058-.204.056-.205.054-.205.052-.206.05-.207.046-.208.044-.21.042-.208.04-.21.038-.21.035-.213.032-.212.03-.213.026-.215.025-.215.023-.217.02-.217.015-.218.013-.22.01-.22.007-.224.003h-.224l-.226-.006-.23-.01-.23-.012-.232-.02-.235-.022-.238-.03-.226-.032-.137-.022-.124-.022-.124-.023-.125-.025-.126-.027-.126-.03-.128-.032-.13-.034-.13-.037-.13-.04-.134-.04-.134-.046-.136-.05-.136-.05-.137-.054-.14-.06-.14-.06-.142-.067-.143-.07-.143-.076-.145-.08-.145-.083-.146-.088-.146-.095-.146-.1-.146-.106-.147-.11-.145-.12-.144-.123-.142-.13-.142-.137-.14-.144-.137-.15-.135-.157-.13-.163-.127-.17-.123-.174-.093-.144-3.73-5.962-.088-.15-.105-.187-.098-.19-.09-.192-.085-.195-.077-.196-.07-.196-.06-.196-.056-.195-.05-.196-.04-.194-.036-.19-.03-.193-.023-.186-.017-.184-.013-.184-.007-.18-.003-.175.002-.173.006-.17.01-.167.014-.164.017-.16.02-.157.023-.154.026-.15.028-.15.032-.143.033-.143.035-.14.037-.135.04-.134.04-.132.04-.128.044-.126.045-.123.047-.124.047-.12.047-.117.05-.117.05-.114.057-.127.098-.205.11-.214.11-.207.115-.202.117-.198.12-.193.12-.19.126-.184.126-.182.13-.178.13-.175.132-.172.135-.17.136-.166.137-.164.14-.162.142-.158.143-.157.145-.155.147-.152.15-.15.15-.15.152-.146.153-.144.156-.142.156-.14.16-.14.16-.135.16-.134.164-.132.165-.13.167-.13.17-.125.17-.125.17-.122.175-.12.176-.118.178-.115.18-.113.182-.11.186-.11.188-.106.17-.093 78.647-41.91.172-.09.192-.096.194-.092.194-.09.194-.086.195-.083.197-.082.196-.078.198-.075.2-.073.198-.07.2-.068.2-.065.2-.064.203-.06.204-.06.204-.055.205-.053.205-.05.206-.05.207-.047.21-.045.208-.042.21-.04.21-.037.21-.035.212-.032.213-.03.213-.027.215-.024.216-.02.217-.02.217-.016.22-.013.218-.01.222-.006.223-.002h.224zm-.343 5l-.143.004-.143.006-.146.01-.146.01-.147.013-.15.015-.15.017-.15.02-.15.02-.15.023-.153.026-.15.027-.153.03-.15.03-.152.033-.152.034-.15.036-.15.037-.15.04-.148.04-.148.043-.146.044-.145.045-.145.047-.143.047-.14.05-.14.05-.137.053-.135.054-.133.055-.13.055-.13.057-.125.058-.123.06-.12.06-.12.06-78.607 41.89-.116.063-.117.066-.117.068-.118.072-.118.074-.117.076-.118.08-.118.08-.118.084-.117.085-.118.087-.117.09-.115.09-.116.095-.114.095-.114.096-.112.1-.112.098-.11.103-.11.102-.107.104-.106.104-.106.106-.103.106-.1.108-.1.11-.097.108-.095.11-.093.11-.09.112-.09.11-.086.113-.084.112-.08.11-.08.113-.074.112-.073.112-.07.112-.066.11-.063.11-.058.112-.056.11-.053.11-.025.054-.024.054-.023.055-.02.054-.022.052-.02.054-.02.053-.017.052-.017.053-.016.052-.015.052-.014.05-.013.053-.012.05-.01.052-.01.05-.01.05-.007.05-.006.05-.005.05-.004.05-.002.047-.002.048v.095l.002.047.003.046.006.046.005.046.008.044.01.045.008.043.01.043.013.043.012.042.015.04.016.043.018.04.02.04.02.04.022.04.023.038 3.683 5.888.025.04.025.035.027.036.03.037.028.034.03.035.033.032.033.032.033.03.035.03.037.03.037.03.04.027.04.027.04.027.04.026.044.025.044.025.045.024.046.02.048.023.048.022.05.02.05.02.05.02.05.017.053.017.052.016.054.016.055.016.057.015.057.014.057.013.06.013.058.012.06.01.06.012.06.01.125.017.126.016.128.013.132.01.133.008.136.006.137.003h.14l.14-.002.143-.004.144-.007.146-.008.147-.012.147-.013.15-.015.15-.017.15-.02.15-.02.15-.024.153-.026.15-.027.153-.03.152-.03.15-.032.153-.034.15-.035.15-.038.15-.04.148-.04.148-.042.147-.044.145-.045.144-.047.143-.048.14-.05.138-.05.138-.053.135-.053.134-.055.13-.057.13-.057.125-.06.122-.058.12-.06.118-.062 78.608-41.888.116-.064.117-.066.118-.07.118-.07.118-.074.117-.077.12-.08.117-.08.118-.083.117-.086.117-.088.116-.09.115-.09.117-.094.114-.095.115-.096.112-.098.112-.1.11-.1.108-.104.108-.103.106-.106.105-.106.103-.107.1-.107.1-.108.098-.11.095-.11.093-.11.09-.11.09-.113.086-.11.083-.113.08-.113.08-.112.074-.112.072-.112.07-.11.065-.113.063-.11.06-.11.055-.112.053-.11.025-.054.024-.053.023-.054.022-.054.02-.055.02-.053.02-.054.018-.053.018-.052.016-.053.015-.052.013-.052.013-.052.012-.05.01-.052.01-.05.01-.05.007-.05.006-.05.006-.05.004-.048.003-.05.002-.047v-.096l-.002-.047-.003-.046-.005-.047-.005-.045-.007-.045-.01-.044-.008-.045-.01-.044-.013-.042-.013-.042-.016-.042-.016-.04-.018-.042-.02-.04-.02-.04-.02-.04-.024-.037-3.683-5.888-.025-.038-.025-.038-.027-.036-.03-.035-.028-.034-.03-.033-.033-.033-.033-.032-.034-.03-.035-.03-.037-.03-.037-.03-.04-.028-.04-.027-.04-.026-.042-.026-.043-.024-.044-.024-.044-.023-.046-.024-.047-.022-.048-.02-.05-.022-.05-.02-.05-.018-.05-.018-.053-.018-.053-.017-.055-.015-.055-.015-.056-.015-.057-.014-.057-.012-.058-.013-.06-.012-.058-.01-.06-.012-.062-.01-.124-.017-.126-.015-.13-.013-.13-.01-.134-.008-.136-.006-.138-.002h-.14l-.14.002z" fill="#fff"/><path d="M196.22 154.01l48.2 75.703s10.487 12.832 46.652 40.984c15.068 11.73 42.707-.65 38.87-21.385-8.174-44.18-12.628-57.593-12.628-57.593l-47.965-76.68" fill="none" stroke="#fff" stroke-width="5"/><path d="M212.616 145.273l46.666 74.603s11.02 16.96 42.917 37.786c3.405 2.223 6.223-.364 6.223-.364s4.516-.918 4.275-4.984c-1.795-30.31-11.948-54.536-11.948-54.536l-46.666-74.602M307.213 277.718L356.806 357l-.55 17.905 4.71 7.53 37.143-19.794-4.506-7.202-17.37-8.618" fill="none" stroke="#fff" stroke-width="5"/><path d="M357.962 356.556l18.27-9.736-49.673-79.41M274.41 155.67l-39.83 21.226M284.048 171.078L243.77 192.54" fill="none" stroke="#fff" stroke-width="5"/><g><path d="M392.962 23.51c-.947-1.513-5.43-.763-7.906.557l-78.608 41.89c-2.476 1.318-5.42 4.526-4.474 6.04l3.43 5.486c.948 1.514 5.43.764 7.908-.555l78.607-41.89c2.475-1.318 5.42-4.527 4.474-6.04l-3.432-5.487z" fill="#fff"/><path d="M390.794 17.675l.225.006.227.012.23.016.234.02.24.027.224.03.137.023.124.02.125.024.124.025.127.027.13.03.13.03.13.035.133.037.134.04.135.043.137.046.138.05.14.053.142.057.143.06.145.067.147.07.147.077.15.08.15.088.15.09.15.1.153.103.152.112.152.118.15.125.15.13.148.14.148.147.145.154.14.16.138.168.133.176.13.18.097.15 3.48 5.563.092.154.108.2.1.198.093.2.087.207.077.204.068.204.062.207.053.204.045.202.038.2.032.2.025.195.018.193.012.19.007.186.002.18-.004.18-.008.174-.012.172-.016.168-.02.163-.022.158-.026.158-.03.152-.03.15-.034.146-.035.14-.04.138-.04.138-.04.132-.044.13-.044.127-.046.125-.047.123-.05.12-.048.116-.05.116-.052.114-.06.126-.1.202-.108.21-.114.205-.115.198-.118.194-.12.188-.122.183-.125.182-.126.176-.13.174-.13.17-.13.167-.135.164-.136.162-.136.16-.14.156-.14.155-.142.153-.144.15-.145.148-.147.147-.15.144-.15.142-.15.14-.154.14-.154.136-.156.135-.157.133-.16.13-.16.13-.16.128-.164.126-.164.124-.166.122-.167.12-.17.117-.17.116-.173.113-.175.112-.176.11-.18.107-.18.106-.184.103-.168.092-78.643 41.908-.17.088-.187.095-.188.09-.19.09-.188.085-.19.082-.19.08-.193.078-.194.075-.193.073-.194.07-.196.07-.196.066-.197.064-.196.062-.198.06-.2.058-.2.056-.2.053-.2.052-.203.05-.203.046-.203.046-.205.042-.205.04-.206.04-.205.035-.208.034-.208.032-.21.03-.21.025-.21.024-.213.022-.213.018-.215.015-.217.012-.217.008-.22.006-.22.002-.223-.002-.225-.006-.227-.01-.23-.017-.234-.02-.237-.028-.226-.032-.138-.02-.123-.022-.124-.023-.127-.025-.127-.027-.128-.028-.13-.032-.13-.035-.133-.037-.134-.04-.135-.043-.137-.046-.14-.05-.14-.055-.14-.057-.144-.062-.145-.066-.147-.07-.148-.076-.148-.08-.15-.086-.15-.093-.153-.098-.152-.104-.15-.11-.153-.118-.153-.125-.15-.132-.15-.14-.145-.145-.144-.153-.142-.162-.137-.168-.134-.175-.128-.18-.097-.15-3.48-5.565-.092-.153-.108-.197-.1-.2-.094-.203-.085-.203-.076-.206-.07-.205-.06-.204-.053-.205-.045-.203-.038-.2-.03-.198-.026-.195-.017-.195-.013-.19-.007-.185v-.183l.002-.18.008-.173.012-.17.016-.168.02-.163.024-.16.026-.156.028-.152.032-.15.033-.144.036-.14.037-.14.04-.136.04-.133.044-.128.046-.128.045-.125.048-.123.05-.12.048-.117.05-.116.052-.113.058-.125.1-.202.11-.21.113-.205.115-.198.117-.194.12-.188.123-.185.124-.18.126-.177.128-.173.13-.17.133-.168.134-.164.136-.16.138-.16.14-.157.14-.155.142-.153.144-.15.145-.15.147-.145.15-.144.15-.143.15-.14.153-.14.155-.136.156-.135.157-.133.158-.133.162-.13.16-.127.164-.125.165-.124.167-.12.168-.12.17-.12.17-.115.173-.113.174-.112.177-.11.177-.108.18-.105.184-.103.17-.092 78.642-41.907.17-.088.187-.095.188-.09.188-.09.19-.085.19-.083.19-.08.193-.077.19-.076.194-.072.195-.07.194-.07.195-.065.196-.064.197-.063.198-.06.2-.058.2-.057.2-.053.202-.052.202-.05.203-.047.204-.044.205-.043.205-.04.206-.04.207-.035.207-.034.208-.03.21-.03.21-.026.21-.024.213-.02.214-.02.214-.014.216-.012.217-.01.22-.004.22-.002.224.003zm-.365 5l-.138.002-.14.005-.14.008-.142.01-.143.012-.145.015-.145.016-.147.018-.148.022-.148.022-.15.024-.148.026-.15.028-.15.03-.15.032-.15.033-.15.035-.15.036-.15.04-.148.038-.148.042-.147.043-.147.045-.145.046-.143.048-.143.048-.142.05-.14.05-.138.053-.136.052-.135.055-.132.055-.13.057-.128.057-.125.058-.123.06-.12.06-.118.062-78.608 41.89-.116.062-.117.065-.118.068-.118.07-.12.075-.117.076-.118.078-.12.08-.117.082-.118.085-.118.085-.117.09-.117.09-.116.09-.116.094-.115.094-.113.096-.112.098-.112.1-.11.1-.11.1-.107.102-.107.104-.105.104-.103.105-.1.106-.1.105-.098.107-.095.107-.094.107-.09.108-.09.11-.084.107-.083.11-.082.107-.077.108-.074.108-.072.108-.068.107-.065.108-.062.107-.058.106-.055.106-.052.105-.024.053-.025.052-.022.05-.022.053-.02.05-.02.052-.017.05-.018.05-.016.05-.017.05-.014.05-.015.048-.012.05-.01.047-.01.048-.01.048-.008.048-.007.047-.005.046-.005.047-.003.046-.002.045v.133l.004.045.004.042.007.043.006.042.008.04.01.042.01.04.013.04.013.04.014.038.016.04.018.036.018.037.02.037.022.035 3.43 5.486.024.035.024.035.026.033.026.033.028.03.03.032.03.03.03.03.034.028.034.028.034.027.037.026.038.026.038.025.04.025.04.023.04.023.043.022.043.02.044.022.046.02.046.018.046.018.05.017.048.017.05.016.05.015.053.015.052.013.053.014.054.012.055.01.056.012.057.01.057.01.058.01.12.015.12.014.124.012.126.01.13.005.13.004.133.002h.136l.136-.004.14-.006.14-.007.14-.01.144-.013.145-.014.146-.016.148-.02.147-.02.148-.02.15-.026.15-.026.15-.028.15-.03.15-.03.15-.034.15-.035.148-.037.15-.038.15-.04.147-.04.148-.044.146-.044.146-.046.145-.047.144-.048.14-.05.14-.052.14-.052.136-.053.134-.055.133-.056.13-.056.128-.058.126-.06.124-.058.12-.06.118-.062 78.607-41.89.116-.062.117-.066.117-.07.118-.07.118-.073.118-.076.12-.077.117-.08.12-.083.118-.084.117-.087.118-.09.117-.09.116-.09.115-.094.116-.095.114-.095.113-.098.112-.1.11-.1.11-.1.107-.103.106-.103.105-.103.103-.105.1-.106.1-.106.097-.107.095-.108.093-.108.092-.108.088-.11.086-.107.083-.11.08-.107.077-.11.074-.107.073-.11.07-.107.064-.107.062-.106.058-.106.055-.106.05-.104.026-.052.022-.052.023-.052.02-.05.022-.052.02-.05.018-.05.017-.052.017-.05.014-.05.015-.048.012-.05.012-.048.01-.048.012-.048.01-.048.006-.047.007-.047.005-.047.004-.046.002-.045.002-.045v-.133l-.004-.044-.004-.043-.005-.042-.006-.042-.008-.042-.01-.04-.01-.04-.01-.04-.014-.04-.015-.038-.016-.038-.016-.037-.02-.037-.02-.037-.02-.036-3.432-5.486-.023-.034-.025-.034-.025-.033-.027-.034-.028-.032-.03-.03-.03-.03-.03-.03-.033-.03-.034-.027-.035-.027-.036-.026-.037-.026-.038-.024-.04-.024-.04-.024-.04-.022-.044-.022-.043-.02-.045-.02-.045-.02-.047-.02-.047-.017-.047-.018-.05-.016-.05-.015-.05-.015-.052-.015-.052-.014-.053-.012-.055-.012-.055-.012-.056-.01-.057-.012-.058-.01-.058-.008-.118-.017-.123-.013-.123-.012-.127-.008-.13-.006-.13-.004h-.268z" fill="#fff"/><path d="M317.804 78.737l48.2 75.702s10.488 12.83 46.653 40.983c15.068 11.73 42.707-.65 38.87-21.385-8.174-44.18-12.628-57.593-12.628-57.593l-47.966-76.678" fill="none" stroke="#fff" stroke-width="5"/><path d="M334.2 70l46.667 74.602s11.02 16.96 42.917 37.786c3.406 2.223 6.224-.364 6.224-.364s4.516-.918 4.275-4.984c-1.795-30.31-11.95-54.536-11.95-54.536L375.67 47.902M428.798 202.443l49.593 79.283-.548 17.905 4.71 7.53 37.142-19.793-4.506-7.203-17.37-8.618" fill="none" stroke="#fff" stroke-width="5"/><path d="M479.547 281.282l18.27-9.736-49.673-79.412M395.995 80.397l-39.83 21.224M405.632 95.804l-40.276 21.463" fill="none" stroke="#fff" stroke-width="5"/></g></svg>