<svg viewBox="0 0 215 40" xmlns="http://www.w3.org/2000/svg" fill-rule="evenodd" clip-rule="evenodd" stroke-linejoin="round" stroke-miterlimit="1.414"><path d="M12.688 7.675L2 11.95v21.376l10.688-4.275V7.676z" fill="#1370b8" fill-rule="nonzero"/><path d="M12.688 7.675V29.05l10.688 4.276V11.95L12.688 7.675z" fill="#fec20f" fill-rule="nonzero"/><path d="M23.376 11.95v21.376l10.688-4.275V7.676L23.376 11.95z" fill="#1370b8" fill-rule="nonzero"/><g fill-rule="nonzero"><path d="M56.407 29.022V7.675H52.41v9.01H41.9v-9.01h-4.03v21.347h4.03v-8.614h10.51v8.614h3.997zM71.745 16.04c-.856-1.494-2.78-2.44-4.798-2.44-4.4-.03-7.848 2.686-7.848 7.88 0 5.285 3.295 8.03 7.756 8 1.68-.03 4.033-.884 4.89-2.654l.182 2.196h3.51V13.967h-3.57l-.123 2.074zm-4.462.886c5.866 0 5.866 9.137 0 9.137-2.475 0-4.46-1.71-4.46-4.584 0-2.873 1.985-4.554 4.46-4.554zM93.398 29.022v-7.91c0-4.735-2.838-7.39-6.382-7.39-1.895 0-3.423.764-4.95 2.26l-.245-2.045h-3.325v15.085h3.693v-7.695c0-2.293 1.558-4.217 3.85-4.217 2.384 0 3.637 1.74 3.637 4.032v7.88h3.723zM103.907 17.08c2.353 0 4.37 1.77 4.37 4.4 0 2.72-2.017 4.43-4.37 4.43-2.383 0-4.278-1.803-4.278-4.43 0-2.72 1.894-4.4 4.277-4.4zm4.614-9.405v8.336c-.885-1.555-3.36-2.41-4.95-2.41-4.4 0-7.664 2.686-7.664 7.88 0 4.95 3.326 7.878 7.757 7.878 1.833 0 3.697-.61 4.858-2.41l.245 2.074h3.48V7.675h-3.724zM126.54 13.967l-2.748 6.597-1.558 4.153-1.435-4.245-2.292-6.505h-4.338l6.018 14.812-2.81 6.534h4.093l9.195-21.347h-4.124zM151.53 29.022h4.027V7.675h-4.61l-6.69 9.18-6.69-9.18h-4.64v21.347h4.028V13.5l6.813 9.3h.795l6.966-9.27v15.492zM171.2 16.04c-.856-1.494-2.78-2.44-4.798-2.44-4.4-.03-7.848 2.686-7.848 7.88 0 5.285 3.296 8.03 7.757 8 1.68-.03 4.034-.884 4.89-2.654l.183 2.196h3.51V13.967h-3.57l-.123 2.074zm-4.46.886c5.864 0 5.864 9.137 0 9.137-2.477 0-4.463-1.71-4.463-4.584 0-2.873 1.986-4.554 4.462-4.554zM186.38 25.788c-2.537 0-4.28-1.925-4.28-4.278 0-2.353 1.59-4.278 4.28-4.278 2.688 0 4.277 1.925 4.277 4.278 0 2.353-1.74 4.278-4.278 4.278zm-4.615 9.526v-8.06c1.07 1.647 3.422 2.135 5.01 2.135 4.828 0 7.605-3.48 7.605-7.88 0-4.43-3.082-7.88-7.726-7.88-1.71 0-3.728.734-4.89 2.412l-.243-2.075h-3.478v21.347h3.723zM205.47 25.788c-2.536 0-4.278-1.925-4.278-4.278 0-2.353 1.59-4.278 4.278-4.278 2.69 0 4.278 1.925 4.278 4.278 0 2.353-1.742 4.278-4.278 4.278zm-4.614 9.526v-8.06c1.07 1.647 3.422 2.135 5.01 2.135 4.828 0 7.605-3.48 7.605-7.88 0-4.43-3.08-7.88-7.725-7.88-1.71 0-3.728.734-4.89 2.412l-.243-2.075h-3.48v21.347h3.724z"/></g></svg>