<svg viewBox="0 0 60 60" xmlns="http://www.w3.org/2000/svg" fill-rule="evenodd" clip-rule="evenodd" stroke-linejoin="round" stroke-miterlimit="1.414"><path d="M15.282 6.105l-14.3 6.23.335 41.52 14.174-4.977L30 54.438l14.174-5.602 14.843 5.436v-41.31l-14.8-7.276L30 11.582 15.282 6.105z" fill="#fff"/><path d="M59.423 11.59l-15-7c-.015-.006-.032-.008-.047-.014-.042-.017-.085-.03-.128-.04-.036-.01-.07-.02-.107-.024-.044-.007-.09-.008-.135-.008-.037 0-.074 0-.11.004-.044.004-.085.014-.127.024-.04.01-.08.02-.12.034-.013.005-.028.006-.042.012L30 10.408 16.394 4.58c-.01-.004-.018-.004-.027-.008-.04-.016-.08-.025-.122-.035-.038-.01-.076-.02-.115-.027-.042-.005-.083-.004-.125-.004-.04 0-.077-.003-.115.002-.043.005-.085.017-.127.027-.037.01-.074.016-.11.03-.008.002-.017.002-.025.006l-15 6c-.38.15-.628.518-.628.927v43c0 .332.165.642.44.828.167.113.363.172.56.172.125 0 .25-.023.372-.07l14.616-5.847 13.62 5.836c.013.006.028.003.042.01.114.042.23.07.35.07.12 0 .24-.028.352-.07.014-.006.03-.004.043-.01l13.62-5.836 14.615 5.846c.12.048.246.07.372.07.197 0 .393-.058.56-.17.273-.187.438-.497.438-.83v-42c0-.388-.225-.74-.577-.905zM2 12.175l13-5.2V47.82l-13 5.2V12.174zm15-5.16l12 5.143V52.98l-12-5.143V7.014zm14 5.142l12-5.143v40.824L31 52.98V12.156zM58 53.02l-13-5.2V7.067l13 6.066V53.02z" fill="#1370b8" fill-rule="nonzero"/></svg>