<svg viewBox="0 0 700 400" xmlns="http://www.w3.org/2000/svg" fill-rule="evenodd" clip-rule="evenodd" stroke-linecap="round" stroke-linejoin="round" stroke-miterlimit="1.5"><g fill="#fff" stroke="#1370b8"><path d="M237.59 149.013l-13.472 74.57s-1.12 16.027 13.473 18.822c11.447 2.19 17.523-11.11 19.69-17.465 2.166-6.354 10.668-56.77 10.668-56.77l40.07-25.827s-40.14 150.478-40.14 152.223c0 1.746-43.444 60.03-43.444 60.03s-4.226 15.078 3.118 22.186c8 7.743 20.85 8.653 27.556 2.98 6.706-5.674 48.763-62.74 48.763-62.74l19.58-51.45 68.357 106.076s13.394 20.038 29.41 12.085c10.528-5.23 17.676-16.81 4.62-36.22-13.055-19.41-76.138-121.43-76.138-121.43l13.395-77.07s20.543 22.034 38.31 39.222c4.585 4.437 58.12 17.817 60.93 17.303 8.95-1.636 13.028-4.144 14.075-10.868 1.135-7.286.165-13.36-10.816-18.248-5.988-2.666-40.47-6.37-49.45-15.047-11.853-11.453-47.498-51.393-47.498-51.393s-10.293-13.916-34.263-14.8" stroke-width="11.91"/><circle cx="363.095" cy="43.113" r="28.712" stroke-width="11.83"/><path d="M334.383 95.274s-15.138 1.19-43.388 18.912c-27.762 17.415-53.404 34.827-53.404 34.827" stroke-width="11.91"/></g></svg>