<svg viewBox="0 0 700 400" xmlns="http://www.w3.org/2000/svg" fill-rule="evenodd" clip-rule="evenodd" stroke-linecap="round" stroke-linejoin="round" stroke-miterlimit="1.5"><circle cx="158.562" cy="151.172" r="16.5" fill="none" stroke="#fff" stroke-width="6.8" transform="matrix(1.81647 0 0 1.81647 18.81 -221.71)"/><path d="M342.28 175.628s-2.565-28.028-12.098-49.696c-6.053-13.762-15.498-24.05-28.89-24.025-9.18.015-21.22-.222-31.35 24.66-3.343 8.21-6.228 22.92-9.437 39.537-1.385 7.172-3.937 16.088-5.137 22.49-5.59 29.832 24.442 24.984 29.196 25.26 3.025.176 84.4 4.2 84.4 4.2s15.773-2.108 15.898-20.615c.1-15.126-17.937-17.2-26.01-17.943-7.564-.694-59.82-4.63-59.82-4.63l5.557-20.84M413.063 309.632c-17.85 35.283-41.36 67.176-105.13 67.45-58.972.253-140.197-80.472-75.21-171.885" fill="none" stroke="#fff" stroke-width="12.24912"/><path d="M276.775 345.36c-39.59-18.705-54.278-66.737-40.345-100.39" fill="none" stroke="#fff" stroke-width="12.194779500000001"/><path d="M288.53 213.685l5.277 33.544s5.343 18.655 25.963 18.655c20.458 0 92.355-6.058 92.355-6.058l40.36 75.23s7.33 14.657 25.336 8.586c18.01-6.072 12.74-25.624 12.74-25.624l-39.3-74.882s-8.567-15.643-13.475-18.157c-3.41-1.746-8.745-4.558-24.722-4.86-16.395-.312-46.266-2.067-46.266-2.067" fill="none" stroke="#fff" stroke-width="12.1925856"/></svg>