<svg viewBox="0 0 700 400" xmlns="http://www.w3.org/2000/svg" fill-rule="evenodd" clip-rule="evenodd" stroke-linecap="round" stroke-linejoin="round" stroke-miterlimit="1.5"><path d="M407.956 24.18h-15.522l-125.37 233.325-20.56 74.92" fill="none" stroke="#fff" stroke-width="5"/><path d="M241.012 315.236l.257.002.256.004.257.006.256.007.254.01.256.01.255.012.254.013.254.016.254.017.253.018.255.02.252.023.253.023.252.025.252.027.25.028.252.03.25.03.25.033.25.035.248.035.248.038.248.038.248.04.247.042.246.044.247.044.245.047.245.048.245.05.244.05.244.053.242.055.242.055.242.056.242.06.24.058.24.06.24.064.24.064.237.065.238.067.237.068.237.07.235.07.236.073.235.074.234.074.234.077.234.08.232.078.23.08.233.084.228.083.23.085.23.086.227.088.228.09.227.09.226.09.226.094.224.094.224.096.224.097.223.098.22.1.223.1.22.103.22.104.22.104.217.106.218.108.217.108.215.11.215.11.215.114.214.113.214.115.212.116.21.117.212.12.21.12.208.12.208.123.208.124.206.124.206.127.204.127.204.13.204.128.202.13.2.132.202.133.2.135.198.135.198.136.198.138.196.14.195.14.195.14.193.142.193.144.192.144.19.146.19.146.19.148.188.15.187.148.187.152.185.152.185.153.183.154.182.154.182.157.18.158.18.16.18.158.178.162.176.16.176.163.176.165.173.165.173.166.172.166.17.168.17.17.17.17.167.17.167.172.166.173.165.174.164.173.16.176.163.176.16.178.16.18.16.178.156.18.156.183.155.182.155.184.154.185.15.186.15.187.15.187.15.188.148.19.147.19.145.19.144.192.144.193.142.194.14.195.14.195.14.197.137.196.137.2.135.198.133.2.133.2.132.202.13.203.13.203.128.204.127.204.126.206.123.207.124.206.122.208.12.21.12.21.12.21.116.21.116.213.115.213.113.213.113.214.11.216.11.216.11.216.107.217.106.218.105.22.104.22.102.22.1.222.1.222.1.223.096.223.096.224.094.225.093.224.092.226.09.228.09.227.087.228.086.23.085.23.084.23.08.23.082.232.08.232.077.233.076.233.075.234.075.235.072.235.07.236.07.237.07.237.066.238.066.24.063.237.062.24.06.24.06.24.06.242.055.24.056.244.053.243.052.244.05.244.05.245.047.245.046.245.045.246.044.245.042.248.04.247.04.248.036.25.035.247.035.25.032.25.03.25.03.25.03.252.025.25.024.253.023.253.022.253.02.252.017.254.017.254.016.255.013.255.013.256.01.256.01.256.006.256.006.256.004.257.003.258v.515l-.003.257-.004.257-.006.256-.007.257-.01.256-.01.255-.012.256-.013.254-.016.255-.017.254-.018.253-.02.252-.023.253-.023.253-.025.253-.027.252-.028.25-.03.25-.03.25-.033.25-.035.25-.035.25-.037.248-.04.248-.04.25-.04.246-.044.246-.044.246-.047.246-.048.244-.05.245-.05.244-.053.243-.054.243-.056.243-.056.24-.058.242-.06.24-.06.242-.064.24-.063.237-.067.24-.067.237-.068.237-.07.238-.07.236-.073.235-.074.234-.074.234-.077.234-.08.233-.078.232-.08.232-.083.23-.085.23-.085.23-.086.228-.088.228-.09.227-.09.228-.09.227-.094.225-.094.225-.096.224-.097.224-.098.224-.1.22-.1.223-.103.22-.103.22-.104.22-.106.218-.107.218-.11.216-.11.216-.11.216-.112.214-.113.214-.115.213-.116.212-.117.21-.12.212-.12.208-.12.21-.123.207-.124.208-.124.206-.127.205-.127.204-.128.203-.13.204-.13.202-.132.2-.133.2-.134.2-.136.2-.137.198-.137.196-.14.197-.14.196-.14.195-.142.194-.143.193-.145.192-.145.19-.147.19-.148.19-.15.187-.15.187-.15.187-.15.186-.155.185-.154.184-.154.182-.157.182-.158.18-.16.18-.158.18-.16.177-.162.177-.163.176-.165.174-.165.174-.166.173-.167.17-.167.172-.17.17-.17.17-.17.167-.172.165-.173.166-.174.166-.173.164-.176.163-.176.16-.178.162-.18.16-.178.158-.18.157-.183.157-.182.155-.183.154-.185.154-.185.15-.187.152-.187.15-.188.15-.19.147-.19.146-.19.145-.192.145-.193.144-.193.14-.195.142-.195.14-.196.138-.197.138-.2.137-.198.135-.2.134-.2.133-.203.132-.2.13-.205.13-.203.127-.206.127-.206.126-.206.124-.208.124-.208.122-.21.12-.208.12-.21.12-.212.117-.212.116-.213.115-.213.114-.215.112-.215.11-.215.11-.218.11-.217.107-.218.107-.22.105-.22.103-.22.102-.222.1-.22.1-.224.1-.224.096-.224.096-.224.093-.226.093-.226.092-.227.09-.228.09-.228.087-.228.086-.232.086-.23.084-.23.082-.232.08-.233.08-.232.078-.233.077-.234.075-.235.074-.235.072-.236.072-.237.07-.237.068-.237.066-.24.066-.238.064-.24.062-.24.06-.24.06-.242.06-.242.056-.242.055-.242.053-.244.053-.244.05-.245.05-.244.047-.246.047-.246.045-.245.043-.247.042-.248.04-.248.04-.248.036-.25.036-.25.033-.248.032-.25.03-.252.03-.25.03-.252.025-.252.025-.253.023-.253.022-.252.02-.254.018-.254.017-.254.016-.255.014-.255.013-.255.01-.256.01-.258.006-.256.006-.257.003-.258.003h-.515l-.257-.003-.257-.004-.256-.007-.256-.007-.255-.01-.255-.01-.256-.012-.255-.013-.255-.015-.254-.017-.253-.018-.252-.02-.253-.022-.253-.023-.253-.025-.25-.026-.252-.028-.25-.03-.252-.03-.25-.033-.248-.034-.25-.037-.248-.037-.248-.04-.248-.04-.248-.04-.246-.044-.246-.045-.245-.047-.245-.047-.245-.05-.244-.05-.243-.053-.243-.053-.242-.055-.242-.057-.24-.058-.242-.06-.24-.06-.24-.063-.238-.064-.238-.066-.238-.066-.237-.07-.238-.07-.236-.07-.235-.072-.234-.074-.234-.075-.233-.077-.234-.078-.232-.08-.232-.08-.23-.082-.23-.084-.23-.085-.23-.085-.228-.088-.228-.09-.227-.09-.227-.09-.226-.094-.224-.094-.224-.097-.225-.097-.222-.098-.222-.1-.22-.1-.22-.103-.22-.103-.22-.105-.218-.106-.217-.106-.217-.11-.216-.11-.215-.11-.215-.113-.213-.112-.214-.115-.212-.116-.212-.117-.21-.12-.21-.12-.21-.12-.207-.122-.207-.124-.207-.124-.205-.126-.204-.127-.203-.128-.203-.13-.202-.13-.202-.133-.2-.133-.2-.134-.2-.135-.198-.137-.197-.138-.196-.138-.196-.14-.194-.14-.194-.143-.193-.145-.192-.144-.19-.144-.19-.147-.19-.15-.186-.147-.188-.15-.186-.15-.186-.153-.184-.154-.184-.154-.182-.155-.182-.157-.18-.157-.18-.16-.18-.16-.177-.16-.177-.16-.176-.163-.174-.164-.174-.165-.173-.165-.17-.167-.172-.167-.17-.168-.168-.17-.168-.17-.167-.173-.166-.174-.166-.173-.164-.175-.162-.176-.162-.177-.16-.178-.16-.178-.16-.18-.156-.182-.156-.18-.156-.184-.154-.183-.153-.184-.152-.186-.15-.186-.15-.187-.15-.188-.147-.19-.145-.19-.146-.19-.146-.193-.142-.192-.142-.194-.142-.194-.14-.195-.138-.196-.138-.197-.136-.197-.136-.2-.134-.2-.133-.2-.132-.2-.13-.203-.128-.203-.13-.205-.126-.205-.126-.206-.124-.207-.124-.208-.122-.208-.12-.21-.12-.208-.12-.212-.117-.21-.116-.213-.115-.213-.113-.214-.114-.215-.11-.215-.11-.216-.11-.216-.107-.218-.107-.22-.104-.217-.105-.22-.102-.22-.1-.22-.1-.223-.1-.222-.096-.223-.096-.225-.093-.225-.093-.225-.092-.227-.09-.226-.09-.228-.087-.228-.086-.23-.086-.23-.084-.23-.082-.23-.08-.23-.08-.233-.078-.233-.077-.234-.075-.234-.074-.235-.072-.236-.07-.236-.07-.237-.07-.236-.066-.238-.065-.238-.063-.24-.063-.24-.06-.24-.06-.24-.06-.24-.055-.242-.056-.243-.054-.243-.053-.243-.05-.244-.05-.244-.047-.246-.047-.246-.044-.246-.045-.247-.042-.247-.04-.247-.038-.247-.038-.248-.035-.25-.034-.25-.033-.248-.03-.25-.03-.252-.03-.25-.025-.252-.025-.252-.023-.25-.022-.254-.02-.253-.018-.254-.017-.255-.016-.254-.014-.254-.012-.255-.01-.255-.01-.255-.007-.257-.006-.256-.003-.257-.002-.257v-.515l.002-.257.004-.256.007-.256.007-.257.01-.254.01-.255.012-.255.013-.254.015-.254.017-.254.018-.253.02-.255.022-.252.023-.253.025-.252.026-.25.028-.252.03-.25.03-.25.034-.25.034-.25.035-.25.038-.248.038-.248.04-.247.042-.247.044-.247.043-.247.047-.245.048-.246.05-.244.05-.243.052-.244.054-.242.055-.242.055-.242.058-.24.06-.242.06-.24.064-.24.064-.24.066-.237.067-.238.068-.237.07-.237.072-.236.072-.235.074-.235.075-.234.077-.233.078-.233.08-.233.08-.23.082-.232.084-.23.085-.23.085-.23.088-.227.09-.228.09-.226.09-.226.094-.225.094-.226.097-.224.097-.224.098-.222.1-.222.1-.22.103-.222.104-.22.103-.22.106-.217.107-.218.108-.216.11-.217.11-.215.114-.215.112-.213.115-.213.116-.213.118-.21.12-.21.12-.21.12-.21.122-.208.124-.207.125-.208.126-.205.127-.205.13-.204.128-.203.132-.203.13-.2.134-.2.134-.202.136-.2.136-.196.138-.197.138-.197.14-.195.14-.195.144-.193.143-.193.144-.19.145-.193.146-.188.15-.19.148-.188.15-.187.15-.186.153-.185.154-.184.154-.183.156-.183.156-.18.157-.182.16-.18.158-.178.16-.178.163-.177.162-.177.164-.175.165-.173.165-.173.167-.172.167-.17.168-.17.17-.17.17-.167.173-.167.174-.166.173-.165.176-.164.175-.16.177-.163.178-.16.18-.16.178-.16.182-.156.182-.156.182-.155.184-.155.184-.153.186-.153.186-.152.187-.15.188-.148.19-.148.19-.146.19-.146.193-.144.193-.144.193-.142.194-.14.195-.14.195-.14.198-.137.198-.136.2-.135.2-.135.2-.133.2-.13.204-.132.203-.13.204-.128.206-.127.205-.125.208-.125.207-.124.208-.122.21-.12.21-.12.21-.12.21-.116.213-.116.213-.115.212-.113.215-.113.215-.11.216-.11.216-.11.218-.107.218-.106.22-.104.22-.104.22-.102.22-.1.223-.1.222-.1.224-.096.223-.096.224-.094.226-.093.226-.092.226-.09.228-.09.228-.087.23-.086.23-.085.23-.083.23-.083.232-.082.232-.08.233-.077.232-.076.234-.075.235-.075.237-.072.235-.07.237-.07.236-.07.238-.066.238-.065.24-.064.24-.063.24-.06.24-.06.24-.06.243-.055.242-.055.243-.054.243-.05.244-.052.245-.05.245-.047.245-.046.246-.044.246-.044.248-.04.247-.042.247-.038.25-.038.248-.035.25-.035.25-.032.25-.03.25-.03.25-.03.252-.025.253-.024.252-.023.252-.022.254-.02.253-.017.255-.017.255-.016.254-.013.255-.012.255-.01.256-.01.257-.007.256-.006.257-.004.258-.002h.514zm-.465 7.924l-.206.002-.206.003-.206.004-.206.005-.206.007-.205.01-.204.01-.205.01-.203.012-.204.014-.203.014-.204.017-.202.016-.203.02-.2.02-.203.02-.2.022-.202.024-.2.025-.2.026-.2.027-.2.03-.2.03-.198.03-.2.032-.196.033-.197.035-.197.036-.197.037-.197.038-.196.04-.195.04-.195.043-.194.043-.194.044-.195.046-.193.046-.193.048-.193.05-.192.05-.19.05-.192.052-.19.054-.19.054-.19.056-.188.057-.19.058-.187.06-.187.06-.186.062-.186.062-.186.064-.186.065-.184.066-.185.065-.184.068-.183.07-.183.07-.182.07-.182.073-.18.074-.18.074-.18.076-.18.076-.18.078-.178.08-.178.08-.177.08-.177.08-.176.084-.175.084-.175.085-.174.086-.174.087-.174.088-.173.09-.17.09-.173.09-.17.092-.17.093-.17.095-.168.095-.17.096-.166.096-.167.098-.167.1-.166.1-.165.1-.164.1-.163.104-.163.104-.163.105-.162.106-.16.106-.16.107-.16.108-.16.11-.158.11-.157.11-.157.114-.156.112-.156.114-.154.115-.154.117-.154.117-.152.117-.152.12-.15.12-.15.12-.15.12-.15.123-.148.123-.147.124-.146.124-.146.126-.144.126-.145.128-.142.128-.143.13-.142.13-.14.13-.14.13-.14.133-.14.133-.138.134-.137.135-.136.136-.136.136-.135.136-.133.138-.133.14-.132.14-.132.14-.13.14-.13.142-.13.143-.127.142-.128.145-.126.145-.127.146-.124.146-.125.147-.123.15-.122.148-.12.15-.122.15-.12.15-.118.153-.117.153-.117.154-.116.154-.115.155-.114.156-.112.157-.113.157-.11.157-.11.16-.11.158-.11.16-.107.16-.106.16-.106.162-.105.163-.103.163-.103.163-.1.163-.102.165-.1.166-.1.166-.097.167-.097.167-.096.17-.095.167-.095.17-.093.17-.093.17-.09.173-.09.17-.09.174-.088.173-.088.174-.086.174-.085.175-.083.175-.083.176-.082.177-.08.178-.08.178-.08.178-.077.18-.076.18-.077.18-.074.18-.075.18-.072.182-.07.182-.07.183-.07.184-.07.184-.065.185-.066.184-.065.186-.064.186-.062.185-.06.187-.06.187-.06.187-.058.19-.057.188-.056.19-.055.19-.054.19-.05.19-.052.19-.05.193-.05.192-.047.193-.045.193-.046.194-.045.194-.043.194-.042.195-.04.195-.04.196-.038.196-.037.197-.036.197-.036.198-.033.197-.03.198-.032.198-.03.2-.03.2-.026.2-.026.2-.025.2-.023.2-.022.202-.02.202-.02.202-.02.203-.017.202-.017.204-.013.204-.014.204-.012.204-.01.205-.01.205-.01.205-.006.206-.006.206-.004.205-.003.207v.206l-.002.208v.207l.003.207.004.206.004.206.006.206.007.206.01.205.01.204.01.205.013.203.014.204.014.204.018.204.017.203.02.202.02.2.02.203.022.2.024.202.026.2.026.2.027.2.028.2.03.2.03.198.033.2.034.197.035.197.035.197.037.197.038.197.04.196.04.195.042.195.043.194.044.194.045.195.046.193.05.193.048.193.05.192.05.19.053.192.055.19.054.19.055.19.057.188.058.19.06.187.06.187.06.186.063.187.064.185.065.186.066.185.066.183.068.184.07.183.07.183.07.182.073.182.074.18.073.18.076.182.075.178.078.18.08.177.08.178.08.177.08.177.084.176.084.175.086.175.086.174.087.174.087.174.09.173.09.172.09.17.092.17.092.17.095.17.095.17.096.167.097.167.098.167.1.167.1.166.1.165.1.164.104.164.104.163.106.16.106.162.106.16.108.162.108.16.11.158.11.158.11.158.114.156.113.157.115.156.115.155.116.154.117.154.117.152.12.152.118.15.12.15.122.15.122.15.123.148.124.147.123.147.126.145.125.145.128.144.128.142.13.143.13.142.13.14.132.142.132.138.133.14.134.137.136.137.136.137.136.134.137.135.138.133.14.133.14.132.14.132.14.13.142.13.143.13.143.127.146.128.145.126.147.127.146.124.147.125.148.123.15.122.15.122.15.12.15.12.152.118.152.118.154.116.154.116.154.115.156.114.156.112.157.113.157.11.158.11.16.11.16.11.16.107.16.107.16.104.164.105.163.103.163.103.164.102.165.1.166.1.166.1.166.098.167.097.17.096.167.094.17.094.17.093.17.093.172.09.17.09.174.09.173.088.173.088.174.086.175.085.175.083.176.083.177.082.177.08.178.08.178.08.18.077.18.076.18.077.18.074.18.075.182.072.182.07.183.072.183.068.184.068.185.067.184.065.186.065.186.064.186.062.187.06.188.06.188.06.19.058.188.057.19.056.19.055.19.054.19.05.19.052.193.05.192.05.192.047.193.045.194.046.193.045.194.043.195.042.195.04.196.04.196.038.196.037.197.036.198.036.198.033.2.032.197.03.2.03.2.03.2.026.2.027.2.024.2.023.202.022.202.022.2.02.204.018.202.018.204.016.203.014.204.013.204.012.206.01.205.01.206.01.206.006.206.006.206.004.207.004.207.002h.415l.207-.002.205-.004.206-.004.207-.006.206-.007.205-.01.205-.01.205-.01.204-.013.204-.013.204-.015.203-.017.203-.018.202-.018.202-.02.202-.022.2-.022.202-.024.2-.025.2-.027.2-.027.2-.028.2-.03.198-.03.2-.033.197-.034.196-.035.197-.035.197-.037.196-.038.196-.04.195-.04.195-.042.194-.043.194-.044.194-.045.193-.046.193-.05.192-.048.192-.05.19-.05.192-.053.19-.055.19-.054.19-.055.188-.057.19-.058.187-.06.188-.06.187-.06.187-.063.185-.064.186-.065.185-.065.184-.067.184-.068.183-.07.182-.07.182-.07.182-.073.18-.074.18-.073.18-.076.18-.075.18-.078.178-.08.178-.078.177-.082.176-.082.176-.083.175-.084.175-.086.174-.086.174-.087.173-.087.173-.09.172-.09.17-.09.17-.092.17-.092.17-.094.17-.095.168-.097.167-.097.167-.098.166-.1.166-.1.165-.1.164-.102.165-.103.163-.104.162-.106.16-.105.162-.108.16-.108.16-.108.16-.11.157-.11.157-.11.156-.114.156-.113.155-.115.155-.115.153-.116.154-.116.152-.118.15-.12.152-.118.15-.12.15-.122.15-.122.147-.123.146-.124.147-.123.145-.126.146-.125.144-.128.143-.128.144-.13.142-.13.14-.13.142-.132.14-.132.138-.133.138-.134.137-.136.138-.135.135-.138.135-.137.134-.138.133-.14.132-.138.132-.142.13-.14.13-.143.128-.143.128-.143.128-.145.126-.146.126-.146.124-.147.124-.147.123-.148.122-.15.12-.15.12-.15.12-.15.12-.152.117-.152.116-.154.116-.153.114-.154.114-.155.113-.156.114-.156.11-.158.11-.158.11-.16.11-.158.107-.16.108-.162.105-.16.105-.163.104-.164.103-.164.102-.164.1-.165.1-.166.1-.166.098-.166.097-.167.096-.168.095-.17.094-.17.093-.17.092-.17.09-.17.09-.173.09-.173.088-.173.087-.173.086-.174.085-.175.084-.175.083-.176.082-.177.08-.177.08-.178.08-.178.077-.18.076-.178.076-.182.074-.18.074-.18.072-.183.07-.182.072-.183.07-.183.067-.184.067-.184.065-.186.065-.186.064-.185.062-.187.062-.187.06-.188.06-.188.057-.19.057-.187.056-.19.054-.19.054-.19.052-.19.05-.192.05-.192.05-.192.048-.192.046-.193.046-.194.044-.193.043-.194.042-.195.04-.195.04-.196.037-.196.037-.196.036-.197.035-.197.033-.198.033-.2.032-.197.03-.2.028-.2.027-.2.027-.2.024-.2.024-.2.022-.202.022-.202.02-.2.018-.203.018-.203.016-.203.015-.203.013-.204.012-.204.012-.206.01-.205.008-.206.007-.206.006-.206.005-.206.004-.206v-.828l-.005-.207-.004-.206-.005-.207-.007-.206-.01-.205-.008-.205-.012-.205-.012-.204-.013-.204-.015-.203-.016-.203-.018-.202-.018-.203-.02-.202-.022-.202-.022-.2-.024-.202-.024-.2-.027-.2-.027-.2-.03-.2-.028-.2-.03-.198-.034-.2-.033-.196-.035-.198-.036-.197-.037-.197-.038-.196-.04-.196-.04-.195-.043-.195-.043-.194-.044-.194-.046-.194-.046-.193-.048-.193-.05-.192-.05-.192-.05-.19-.052-.192-.054-.19-.054-.19-.056-.19-.057-.188-.058-.19-.06-.187-.06-.188-.062-.187-.062-.186-.064-.187-.065-.186-.065-.184-.067-.185-.068-.184-.07-.183-.07-.182-.07-.182-.073-.182-.074-.18-.074-.18-.076-.18-.076-.18-.078-.18-.08-.178-.078-.178-.08-.177-.083-.176-.083-.176-.084-.175-.085-.175-.086-.174-.087-.174-.088-.173-.09-.173-.09-.17-.09-.173-.092-.17-.093-.17-.094-.17-.095-.167-.096-.17-.097-.166-.098-.167-.1-.166-.1-.166-.1-.165-.102-.164-.103-.164-.104-.163-.105-.163-.105-.16-.107-.162-.107-.16-.108-.16-.11-.16-.11-.157-.11-.156-.114-.157-.112-.156-.114-.155-.115-.154-.117-.153-.116-.154-.118-.152-.12-.15-.12-.152-.12-.15-.12-.15-.123-.15-.123-.147-.124-.146-.124-.146-.126-.146-.126-.145-.128-.145-.128-.143-.13-.144-.128-.142-.13-.14-.133-.14-.132-.14-.133-.14-.134-.138-.135-.137-.135-.137-.137-.136-.136-.135-.138-.134-.14-.133-.138-.132-.14-.132-.142-.13-.142-.13-.143-.128-.142-.128-.144-.128-.146-.126-.145-.126-.147-.124-.147-.124-.15-.123-.148-.122-.15-.12-.15-.12-.15-.12-.153-.12-.153-.116-.154-.117-.153-.116-.155-.114-.156-.114-.157-.113-.156-.114-.158-.11-.16-.11-.158-.11-.16-.11-.16-.107-.16-.107-.162-.106-.162-.105-.163-.104-.164-.103-.163-.1-.165-.102-.166-.1-.166-.1-.167-.097-.167-.097-.168-.097-.17-.095-.17-.095-.17-.093-.17-.092-.17-.09-.172-.09-.173-.09-.173-.088-.174-.087-.174-.086-.175-.085-.175-.084-.176-.083-.177-.082-.178-.08-.178-.08-.178-.08-.18-.077-.18-.076-.18-.076-.18-.074-.18-.074-.182-.072-.182-.07-.183-.07-.184-.07-.184-.07-.184-.065-.185-.067-.186-.065-.185-.064-.187-.062-.187-.06-.187-.062-.187-.06-.19-.057-.187-.057-.19-.056-.19-.054-.19-.054-.19-.052-.192-.05-.192-.05-.192-.05-.193-.048-.193-.046-.194-.046-.194-.044-.194-.043-.195-.042-.195-.04-.196-.04-.196-.037-.197-.037-.197-.036-.197-.035-.2-.033-.198-.032-.198-.03-.2-.03-.2-.03-.2-.027-.2-.026-.2-.025-.2-.024-.202-.022-.202-.02-.202-.02-.202-.02-.203-.017-.203-.018-.204-.014-.204-.014-.204-.012-.205-.01-.205-.01-.205-.01-.206-.007-.206-.006-.205-.005-.206-.003-.208-.002h-.415zM466.297 315.236l.257.002.257.004.258.006.256.007.255.01.255.01.255.012.255.013.255.016.253.017.254.018.253.02.253.023.252.023.252.025.252.027.25.028.25.03.25.03.25.033.25.035.25.035.247.038.248.038.248.04.247.042.246.044.246.044.245.047.246.048.244.05.244.05.245.053.243.055.242.055.242.056.24.06.242.058.24.06.24.064.238.064.24.065.236.067.238.068.236.07.236.07.236.073.235.074.232.074.234.077.233.08.23.078.232.08.232.084.23.083.23.085.228.086.228.088.228.09.227.09.226.09.227.094.225.094.223.096.224.097.222.098.22.1.223.1.22.103.22.103.22.104.218.107.217.108.217.108.216.11.215.11.214.114.214.113.213.115.21.116.212.117.21.12.21.12.21.12.207.123.207.124.206.124.206.127.204.127.204.13.203.128.203.13.202.132.2.133.2.134.2.137.197.136.197.138.195.14.195.14.195.14.193.142.193.144.193.144.19.146.19.146.19.148.188.15.188.148.187.152.185.15.185.155.184.155.18.155.182.156.18.158.18.16.18.158.178.16.176.163.175.16.177.165.174.165.174.166.17.166.172.168.17.17.17.17.167.17.167.172.165.173.165.173.164.176.163.175.16.176.162.178.16.18.157.178.157.18.157.183.156.182.154.183.154.185.152.186.15.187.15.187.15.188.148.19.146.19.145.19.145.192.143.193.142.194.14.195.14.195.14.197.137.197.137.198.134.198.134.2.133.2.133.202.13.203.13.203.128.204.128.205.126.205.125.207.122.206.122.208.12.21.12.208.12.21.117.213.117.212.115.212.113.213.113.215.112.215.11.216.108.216.107.217.106.218.106.22.104.22.102.22.1.22.1.224.098.223.097.222.096.224.094.225.093.224.092.226.09.227.09.228.087.23.085.227.085.23.084.23.082.23.08.232.08.232.078.234.077.233.076.234.074.235.073.235.07.236.07.237.07.237.066.238.064.24.064.237.062.24.06.24.06.24.06.242.056.242.055.242.055.243.052.244.05.244.05.245.048.245.046.245.046.246.043.246.04.247.04.248.04.248.037.25.036.248.034.25.033.25.03.25.03.25.028.25.026.252.025.252.022.252.022.253.02.254.02.252.016.254.015.255.014.255.01.256.01.255.01.256.008.258.005.256.004.257.003.26v.513l-.003.257-.004.257-.005.256-.008.257-.01.256-.01.254-.01.256-.015.254-.015.255-.017.254-.02.252-.02.254-.02.253-.024.25-.026.253-.026.252-.028.25-.03.25-.03.25-.033.25-.034.25-.036.25-.037.248-.04.248-.04.25-.04.245-.044.247-.045.247-.045.243-.048.245-.05.245-.05.244-.052.243-.054.243-.054.242-.057.242-.06.242-.06.24-.06.24-.062.24-.064.237-.065.24-.068.237-.068.237-.07.238-.07.236-.074.235-.074.234-.075.234-.075.234-.08.233-.078.232-.08.232-.083.23-.083.23-.085.23-.086.228-.09.228-.088.228-.09.227-.092.227-.092.225-.095.225-.096.225-.096.222-.098.223-.1.223-.1.22-.102.22-.104.22-.105.22-.105.218-.107.218-.11.216-.108.216-.112.215-.112.215-.114.214-.115.212-.116.213-.116.21-.12.212-.12.208-.12.21-.122.207-.123.208-.126.206-.126.205-.127.204-.127.204-.13.203-.13.202-.132.2-.132.2-.134.2-.135.2-.138.197-.137.197-.14.197-.14.196-.14.195-.142.195-.143.192-.145.192-.145.19-.147.19-.147.19-.15.187-.15.187-.15.187-.152.186-.154.185-.154.184-.155.182-.156.182-.157.18-.16.18-.158.18-.162.177-.16.177-.164.175-.164.176-.165.173-.165.173-.167.17-.168.172-.17.17-.17.17-.17.167-.17.165-.174.166-.173.166-.175.164-.176.163-.177.16-.178.162-.18.16-.18.158-.18.157-.18.157-.184.155-.183.154-.185.154-.185.15-.186.152-.19.15-.187.15-.19.147-.19.146-.19.145-.19.145-.195.144-.193.14-.195.142-.195.14-.196.138-.198.138-.198.137-.2.135-.198.134-.2.133-.203.132-.202.13-.202.13-.204.127-.205.127-.207.126-.206.124-.208.124-.21.122-.207.12-.21.12-.21.12-.213.117-.21.116-.214.115-.214.114-.214.112-.215.11-.216.11-.217.11-.217.107-.22.107-.218.105-.22.103-.22.102-.222.1-.22.1-.224.1-.225.096-.223.096-.225.093-.226.093-.225.092-.227.09-.228.09-.228.087-.228.086-.23.086-.23.084-.23.082-.233.08-.232.08-.232.078-.234.077-.233.075-.236.074-.236.072-.236.07-.237.07-.237.07-.237.066-.238.066-.24.064-.238.062-.24.06-.24.06-.242.06-.242.056-.243.055-.242.053-.244.053-.243.05-.244.05-.245.047-.246.047-.246.045-.246.043-.247.042-.248.04-.248.04-.248.036-.25.036-.25.033-.25.032-.25.03-.25.03-.25.03-.253.025-.252.025-.252.023-.253.022-.253.02-.254.018-.254.017-.255.016-.255.014-.255.013-.255.01-.256.01-.257.006-.256.006-.256.003-.257.003h-.515l-.257-.003-.257-.004-.256-.007-.256-.007-.256-.01-.255-.01-.255-.012-.255-.013-.254-.015-.253-.017-.254-.018-.253-.02-.253-.022-.253-.023-.25-.025-.253-.026-.25-.028-.25-.03-.25-.03-.25-.033-.25-.034-.25-.037-.247-.037-.25-.04-.246-.04-.247-.04-.247-.044-.246-.045-.245-.047-.245-.047-.245-.05-.243-.05-.245-.053-.243-.053-.242-.055-.242-.057-.24-.058-.242-.06-.24-.06-.24-.064-.238-.063-.24-.066-.236-.066-.237-.07-.238-.07-.236-.07-.234-.072-.235-.074-.233-.075-.233-.077-.233-.078-.23-.08-.233-.08-.23-.082-.23-.084-.23-.085-.23-.085-.228-.088-.228-.09-.227-.09-.226-.09-.227-.094-.225-.094-.224-.097-.224-.097-.222-.098-.222-.1-.22-.1-.222-.103-.22-.103-.22-.105-.217-.106-.217-.106-.217-.11-.216-.11-.215-.11-.215-.113-.213-.112-.213-.115-.21-.116-.213-.117-.21-.12-.21-.12-.21-.12-.207-.122-.207-.124-.207-.124-.205-.126-.204-.127-.204-.128-.203-.13-.203-.13-.202-.133-.2-.133-.2-.134-.2-.135-.197-.137-.197-.138-.195-.138-.196-.14-.195-.14-.194-.143-.192-.145-.19-.144-.193-.145-.19-.146-.188-.15-.188-.147-.19-.15-.185-.152-.186-.15-.185-.154-.183-.154-.183-.155-.183-.157-.18-.157-.18-.16-.18-.158-.177-.16-.176-.162-.177-.164-.174-.164-.174-.164-.174-.166-.172-.168-.17-.168-.17-.168-.17-.17-.167-.17-.167-.172-.166-.174-.165-.174-.164-.174-.163-.176-.162-.177-.16-.178-.16-.178-.157-.18-.158-.182-.156-.18-.157-.184-.154-.184-.154-.184-.152-.185-.15-.186-.15-.186-.15-.19-.148-.188-.146-.19-.146-.19-.144-.193-.144-.193-.14-.193-.142-.194-.14-.194-.14-.198-.137-.197-.136-.197-.135-.2-.133-.2-.133-.2-.133-.2-.13-.203-.13-.203-.128-.204-.13-.205-.125-.207-.124-.205-.122-.207-.123-.21-.12-.208-.12-.21-.12-.21-.116-.21-.117-.213-.116-.214-.113-.212-.113-.215-.11-.214-.11-.218-.108-.216-.108-.218-.106-.22-.104-.217-.103-.218-.102-.22-.1-.223-.1-.222-.1-.223-.096-.224-.096-.224-.093-.223-.094-.226-.093-.227-.09-.226-.09-.228-.086-.228-.086-.23-.085-.23-.084-.228-.082-.23-.08-.233-.08-.233-.08-.232-.075-.233-.077-.237-.074-.234-.073-.236-.07-.237-.07-.235-.07-.238-.066-.238-.064-.238-.064-.24-.063-.24-.062-.24-.06-.24-.057-.24-.056-.242-.055-.242-.055-.244-.052-.243-.05-.245-.05-.244-.048-.244-.046-.246-.046-.246-.043-.247-.04-.246-.04-.248-.04-.25-.037-.247-.036-.25-.034-.25-.033-.248-.03-.25-.03-.252-.028-.25-.027-.252-.024-.252-.023-.25-.02-.255-.022-.252-.018-.254-.017-.255-.015-.255-.014-.254-.01-.255-.012-.255-.01-.255-.006-.256-.006-.258-.004-.256-.002-.256v-.516l.002-.257.004-.255.006-.257.007-.257.008-.254.01-.256.013-.255.015-.254.015-.254.017-.254.018-.254.02-.252.022-.254.024-.252.025-.252.027-.25.028-.252.03-.25.03-.252.033-.25.034-.248.036-.25.037-.248.04-.248.04-.247.04-.247.044-.246.045-.246.045-.247.048-.244.05-.244.05-.246.052-.243.054-.243.054-.242.057-.24.06-.242.058-.24.06-.24.064-.24.064-.24.065-.238.068-.238.068-.238.07-.236.07-.237.073-.235.073-.234.076-.236.075-.232.078-.233.08-.233.08-.23.083-.232.083-.23.084-.23.087-.23.088-.227.09-.228.09-.226.09-.226.095-.226.093-.223.096-.225.098-.224.098-.223.1-.22.1-.222.102-.22.104-.22.104-.22.106-.217.108-.217.108-.217.11-.217.112-.215.112-.215.113-.213.116-.214.116-.212.116-.21.118-.21.12-.21.12-.21.124-.21.123-.205.125-.207.126-.206.13-.205.127-.204.13-.203.13-.203.132-.2.132-.202.133-.2.136-.198.137-.198.138-.197.14-.197.14-.195.14-.194.14-.193.145-.193.144-.192.146-.19.146-.19.148-.19.15-.188.15-.187.15-.186.152-.185.153-.184.153-.183.156-.183.155-.18.158-.182.158-.18.16-.178.16-.178.164-.177.162-.177.163-.174.164-.175.166-.173.167-.172.168-.17.168-.17.17-.17.17-.167.173-.167.173-.166.173-.165.175-.164.176-.16.176-.163.178-.16.18-.16.178-.158.182-.16.18-.155.183-.156.185-.155.184-.153.185-.152.186-.152.19-.15.187-.148.188-.148.19-.146.192-.146.192-.144.19-.143.195-.143.194-.14.195-.14.196-.14.198-.137.198-.136.198-.135.2-.135.2-.133.202-.13.203-.132.202-.13.204-.128.205-.127.206-.125.207-.125.207-.124.208-.122.21-.12.21-.12.21-.12.21-.116.213-.116.214-.115.213-.113.215-.113.215-.11.216-.11.217-.11.217-.107.22-.106.217-.104.22-.104.22-.102.222-.1.222-.1.222-.1.224-.096.224-.096.225-.094.226-.093.225-.092.227-.09.227-.09.227-.087.23-.086.23-.085.23-.083.23-.083.232-.08.23-.08.234-.08.233-.076.234-.075.236-.075.236-.072.236-.07.236-.07.237-.07.24-.066.238-.065.238-.064.24-.063.24-.06.24-.06.242-.06.242-.055.242-.055.243-.054.244-.052.242-.05.245-.05.245-.047.245-.046.246-.044.247-.044.247-.04.247-.042.248-.038.25-.038.248-.035.25-.035.25-.032.25-.03.25-.03.25-.03.253-.025.252-.024.252-.023.253-.022.253-.02.254-.017.253-.017.255-.016.255-.013.254-.012.256-.01.256-.01.256-.007.256-.006.257-.004.258-.002h.514zm-.464 7.924l-.207.002-.207.003-.207.004-.206.005-.206.007-.204.01-.205.01-.203.01-.205.012-.204.014-.203.014-.203.017-.203.016-.204.02-.202.02-.202.02-.2.022-.202.024-.2.025-.2.026-.2.027-.2.03-.2.03-.198.03-.198.032-.198.033-.198.035-.197.036-.195.037-.197.038-.195.04-.196.04-.195.043-.194.043-.194.044-.194.046-.193.046-.192.048-.193.05-.19.05-.193.05-.192.052-.19.054-.19.054-.19.056-.188.057-.188.058-.188.06-.188.06-.187.062-.187.062-.186.064-.185.065-.185.066-.185.065-.183.068-.185.07-.182.07-.183.07-.18.073-.182.074-.18.074-.18.076-.18.076-.18.078-.178.08-.178.08-.177.08-.176.08-.177.084-.176.084-.175.085-.174.086-.174.087-.173.088-.17.09-.173.09-.17.09-.172.092-.17.093-.17.095-.168.095-.168.096-.17.096-.166.098-.166.1-.165.1-.165.1-.165.1-.163.104-.163.104-.162.105-.162.106-.16.106-.16.107-.16.108-.16.11-.158.11-.157.11-.157.114-.155.112-.155.114-.155.115-.154.117-.152.117-.153.117-.152.12-.15.12-.15.12-.15.12-.15.123-.147.123-.148.124-.146.124-.146.126-.145.126-.143.128-.144.128-.143.13-.142.13-.14.13-.14.13-.14.133-.14.133-.138.134-.137.135-.136.136-.136.136-.134.136-.134.138-.133.14-.133.14-.13.14-.132.14-.13.142-.13.143-.127.142-.127.145-.126.145-.125.146-.126.146-.124.147-.123.15-.122.148-.12.15-.12.15-.12.15-.12.153-.117.153-.117.154-.115.154-.115.155-.114.156-.113.157-.112.157-.11.157-.11.16-.11.158-.11.16-.107.16-.106.16-.106.162-.104.163-.103.163-.103.163-.102.163-.1.165-.1.166-.1.166-.098.167-.097.167-.096.17-.095.167-.094.17-.093.17-.092.17-.092.173-.09.17-.088.174-.088.173-.087.174-.086.174-.084.175-.084.175-.083.176-.082.177-.08.178-.08.178-.08.178-.077.18-.076.18-.076.18-.074.18-.073.18-.072.182-.07.182-.07.183-.07.184-.068.184-.067.185-.066.184-.065.186-.063.186-.064.185-.06.187-.06.187-.06.187-.06.19-.056.188-.055.19-.055.19-.053.19-.053.19-.05.19-.05.193-.05.192-.047.193-.047.193-.045.194-.045.194-.043.194-.04.195-.042.195-.04.196-.038.196-.037.197-.036.197-.034.198-.034.197-.032.198-.03.198-.03.2-.03.2-.027.2-.026.2-.024.2-.024.2-.022.202-.02.202-.02.202-.02.203-.017.202-.016.204-.015.204-.014.204-.012.204-.01.205-.01.205-.01.205-.006.206-.006.206-.005.205-.004.207-.002.206v.415l.002.207.003.206.004.206.006.206.007.206.008.205.01.204.01.205.013.203.014.204.015.204.016.204.017.203.02.202.02.2.02.203.022.2.024.202.025.2.027.2.027.2.03.2.03.2.03.198.032.2.034.197.034.197.036.197.037.197.038.197.04.196.04.195.042.195.043.194.045.194.045.195.047.193.047.193.05.193.05.192.05.19.053.192.053.19.055.19.055.19.057.188.058.19.06.187.06.187.06.186.064.187.062.185.065.186.066.185.067.183.068.184.07.183.07.183.07.182.073.182.074.18.074.18.076.182.077.178.078.18.08.177.08.178.08.177.08.177.084.176.084.175.085.175.087.174.087.174.088.174.09.173.09.172.09.17.093.17.093.17.094.17.095.17.096.167.097.167.098.167.1.167.1.166.1.165.102.164.103.164.103.163.105.16.107.162.106.16.108.162.11.16.11.158.11.158.11.158.113.156.113.157.114.156.115.155.116.154.118.154.117.152.12.152.12.15.12.15.12.15.122.15.123.148.124.147.125.147.124.145.127.145.128.144.128.142.13.143.13.142.13.14.13.142.133.138.132.14.134.137.135.137.137.137.136.134.137.135.138.133.14.133.14.132.14.132.14.13.142.13.143.13.144.127.144.128.146.126.146.127.146.124.148.125.148.123.15.122.148.122.15.12.15.12.153.118.153.118.153.116.155.116.155.115.155.114.156.112.158.113.157.11.158.11.16.11.16.11.16.107.16.107.162.104.162.105.163.103.163.103.165.102.165.1.165.1.166.1.167.098.17.097.167.096.17.094.168.094.17.093.17.093.172.09.172.09.17.09.174.088.174.088.174.086.175.085.176.083.176.083.175.082.177.08.178.08.18.08.177.077.18.076.18.077.18.074.182.075.18.072.183.07.182.072.184.068.182.068.185.067.185.065.185.065.186.064.186.062.186.06.188.06.188.06.188.058.19.057.188.056.19.055.19.054.19.05.193.052.192.05.193.05.192.047.193.045.194.046.194.045.194.043.195.042.196.04.195.04.197.038.196.037.198.036.198.036.198.033.198.032.2.03.198.03.2.03.2.026.2.027.2.024.2.023.202.022.202.022.202.02.203.018.202.018.203.016.203.014.204.013.205.012.204.01.206.01.205.01.207.006.206.006.206.004.206.004.207.002h.414l.207-.002.206-.004.207-.004.206-.006.205-.007.205-.01.205-.01.205-.01.204-.013.204-.013.205-.015.203-.017.203-.018.203-.018.202-.02.202-.022.202-.022.2-.024.2-.025.2-.027.2-.027.2-.028.2-.03.198-.03.198-.033.198-.034.197-.035.198-.035.197-.037.196-.038.197-.04.195-.04.195-.042.195-.043.194-.044.193-.045.192-.046.193-.05.192-.048.192-.05.19-.05.19-.053.192-.055.19-.054.19-.055.188-.057.188-.058.188-.06.187-.06.187-.06.187-.063.186-.064.185-.065.185-.065.184-.067.184-.068.184-.07.183-.07.182-.07.18-.073.182-.074.18-.073.18-.076.18-.075.18-.078.177-.08.177-.078.177-.082.177-.082.177-.083.176-.084.174-.086.175-.086.173-.087.173-.087.173-.09.173-.09.17-.09.172-.092.17-.092.17-.094.168-.095.168-.097.17-.097.165-.098.167-.1.165-.1.165-.1.164-.102.164-.103.163-.104.162-.106.162-.105.16-.108.16-.108.16-.108.16-.11.157-.11.158-.11.157-.114.155-.113.155-.115.155-.115.154-.116.152-.116.152-.118.152-.12.15-.118.152-.12.15-.122.148-.122.148-.123.147-.124.148-.123.146-.126.145-.125.143-.128.144-.128.142-.13.14-.13.142-.13.14-.132.14-.132.14-.133.137-.134.136-.136.137-.135.135-.138.135-.137.134-.138.133-.14.133-.138.13-.142.132-.14.13-.143.13-.143.127-.143.127-.145.125-.146.126-.146.126-.147.124-.147.123-.148.122-.15.12-.15.12-.15.12-.15.12-.152.117-.152.117-.154.115-.153.114-.154.114-.155.113-.156.112-.156.11-.158.11-.158.11-.16.11-.158.106-.16.107-.162.106-.16.103-.163.104-.164.103-.164.102-.164.1-.165.1-.166.1-.166.098-.166.097-.167.096-.168.095-.17.094-.17.093-.17.092-.17.09-.17.09-.173.09-.173.088-.173.087-.173.086-.174.085-.175.084-.175.083-.176.082-.177.08-.177.08-.178.08-.178.077-.18.076-.178.075-.182.076-.18.073-.18.07-.183.073-.182.07-.183.07-.183.067-.184.067-.184.066-.186.064-.186.064-.185.064-.187.06-.187.06-.188.06-.188.058-.19.057-.187.055-.19.055-.19.053-.19.052-.19.052-.192.05-.192.048-.192.048-.192.047-.193.045-.194.044-.193.042-.194.042-.195.04-.195.04-.196.04-.196.036-.196.035-.197.035-.197.034-.198.032-.2.03-.197.03-.2.03-.2.027-.2.026-.2.024-.2.023-.2.023-.202.02-.202.02-.2.02-.203.017-.203.016-.203.015-.203.013-.204.014-.204.01-.206.01-.205.01-.206.006-.206.006-.206.005-.206.004-.206.002-.207v-.415l-.002-.206-.003-.207-.004-.206-.006-.207-.007-.206-.008-.205-.01-.205-.01-.205-.014-.204-.012-.204-.015-.203-.016-.203-.018-.202-.02-.203-.02-.202-.02-.202-.023-.2-.023-.202-.025-.2-.027-.2-.028-.2-.028-.2-.03-.2-.03-.198-.033-.2-.034-.196-.035-.198-.035-.197-.037-.197-.04-.196-.038-.196-.04-.195-.043-.195-.043-.194-.045-.194-.045-.194-.047-.193-.048-.193-.048-.192-.05-.192-.052-.19-.052-.192-.053-.19-.055-.19-.056-.19-.058-.188-.058-.19-.06-.187-.06-.188-.06-.187-.063-.186-.063-.187-.064-.186-.066-.184-.067-.185-.068-.184-.07-.183-.07-.182-.07-.182-.073-.182-.074-.18-.075-.18-.074-.18-.077-.18-.08-.18-.077-.178-.08-.178-.08-.177-.083-.176-.083-.176-.084-.175-.085-.175-.086-.174-.087-.174-.088-.173-.09-.173-.09-.17-.09-.173-.092-.17-.093-.17-.094-.17-.095-.167-.096-.17-.097-.166-.098-.167-.1-.166-.1-.166-.1-.165-.102-.164-.103-.164-.104-.163-.104-.163-.107-.16-.107-.162-.107-.16-.11-.16-.11-.16-.11-.157-.11-.156-.113-.157-.113-.156-.115-.155-.115-.154-.116-.153-.118-.154-.118-.152-.118-.15-.12-.152-.12-.15-.12-.15-.123-.15-.123-.147-.124-.146-.125-.146-.125-.146-.126-.145-.128-.145-.128-.143-.13-.144-.13-.142-.13-.14-.13-.14-.134-.14-.133-.14-.134-.138-.135-.137-.135-.137-.137-.136-.137-.135-.14-.134-.138-.133-.14-.132-.14-.132-.14-.13-.143-.13-.143-.128-.144-.128-.144-.128-.146-.126-.146-.126-.147-.124-.146-.124-.148-.123-.15-.122-.148-.12-.15-.12-.152-.12-.152-.12-.152-.116-.153-.117-.155-.116-.155-.114-.155-.114-.156-.113-.158-.114-.158-.11-.158-.11-.16-.11-.158-.11-.16-.107-.16-.107-.163-.106-.162-.105-.163-.104-.164-.103-.164-.1-.165-.102-.165-.1-.167-.1-.166-.097-.17-.097-.167-.097-.17-.095-.168-.095-.17-.093-.17-.092-.172-.09-.172-.09-.172-.09-.173-.088-.173-.087-.175-.086-.174-.085-.176-.084-.176-.083-.176-.082-.177-.08-.178-.08-.18-.08-.178-.077-.18-.076-.18-.076-.18-.074-.18-.074-.183-.072-.183-.07-.183-.07-.183-.07-.183-.07-.184-.065-.185-.067-.185-.065-.186-.064-.187-.062-.187-.06-.187-.062-.188-.06-.188-.057-.19-.057-.19-.056-.188-.054-.19-.054-.192-.052-.19-.05-.193-.05-.192-.05-.193-.048-.193-.046-.194-.046-.194-.044-.195-.043-.195-.042-.195-.04-.196-.04-.195-.037-.197-.037-.197-.036-.196-.035-.198-.033-.198-.032-.2-.03-.198-.03-.2-.03-.2-.027-.2-.026-.2-.025-.2-.024-.203-.022-.202-.02-.202-.02-.202-.02-.202-.017-.203-.018-.204-.014-.203-.014-.204-.012-.205-.01-.205-.01-.205-.01-.205-.007-.206-.006-.207-.005-.206-.003-.207-.002h-.414z" fill="#fff"/><path d="M338.528 124.505l128.157 176.202" fill="none" stroke="#fff" stroke-width="5"/><path fill="#fff" d="M403.21 14.408h69.42v15.6h-69.42z"/><g fill="#fff"><path d="M335.487 154.588h77.6v15.6h-77.6z"/><path d="M412.505 154.588c3.712 0 6.725 3.494 6.725 7.8 0 4.304-3.013 7.8-6.725 7.8-3.71 0-3.71-15.6 0-15.6z"/><g><path d="M275.49 154.588h77.598v15.6h-77.6z"/><path d="M276.07 154.588c-3.712 0-6.725 3.494-6.725 7.8 0 4.304 3.013 7.8 6.724 7.8 3.71 0 3.71-15.6 0-15.6z"/></g></g><g fill="#fff"><path d="M335.487 154.588h77.6v15.6h-77.6z"/><path d="M412.505 154.588c3.712 0 6.725 3.494 6.725 7.8 0 4.304-3.013 7.8-6.725 7.8-3.71 0-3.71-15.6 0-15.6z"/><g><path d="M275.49 154.588h77.598v15.6h-77.6z"/><path d="M276.07 154.588c-3.712 0-6.725 3.494-6.725 7.8 0 4.304 3.013 7.8 6.724 7.8 3.71 0 3.71-15.6 0-15.6z"/></g></g><g fill="#fff"><path d="M473.035 355.905V326.08h-15.6v29.825h15.6z"/><path d="M473.035 355.324c0 3.712-3.495 6.725-7.8 6.725s-7.8-3.014-7.8-6.726c0-3.71 15.6-3.71 15.6 0z"/><g><path d="M473.035 298.347v29.825h-15.6v-29.825h15.6z"/><path d="M473.035 298.927c0-3.71-3.495-6.724-7.8-6.724s-7.8 3.013-7.8 6.724c0 3.712 15.6 3.712 15.6 0z"/></g></g><g fill="#fff"><path d="M248.536 357.705l7.21-28.94-15.135-3.772-7.21 28.94 15.136 3.772z"/><path d="M248.677 357.14c-.898 3.603-5.017 5.68-9.194 4.64-4.177-1.04-6.84-4.81-5.942-8.41.898-3.6 16.034.17 15.137 3.77z"/><g><path d="M261.102 307.338l-7.21 28.94-15.138-3.77 7.212-28.942 15.136 3.772z"/><path d="M260.96 307.9c.9-3.6-1.764-7.37-5.94-8.41-4.178-1.04-8.297 1.038-9.195 4.64-.897 3.6 14.24 7.372 15.136 3.77z"/></g></g><path d="M403.21 11.36v5.544h8.697V11.36h-8.696zM471.844 14.408c5.02 0 9.096 3.495 9.096 7.8 0 4.304-4.076 7.8-9.096 7.8-5.02 0-5.02-15.6 0-15.6zM468.687 43.067l-55.978-12.02-2.503 10.26 55.978 12.02 2.502-10.26z" fill="#fff"/><path d="M468.13 42.947c3.567.766 5.903 3.687 5.213 6.518-.69 2.83-4.148 4.508-7.716 3.742-3.567-.766-1.066-11.026 2.502-10.26zM403.21 11.8c0-2.8 1.95-5.072 4.35-5.072 2.4 0 4.347 2.272 4.347 5.07 0 2.8-8.696 2.8-8.696 0z" fill="#fff"/><circle cx="407.559" cy="36.569" r="9.313" fill="#fff"/><path d="M407.56 34.085s-176.7 36.358-83.057 119.173" fill="none" stroke="#fff" stroke-width="3"/><path fill="#fff" d="M276.326 162.387h134.537v68.59H276.326z"/><circle cx="337.51" cy="126.603" r="12.208" fill="#fff"/><circle cx="431.925" cy="255.176" r="11.028" fill="#fff"/><circle cx="267.064" cy="255.176" r="11.028" fill="#fff"/><path d="M431.925 255.176h-164.86" fill="none" stroke="#fff" stroke-width="4"/></svg>