<?xml version="1.0" encoding="UTF-8" standalone="no"?><!DOCTYPE svg PUBLIC "-//W3C//DTD SVG 1.1//EN" "http://www.w3.org/Graphics/SVG/1.1/DTD/svg11.dtd"><svg width="100%" height="100%" viewBox="0 0 42 42" version="1.1" xmlns="http://www.w3.org/2000/svg" xmlns:xlink="http://www.w3.org/1999/xlink" xml:space="preserve" style="fill-rule:evenodd;clip-rule:evenodd;stroke-linejoin:round;stroke-miterlimit:1.41421;"><path d="M40.382,19.154l-16.586,0l0,-17.536l-5.592,0l0,17.536l-16.586,0l0,5.591l16.586,0l0,15.637l5.592,0l0,-15.637l16.586,0l0,-5.591Z" style="fill:#fff;fill-rule:nonzero;"/><path d="M23.943,0.125l0.145,0.022l0.143,0.036l0.139,0.049l0.133,0.063l0.126,0.076l0.118,0.087l0.109,0.099l0.099,0.109l0.088,0.119l0.076,0.126l0.062,0.133l0.05,0.139l0.036,0.142l0.021,0.146l0.008,0.147l0,16.036l15.086,0l0.147,0.007l0.146,0.022l0.142,0.036l0.139,0.049l0.133,0.063l0.126,0.076l0.119,0.088l0.109,0.098l0.099,0.11l0.087,0.118l0.076,0.126l0.063,0.133l0.049,0.139l0.036,0.142l0.022,0.146l0.007,0.147l0,5.591l-0.007,0.147l-0.022,0.146l-0.036,0.143l-0.049,0.138l-0.063,0.134l-0.076,0.126l-0.087,0.118l-0.099,0.109l-0.109,0.099l-0.119,0.088l-0.126,0.075l-0.133,0.063l-0.139,0.05l-0.142,0.036l-0.146,0.021l-0.147,0.007l-15.086,0l0,14.137l-0.008,0.147l-0.021,0.146l-0.036,0.142l-0.05,0.139l-0.062,0.133l-0.076,0.126l-0.088,0.119l-0.099,0.109l-0.109,0.099l-0.118,0.087l-0.126,0.076l-0.133,0.063l-0.139,0.049l-0.143,0.036l-0.145,0.022l-0.147,0.007l-5.592,0l-0.147,-0.007l-0.145,-0.022l-0.143,-0.036l-0.139,-0.049l-0.133,-0.063l-0.126,-0.076l-0.118,-0.087l-0.109,-0.099l-0.099,-0.109l-0.088,-0.119l-0.076,-0.126l-0.062,-0.133l-0.05,-0.139l-0.036,-0.142l-0.021,-0.146l-0.008,-0.147l0,-14.137l-15.086,0l-0.147,-0.007l-0.146,-0.021l-0.142,-0.036l-0.139,-0.05l-0.133,-0.063l-0.126,-0.075l-0.119,-0.088l-0.109,-0.099l-0.099,-0.109l-0.087,-0.118l-0.076,-0.126l-0.063,-0.134l-0.049,-0.138l-0.036,-0.143l-0.022,-0.146l-0.007,-0.147l0,-5.591l0.007,-0.147l0.022,-0.146l0.036,-0.142l0.049,-0.139l0.063,-0.133l0.076,-0.126l0.087,-0.118l0.099,-0.11l0.109,-0.098l0.119,-0.088l0.126,-0.076l0.133,-0.063l0.139,-0.049l0.142,-0.036l0.146,-0.022l0.147,-0.007l15.086,0l0,-16.036l0.008,-0.147l0.021,-0.146l0.036,-0.142l0.05,-0.139l0.062,-0.133l0.076,-0.126l0.088,-0.119l0.099,-0.109l0.109,-0.099l0.118,-0.087l0.126,-0.076l0.133,-0.063l0.139,-0.049l0.143,-0.036l0.145,-0.022l0.147,-0.007l5.592,0l0.147,0.007Zm-5.739,1.493l0,17.536l-16.586,0l0,5.591l16.586,0l0,15.637l5.592,0l0,-15.637l16.586,0l0,-5.591l-16.586,0l0,-17.536l-5.592,0Z" style="fill:#1370b8;"/></svg>