<?xml version="1.0" encoding="UTF-8" standalone="no"?><!DOCTYPE svg PUBLIC "-//W3C//DTD SVG 1.1//EN" "http://www.w3.org/Graphics/SVG/1.1/DTD/svg11.dtd"><svg width="100%" height="100%" viewBox="0 0 75 65" version="1.1" xmlns="http://www.w3.org/2000/svg" xmlns:xlink="http://www.w3.org/1999/xlink" xml:space="preserve" style="fill-rule:evenodd;clip-rule:evenodd;stroke-linejoin:round;stroke-miterlimit:1.41421;"><rect x="40.865" y="20.089" width="10.72" height="34.048" style="fill:#fff;"/><rect x="32.14" y="13.295" width="10.72" height="40.842" style="fill:#fff;"/><path d="M44.102,18.504l-2.074,0c0,0 -0.576,0 -1.121,0c-0.253,0 -0.495,0.1 -0.673,0.279c-0.179,0.178 -0.279,0.42 -0.279,0.673l0,41.554l0.171,0l-0.171,-10.367l-6.221,0l0,-2.074l6.221,0l0,-1.036l-6.221,0l0,-2.074l6.221,0l0,-1.037l-6.221,0l0,-2.073l6.221,0l0,-1.037l-6.221,0l0,-2.073l6.221,0l0,-1.037l-6.221,0l0,-2.073l6.221,0l0,-1.037l-6.221,0l0,-2.074l6.221,0l0,-1.036l-6.221,0l0,-2.074l6.221,0l0,-1.036l-6.221,0l0,-2.074l6.221,0l0,-1.037l-6.221,0l0,-2.073l6.221,0l0,-1.037l-6.221,0l0,-2.074l6.221,0l0,-1.036l-6.221,0l0,-2.074l8.259,0c0.01,0 0.019,0.004 0.026,0.011c0.007,0.007 0.011,0.017 0.011,0.027c0,0.185 -0.002,0.999 -0.002,0.999l2.074,0c0,0 0,-3.372 0,-5.151c0,-0.59 -0.479,-1.069 -1.07,-1.069c-0.507,0 -1.004,0 -1.004,0c0,0 0,-0.497 0,-1.004c0,-0.591 -0.479,-1.07 -1.069,-1.07c-0.508,0 -1.004,0 -1.004,0c0,0 0,-0.519 0,-1.037c0,-0.573 -0.464,-1.036 -1.036,-1.036c-0.001,0 -0.001,0 -0.001,0c0,0 0,-3.372 0,-5.151c0,-0.591 -0.479,-1.07 -1.07,-1.07c-0.017,0 -0.034,0 -0.051,0c-0.253,0 -0.495,0.1 -0.674,0.279c-0.178,0.178 -0.278,0.42 -0.278,0.673c0,1.743 0,5.269 0,5.269c0,0 -0.032,0 -0.085,0c-0.253,0 -0.495,0.1 -0.673,0.278c-0.179,0.179 -0.279,0.421 -0.279,0.673c0,0.545 0,1.122 0,1.122c0,0 -0.577,0 -1.122,0c-0.252,0 -0.494,0.1 -0.673,0.279c-0.178,0.178 -0.279,0.42 -0.279,0.673c0,0.545 0,1.121 0,1.121c0,0 -0.576,0 -1.121,0c-0.253,0 -0.495,0.101 -0.673,0.279c-0.179,0.179 -0.279,0.421 -0.279,0.673c0,6.804 0,47.775 0,47.775l-3.11,0c0,0 0,-12.708 0,-14.342c0,-0.114 -0.019,-0.227 -0.054,-0.336c-0.335,-1.011 -2.129,-6.44 -2.787,-8.433c-0.145,-0.438 -0.554,-0.734 -1.016,-0.734c-0.928,0 -2.484,0 -3.485,0c-0.526,0 -0.952,0.427 -0.952,0.952c0,1.225 0,3.195 0,3.195l1.036,0l0,-3.11l3.428,0l2.793,8.378l0,14.43c0,0 -1.244,0 -2.159,0c-0.252,0 -0.494,0.101 -0.673,0.279c-0.178,0.179 -0.278,0.421 -0.278,0.673c0,0.545 0,1.122 0,1.122l26.922,0c0.591,0 1.07,-0.479 1.07,-1.07c0,-0.507 0,-1.004 0,-1.004c0,0 0,-34.842 0,-41.436c0,-0.284 -0.113,-0.556 -0.314,-0.757c-0.2,-0.2 -0.472,-0.313 -0.756,-0.313c-2.241,0 -7.224,0 -7.224,0Zm-10.368,-4.147l8.294,0l0,2.073l-8.294,0l0,-2.073Zm11.405,39.396l0,-2.073l2.073,0l0,2.073l-2.073,0Zm-3.111,-2.073l2.074,0l0,2.073l-2.074,0l0,-2.073Zm0,-3.111l2.074,0l0,2.074l-2.074,0l0,-2.074Zm0,-3.11l2.074,0l0,2.074l-2.074,0l0,-2.074Zm0,-3.11l2.074,0l0,2.073l-2.074,0l0,-2.073Zm0,-3.11l2.074,0l0,2.073l-2.074,0l0,-2.073Zm0,-3.111l2.074,0l0,2.074l-2.074,0l0,-2.074Zm0,-3.11l2.074,0l0,2.074l-2.074,0l0,-2.074Zm0,-3.11l2.074,0l0,2.074l-2.074,0l0,-2.074Zm0,-3.11l2.074,0l0,2.073l-2.074,0l0,-2.073Zm0,-3.11l2.074,0l0,2.073l-2.074,0l0,-2.073Zm5.184,2.073l-2.073,0l0,-2.073l2.073,0l0,2.073Zm0,3.11l-2.073,0l0,-2.073l2.073,0l0,2.073Zm0,3.11l-2.073,0l0,-2.073l2.073,0l0,2.073Zm0,3.111l-2.073,0l0,-2.074l2.073,0l0,2.074Zm0,3.11l-2.073,0l0,-2.073l2.073,0l0,2.073Zm0,3.11l-2.073,0l0,-2.073l2.073,0l0,2.073Zm0,3.11l-2.073,0l0,-2.073l2.073,0l0,2.073Zm0,3.111l-2.073,0l0,-2.074l2.073,0l0,2.074Zm0,3.11l-2.073,0l0,-2.074l2.073,0l0,2.074Zm1.037,1.037l2.073,0l0,2.073l-2.073,0l0,-2.073Zm0,-1.037l0,-2.074l2.073,0l0,2.074l-2.073,0Zm0,-3.11l0,-2.074l2.073,0l0,2.074l-2.073,0Zm0,-3.111l0,-2.073l2.073,0l0,2.073l-2.073,0Zm0,-3.11l0,-2.073l2.073,0l0,2.073l-2.073,0Zm0,-3.11l0,-2.073l2.073,0l0,2.073l-2.073,0Zm0,-3.11l0,-2.074l2.073,0l0,2.074l-2.073,0Zm0,-3.111l0,-2.073l2.073,0l0,2.073l-2.073,0Zm0,-3.11l0,-2.073l2.073,0l0,2.073l-2.073,0Zm0,-3.11l0,-2.073l2.073,0l0,2.073l-2.073,0Zm0,-3.11l0,-2.074l2.073,0l0,2.074l-2.073,0Zm-1.037,0l-2.073,0l0,-2.074l2.073,0l0,2.074Zm-3.11,-2.074l0,2.074l-2.074,0l0,-2.074l2.074,0Z" style="fill:#1370b8;fill-rule:nonzero;"/><path d="M20.257,41.312l-2.074,4.147l5.184,0l-2.073,-4.147l-1.037,0Z" style="fill:#1370b8;fill-rule:nonzero;"/></svg>