<?xml version="1.0" encoding="UTF-8" standalone="no"?><!DOCTYPE svg PUBLIC "-//W3C//DTD SVG 1.1//EN" "http://www.w3.org/Graphics/SVG/1.1/DTD/svg11.dtd"><svg width="100%" height="100%" viewBox="0 0 700 400" version="1.1" xmlns="http://www.w3.org/2000/svg" xmlns:xlink="http://www.w3.org/1999/xlink" xml:space="preserve" style="fill-rule:evenodd;clip-rule:evenodd;stroke-linecap:round;stroke-linejoin:round;stroke-miterlimit:1.5;"><g><g><g><path d="M271.503,98.987c-1.017,-1.625 -5.556,-0.965 -8.032,0.354l-78.608,41.889c-2.476,1.319 -5.365,4.618 -4.348,6.243l3.683,5.888c1.016,1.625 5.556,0.965 8.032,-0.355l78.608,-41.888c2.476,-1.32 5.365,-4.618 4.348,-6.243l-3.683,-5.888Z" style="fill:#fff;"/><path d="M268.957,93.029l0.226,0.004l0.228,0.009l0.231,0.014l0.233,0.018l0.235,0.023l0.239,0.029l0.226,0.033l0.137,0.023l0.123,0.021l0.124,0.024l0.125,0.025l0.125,0.028l0.128,0.029l0.128,0.032l0.129,0.034l0.131,0.037l0.131,0.039l0.133,0.042l0.134,0.045l0.136,0.048l0.136,0.051l0.138,0.055l0.139,0.058l0.14,0.062l0.142,0.066l0.142,0.07l0.143,0.075l0.144,0.079l0.145,0.084l0.147,0.09l0.145,0.094l0.147,0.101l0.147,0.106l0.146,0.111l0.145,0.118l0.145,0.124l0.143,0.131l0.142,0.137l0.14,0.144l0.137,0.15l0.134,0.156l0.131,0.163l0.126,0.168l0.123,0.175l0.094,0.145l3.728,5.961l0.089,0.148l0.104,0.187l0.099,0.191l0.091,0.194l0.083,0.195l0.077,0.196l0.069,0.196l0.062,0.196l0.055,0.195l0.049,0.196l0.042,0.193l0.035,0.192l0.029,0.19l0.024,0.188l0.018,0.185l0.012,0.183l0.007,0.18l0.003,0.175l-0.002,0.173l-0.006,0.17l-0.01,0.167l-0.014,0.164l-0.017,0.161l-0.02,0.156l-0.023,0.155l-0.026,0.15l-0.028,0.148l-0.031,0.145l-0.033,0.141l-0.035,0.14l-0.037,0.135l-0.039,0.135l-0.04,0.131l-0.042,0.128l-0.043,0.126l-0.045,0.124l-0.046,0.122l-0.047,0.121l-0.048,0.117l-0.049,0.115l-0.05,0.114l-0.058,0.127l-0.098,0.205l-0.109,0.213l-0.111,0.208l-0.115,0.202l-0.117,0.197l-0.119,0.194l-0.123,0.189l-0.124,0.185l-0.126,0.181l-0.129,0.178l-0.13,0.175l-0.133,0.172l-0.135,0.17l-0.136,0.166l-0.138,0.164l-0.14,0.162l-0.142,0.159l-0.144,0.157l-0.145,0.155l-0.148,0.153l-0.148,0.15l-0.151,0.149l-0.152,0.146l-0.153,0.144l-0.156,0.143l-0.156,0.14l-0.159,0.139l-0.16,0.136l-0.162,0.134l-0.163,0.132l-0.165,0.131l-0.166,0.128l-0.169,0.126l-0.17,0.124l-0.172,0.123l-0.174,0.119l-0.176,0.118l-0.177,0.115l-0.181,0.114l-0.182,0.111l-0.185,0.109l-0.188,0.106l-0.172,0.093l-78.646,41.909l-0.173,0.09l-0.193,0.097l-0.193,0.093l-0.194,0.09l-0.194,0.086l-0.195,0.084l-0.196,0.08l-0.197,0.078l-0.197,0.076l-0.198,0.072l-0.199,0.07l-0.199,0.068l-0.201,0.065l-0.201,0.063l-0.202,0.061l-0.203,0.058l-0.204,0.056l-0.205,0.054l-0.205,0.052l-0.206,0.049l-0.207,0.047l-0.208,0.044l-0.209,0.042l-0.209,0.04l-0.21,0.038l-0.211,0.035l-0.212,0.032l-0.213,0.03l-0.213,0.027l-0.215,0.025l-0.215,0.022l-0.217,0.019l-0.217,0.016l-0.219,0.013l-0.22,0.009l-0.221,0.007l-0.223,0.003l-0.224,-0.001l-0.226,-0.005l-0.229,-0.009l-0.23,-0.013l-0.233,-0.019l-0.235,-0.023l-0.239,-0.029l-0.226,-0.033l-0.137,-0.022l-0.123,-0.022l-0.124,-0.023l-0.125,-0.026l-0.126,-0.027l-0.127,-0.03l-0.128,-0.032l-0.129,-0.034l-0.131,-0.037l-0.131,-0.039l-0.133,-0.042l-0.134,-0.045l-0.136,-0.048l-0.136,-0.051l-0.137,-0.054l-0.14,-0.059l-0.14,-0.062l-0.141,-0.066l-0.143,-0.07l-0.143,-0.075l-0.145,-0.079l-0.145,-0.084l-0.146,-0.089l-0.146,-0.095l-0.146,-0.1l-0.146,-0.106l-0.147,-0.112l-0.146,-0.118l-0.144,-0.124l-0.143,-0.13l-0.142,-0.137l-0.14,-0.144l-0.137,-0.15l-0.134,-0.157l-0.131,-0.162l-0.126,-0.169l-0.123,-0.175l-0.093,-0.144l-3.729,-5.961l-0.089,-0.149l-0.105,-0.188l-0.097,-0.19l-0.091,-0.193l-0.084,-0.195l-0.077,-0.196l-0.069,-0.196l-0.062,-0.197l-0.055,-0.195l-0.049,-0.195l-0.042,-0.194l-0.035,-0.191l-0.03,-0.192l-0.023,-0.186l-0.017,-0.185l-0.013,-0.184l-0.007,-0.179l-0.003,-0.176l0.002,-0.173l0.006,-0.17l0.01,-0.167l0.014,-0.164l0.017,-0.16l0.02,-0.157l0.023,-0.154l0.026,-0.151l0.028,-0.148l0.031,-0.144l0.033,-0.142l0.035,-0.139l0.037,-0.136l0.039,-0.134l0.04,-0.132l0.042,-0.128l0.043,-0.126l0.044,-0.123l0.047,-0.123l0.047,-0.12l0.048,-0.117l0.049,-0.116l0.05,-0.114l0.058,-0.126l0.098,-0.205l0.109,-0.214l0.111,-0.207l0.115,-0.202l0.117,-0.198l0.119,-0.193l0.122,-0.189l0.125,-0.185l0.126,-0.182l0.129,-0.178l0.13,-0.175l0.133,-0.172l0.135,-0.169l0.136,-0.167l0.138,-0.164l0.14,-0.162l0.142,-0.159l0.144,-0.157l0.145,-0.155l0.147,-0.152l0.149,-0.151l0.151,-0.148l0.152,-0.147l0.153,-0.144l0.156,-0.142l0.156,-0.141l0.159,-0.138l0.16,-0.136l0.162,-0.135l0.163,-0.132l0.165,-0.13l0.166,-0.129l0.169,-0.126l0.17,-0.124l0.172,-0.122l0.174,-0.12l0.176,-0.118l0.178,-0.115l0.18,-0.113l0.182,-0.111l0.186,-0.109l0.188,-0.106l0.171,-0.094l78.646,-41.909l0.173,-0.09l0.192,-0.097l0.194,-0.093l0.194,-0.089l0.194,-0.087l0.195,-0.083l0.196,-0.081l0.196,-0.078l0.198,-0.075l0.198,-0.073l0.199,-0.07l0.199,-0.068l0.201,-0.065l0.201,-0.063l0.202,-0.061l0.203,-0.058l0.204,-0.056l0.205,-0.054l0.205,-0.051l0.206,-0.049l0.207,-0.047l0.208,-0.045l0.209,-0.042l0.209,-0.04l0.21,-0.037l0.211,-0.035l0.212,-0.033l0.213,-0.03l0.213,-0.027l0.215,-0.025l0.215,-0.021l0.217,-0.019l0.217,-0.016l0.219,-0.013l0.219,-0.01l0.222,-0.006l0.223,-0.003l0.224,0.001Zm-0.343,5.001l-0.143,0.004l-0.144,0.006l-0.146,0.009l-0.147,0.011l-0.147,0.013l-0.149,0.015l-0.15,0.017l-0.15,0.019l-0.151,0.021l-0.151,0.023l-0.152,0.026l-0.151,0.027l-0.152,0.028l-0.152,0.031l-0.151,0.033l-0.152,0.034l-0.15,0.036l-0.15,0.037l-0.15,0.04l-0.148,0.04l-0.148,0.043l-0.146,0.044l-0.145,0.045l-0.144,0.047l-0.143,0.048l-0.14,0.05l-0.139,0.051l-0.138,0.052l-0.135,0.054l-0.133,0.055l-0.13,0.056l-0.129,0.057l-0.126,0.058l-0.123,0.059l-0.12,0.061l-0.118,0.061l-78.608,41.889l-0.116,0.063l-0.117,0.066l-0.117,0.069l-0.118,0.072l-0.118,0.074l-0.117,0.076l-0.118,0.079l-0.118,0.081l-0.118,0.084l-0.117,0.085l-0.117,0.088l-0.117,0.09l-0.115,0.091l-0.116,0.094l-0.114,0.095l-0.114,0.096l-0.112,0.099l-0.112,0.099l-0.11,0.102l-0.109,0.102l-0.108,0.104l-0.106,0.105l-0.105,0.106l-0.103,0.106l-0.101,0.108l-0.099,0.109l-0.098,0.109l-0.095,0.11l-0.093,0.111l-0.091,0.111l-0.089,0.111l-0.086,0.112l-0.083,0.112l-0.081,0.112l-0.078,0.112l-0.075,0.112l-0.073,0.112l-0.069,0.112l-0.066,0.111l-0.063,0.111l-0.059,0.111l-0.056,0.11l-0.053,0.11l-0.025,0.054l-0.024,0.054l-0.023,0.055l-0.022,0.054l-0.021,0.053l-0.02,0.054l-0.019,0.053l-0.018,0.053l-0.018,0.053l-0.016,0.052l-0.015,0.052l-0.014,0.052l-0.013,0.052l-0.012,0.051l-0.011,0.051l-0.009,0.051l-0.009,0.05l-0.008,0.05l-0.006,0.05l-0.005,0.049l-0.004,0.049l-0.003,0.048l-0.002,0.048l0,0.048l0,0.047l0.002,0.047l0.003,0.046l0.005,0.046l0.005,0.046l0.007,0.044l0.009,0.045l0.009,0.044l0.011,0.043l0.012,0.043l0.013,0.043l0.015,0.041l0.016,0.042l0.018,0.04l0.019,0.041l0.02,0.039l0.022,0.039l0.023,0.039l3.683,5.888l0.025,0.038l0.025,0.036l0.027,0.036l0.029,0.036l0.029,0.034l0.031,0.034l0.032,0.032l0.033,0.032l0.034,0.031l0.035,0.031l0.037,0.029l0.037,0.029l0.039,0.028l0.04,0.027l0.041,0.027l0.041,0.025l0.043,0.025l0.044,0.024l0.045,0.024l0.046,0.022l0.047,0.022l0.048,0.022l0.049,0.02l0.05,0.02l0.05,0.019l0.052,0.018l0.052,0.017l0.053,0.017l0.054,0.016l0.055,0.016l0.056,0.015l0.057,0.014l0.057,0.013l0.058,0.013l0.059,0.012l0.059,0.011l0.061,0.011l0.061,0.01l0.124,0.017l0.126,0.016l0.129,0.013l0.132,0.01l0.133,0.008l0.136,0.005l0.138,0.003l0.139,0.001l0.141,-0.002l0.143,-0.004l0.144,-0.007l0.146,-0.008l0.147,-0.011l0.147,-0.013l0.149,-0.015l0.15,-0.017l0.15,-0.02l0.151,-0.021l0.151,-0.023l0.152,-0.025l0.151,-0.027l0.152,-0.029l0.152,-0.031l0.151,-0.032l0.152,-0.034l0.15,-0.036l0.15,-0.038l0.15,-0.039l0.148,-0.041l0.148,-0.042l0.146,-0.044l0.145,-0.046l0.144,-0.047l0.143,-0.048l0.14,-0.05l0.139,-0.051l0.138,-0.052l0.135,-0.053l0.133,-0.055l0.13,-0.056l0.129,-0.057l0.126,-0.059l0.123,-0.059l0.12,-0.06l0.118,-0.062l78.608,-41.888l0.116,-0.064l0.117,-0.066l0.117,-0.069l0.118,-0.071l0.118,-0.074l0.117,-0.077l0.118,-0.079l0.118,-0.081l0.118,-0.083l0.117,-0.086l0.117,-0.088l0.117,-0.089l0.115,-0.092l0.116,-0.093l0.114,-0.095l0.114,-0.097l0.112,-0.098l0.112,-0.1l0.11,-0.101l0.109,-0.103l0.108,-0.103l0.106,-0.105l0.105,-0.106l0.103,-0.107l0.101,-0.108l0.099,-0.108l0.098,-0.11l0.095,-0.11l0.093,-0.11l0.091,-0.111l0.089,-0.112l0.086,-0.111l0.083,-0.112l0.081,-0.112l0.078,-0.112l0.075,-0.112l0.073,-0.112l0.069,-0.112l0.066,-0.112l0.063,-0.111l0.059,-0.11l0.056,-0.111l0.053,-0.109l0.025,-0.055l0.024,-0.054l0.023,-0.054l0.022,-0.054l0.021,-0.054l0.02,-0.053l0.019,-0.054l0.018,-0.053l0.018,-0.052l0.016,-0.053l0.015,-0.052l0.014,-0.052l0.013,-0.052l0.012,-0.051l0.011,-0.051l0.009,-0.05l0.009,-0.051l0.008,-0.05l0.006,-0.049l0.005,-0.05l0.004,-0.048l0.003,-0.049l0.002,-0.048l0,-0.048l0,-0.047l-0.002,-0.047l-0.003,-0.046l-0.005,-0.046l-0.005,-0.045l-0.007,-0.045l-0.009,-0.044l-0.009,-0.044l-0.011,-0.044l-0.012,-0.043l-0.013,-0.042l-0.015,-0.042l-0.016,-0.041l-0.018,-0.041l-0.019,-0.04l-0.02,-0.04l-0.022,-0.039l-0.023,-0.038l-3.683,-5.888l-0.025,-0.038l-0.025,-0.037l-0.027,-0.036l-0.029,-0.035l-0.029,-0.035l-0.031,-0.033l-0.032,-0.033l-0.033,-0.032l-0.034,-0.031l-0.035,-0.03l-0.037,-0.03l-0.037,-0.029l-0.039,-0.028l-0.04,-0.027l-0.041,-0.026l-0.041,-0.026l-0.043,-0.025l-0.044,-0.024l-0.045,-0.023l-0.046,-0.023l-0.047,-0.022l-0.048,-0.021l-0.049,-0.021l-0.05,-0.019l-0.05,-0.019l-0.052,-0.018l-0.052,-0.018l-0.053,-0.017l-0.054,-0.016l-0.055,-0.015l-0.056,-0.015l-0.057,-0.014l-0.057,-0.013l-0.058,-0.013l-0.059,-0.012l-0.059,-0.011l-0.061,-0.011l-0.061,-0.01l-0.124,-0.018l-0.126,-0.015l-0.129,-0.013l-0.132,-0.01l-0.133,-0.008l-0.136,-0.006l-0.138,-0.003l-0.139,0l-0.141,0.002Z" style="fill:#fff;"/><path d="M196.219,154.011l48.201,75.702c0,0 10.487,12.832 46.652,40.984c15.068,11.729 42.707,-0.651 38.871,-21.385c-8.175,-44.18 -12.629,-57.593 -12.629,-57.593l-47.965,-76.678" style="fill:none;stroke:#fff;stroke-width:5px;"/><path d="M212.616,145.273l46.666,74.603c0,0 11.019,16.961 42.917,37.786c3.406,2.223 6.224,-0.364 6.224,-0.364c0,0 4.516,-0.918 4.275,-4.984c-1.795,-30.311 -11.948,-54.536 -11.948,-54.536l-46.666,-74.602" style="fill:none;stroke:#fff;stroke-width:5px;"/><path d="M307.213,277.718l49.593,79.282l-0.549,17.905l4.71,7.529l37.142,-19.793l-4.505,-7.203l-17.371,-8.618" style="fill:none;stroke:#fff;stroke-width:5px;"/><path d="M357.962,356.556l18.271,-9.736l-49.674,-79.411" style="fill:none;stroke:#fff;stroke-width:5px;"/><path d="M274.41,155.671l-39.83,21.225" style="fill:none;stroke:#fff;stroke-width:5px;"/><path d="M284.048,171.078l-40.277,21.463" style="fill:none;stroke:#fff;stroke-width:5px;"/></g></g><g><g><path d="M392.962,23.511c-0.947,-1.514 -5.43,-0.764 -7.906,0.556l-78.608,41.889c-2.476,1.319 -5.421,4.527 -4.474,6.041l3.431,5.486c0.947,1.514 5.43,0.764 7.907,-0.555l78.607,-41.889c2.476,-1.319 5.422,-4.528 4.475,-6.042l-3.432,-5.486Z" style="fill:#fff;"/><path d="M390.794,17.675l0.225,0.006l0.228,0.011l0.231,0.016l0.233,0.021l0.238,0.026l0.225,0.031l0.137,0.022l0.123,0.021l0.125,0.023l0.125,0.025l0.127,0.027l0.128,0.029l0.13,0.032l0.131,0.034l0.133,0.038l0.134,0.04l0.135,0.043l0.137,0.046l0.139,0.05l0.141,0.053l0.141,0.058l0.143,0.061l0.145,0.066l0.147,0.071l0.147,0.076l0.149,0.08l0.151,0.087l0.15,0.091l0.151,0.098l0.152,0.104l0.152,0.111l0.152,0.118l0.152,0.125l0.149,0.131l0.148,0.139l0.148,0.147l0.145,0.154l0.14,0.16l0.137,0.168l0.133,0.176l0.128,0.18l0.098,0.151l3.479,5.562l0.093,0.154l0.109,0.199l0.101,0.199l0.092,0.201l0.086,0.206l0.077,0.204l0.068,0.204l0.062,0.207l0.053,0.204l0.045,0.201l0.038,0.201l0.032,0.198l0.025,0.196l0.018,0.193l0.012,0.189l0.007,0.187l0.002,0.18l-0.004,0.179l-0.008,0.175l-0.012,0.172l-0.016,0.168l-0.019,0.163l-0.023,0.158l-0.026,0.157l-0.029,0.152l-0.031,0.149l-0.034,0.147l-0.035,0.139l-0.038,0.139l-0.04,0.138l-0.042,0.132l-0.043,0.13l-0.044,0.127l-0.046,0.124l-0.047,0.123l-0.048,0.119l-0.049,0.117l-0.051,0.116l-0.051,0.114l-0.059,0.126l-0.1,0.202l-0.109,0.21l-0.114,0.205l-0.115,0.198l-0.118,0.194l-0.12,0.189l-0.122,0.183l-0.125,0.181l-0.126,0.176l-0.129,0.174l-0.13,0.17l-0.132,0.167l-0.134,0.165l-0.136,0.162l-0.137,0.159l-0.139,0.157l-0.141,0.155l-0.142,0.153l-0.144,0.15l-0.145,0.148l-0.147,0.147l-0.149,0.144l-0.15,0.143l-0.152,0.14l-0.153,0.139l-0.154,0.137l-0.156,0.135l-0.157,0.133l-0.159,0.131l-0.16,0.13l-0.162,0.127l-0.163,0.126l-0.165,0.124l-0.166,0.122l-0.167,0.12l-0.17,0.117l-0.17,0.116l-0.173,0.114l-0.175,0.112l-0.176,0.11l-0.179,0.107l-0.181,0.106l-0.183,0.103l-0.168,0.091l-78.643,41.908l-0.169,0.088l-0.188,0.095l-0.188,0.091l-0.189,0.088l-0.189,0.086l-0.191,0.082l-0.19,0.081l-0.192,0.077l-0.193,0.075l-0.193,0.073l-0.194,0.071l-0.195,0.069l-0.196,0.066l-0.197,0.064l-0.197,0.062l-0.198,0.06l-0.199,0.058l-0.2,0.056l-0.2,0.053l-0.202,0.052l-0.202,0.049l-0.203,0.047l-0.203,0.046l-0.205,0.043l-0.205,0.04l-0.206,0.039l-0.206,0.036l-0.208,0.034l-0.208,0.031l-0.209,0.029l-0.21,0.026l-0.211,0.024l-0.212,0.021l-0.213,0.018l-0.215,0.015l-0.216,0.012l-0.217,0.008l-0.219,0.006l-0.221,0.001l-0.223,-0.002l-0.225,-0.006l-0.227,-0.011l-0.231,-0.016l-0.234,-0.021l-0.237,-0.027l-0.225,-0.031l-0.138,-0.021l-0.123,-0.021l-0.124,-0.023l-0.126,-0.025l-0.127,-0.027l-0.128,-0.029l-0.13,-0.032l-0.131,-0.035l-0.132,-0.037l-0.134,-0.04l-0.136,-0.043l-0.137,-0.046l-0.139,-0.05l-0.14,-0.054l-0.141,-0.057l-0.144,-0.062l-0.145,-0.066l-0.146,-0.07l-0.148,-0.076l-0.148,-0.08l-0.15,-0.086l-0.151,-0.093l-0.152,-0.098l-0.152,-0.104l-0.151,-0.111l-0.152,-0.117l-0.152,-0.125l-0.15,-0.132l-0.149,-0.139l-0.146,-0.146l-0.144,-0.153l-0.142,-0.162l-0.137,-0.168l-0.133,-0.175l-0.128,-0.181l-0.097,-0.15l-3.481,-5.564l-0.092,-0.153l-0.108,-0.197l-0.101,-0.201l-0.093,-0.202l-0.085,-0.203l-0.077,-0.206l-0.069,-0.205l-0.061,-0.204l-0.053,-0.204l-0.046,-0.203l-0.038,-0.201l-0.031,-0.197l-0.025,-0.195l-0.018,-0.194l-0.013,-0.19l-0.007,-0.185l-0.001,-0.183l0.003,-0.179l0.008,-0.174l0.012,-0.171l0.016,-0.167l0.02,-0.163l0.023,-0.161l0.026,-0.155l0.028,-0.152l0.032,-0.149l0.033,-0.145l0.036,-0.142l0.038,-0.139l0.04,-0.136l0.041,-0.133l0.043,-0.129l0.045,-0.128l0.045,-0.125l0.047,-0.122l0.049,-0.12l0.049,-0.117l0.05,-0.116l0.052,-0.113l0.058,-0.126l0.1,-0.202l0.11,-0.21l0.113,-0.205l0.116,-0.198l0.117,-0.194l0.121,-0.188l0.122,-0.185l0.124,-0.18l0.127,-0.177l0.128,-0.173l0.131,-0.171l0.132,-0.167l0.134,-0.164l0.135,-0.162l0.138,-0.159l0.139,-0.157l0.14,-0.155l0.143,-0.153l0.144,-0.15l0.145,-0.149l0.147,-0.146l0.149,-0.144l0.15,-0.143l0.151,-0.141l0.153,-0.138l0.155,-0.137l0.156,-0.135l0.157,-0.133l0.158,-0.132l0.161,-0.129l0.161,-0.128l0.163,-0.125l0.165,-0.124l0.166,-0.122l0.168,-0.12l0.169,-0.118l0.171,-0.116l0.173,-0.113l0.174,-0.112l0.177,-0.11l0.178,-0.108l0.181,-0.105l0.183,-0.103l0.168,-0.092l78.643,-41.907l0.169,-0.088l0.188,-0.095l0.189,-0.091l0.188,-0.089l0.19,-0.085l0.19,-0.083l0.191,-0.08l0.192,-0.077l0.192,-0.076l0.193,-0.073l0.195,-0.07l0.195,-0.069l0.195,-0.066l0.197,-0.064l0.197,-0.062l0.198,-0.06l0.199,-0.058l0.2,-0.056l0.201,-0.053l0.201,-0.052l0.202,-0.049l0.203,-0.048l0.204,-0.045l0.204,-0.043l0.205,-0.04l0.206,-0.039l0.207,-0.036l0.207,-0.034l0.208,-0.031l0.21,-0.029l0.21,-0.026l0.211,-0.024l0.212,-0.021l0.213,-0.018l0.214,-0.015l0.216,-0.012l0.217,-0.009l0.219,-0.005l0.221,-0.002l0.223,0.003Zm-0.365,4.999l-0.137,0.003l-0.139,0.005l-0.141,0.008l-0.142,0.01l-0.143,0.012l-0.145,0.015l-0.145,0.016l-0.147,0.018l-0.148,0.021l-0.148,0.022l-0.149,0.024l-0.149,0.026l-0.15,0.028l-0.15,0.03l-0.15,0.032l-0.15,0.033l-0.15,0.035l-0.15,0.036l-0.149,0.039l-0.149,0.039l-0.148,0.042l-0.147,0.043l-0.147,0.044l-0.145,0.046l-0.144,0.047l-0.143,0.048l-0.142,0.05l-0.14,0.051l-0.138,0.052l-0.136,0.053l-0.135,0.055l-0.132,0.055l-0.131,0.057l-0.128,0.058l-0.125,0.058l-0.123,0.06l-0.121,0.061l-0.117,0.061l-78.608,41.889l-0.116,0.063l-0.117,0.066l-0.118,0.068l-0.118,0.071l-0.118,0.074l-0.118,0.076l-0.118,0.078l-0.119,0.08l-0.118,0.082l-0.118,0.085l-0.118,0.086l-0.117,0.089l-0.117,0.09l-0.116,0.091l-0.116,0.094l-0.115,0.095l-0.114,0.096l-0.112,0.098l-0.112,0.099l-0.111,0.1l-0.109,0.101l-0.107,0.102l-0.107,0.104l-0.104,0.104l-0.103,0.105l-0.101,0.106l-0.1,0.106l-0.097,0.107l-0.095,0.107l-0.093,0.108l-0.09,0.108l-0.089,0.109l-0.085,0.108l-0.083,0.109l-0.081,0.108l-0.077,0.109l-0.075,0.108l-0.072,0.108l-0.068,0.107l-0.065,0.107l-0.063,0.107l-0.058,0.106l-0.055,0.105l-0.052,0.105l-0.024,0.052l-0.024,0.052l-0.022,0.051l-0.022,0.052l-0.02,0.051l-0.02,0.051l-0.018,0.05l-0.018,0.05l-0.016,0.05l-0.016,0.05l-0.014,0.049l-0.014,0.049l-0.012,0.049l-0.011,0.048l-0.01,0.048l-0.009,0.048l-0.008,0.047l-0.007,0.047l-0.005,0.046l-0.005,0.046l-0.003,0.046l-0.002,0.045l-0.001,0.045l0.001,0.044l0.001,0.044l0.003,0.044l0.004,0.042l0.006,0.043l0.006,0.042l0.008,0.041l0.009,0.041l0.011,0.041l0.012,0.039l0.013,0.04l0.014,0.038l0.016,0.039l0.018,0.037l0.018,0.037l0.02,0.037l0.022,0.035l3.431,5.486l0.023,0.035l0.024,0.035l0.026,0.033l0.026,0.033l0.028,0.032l0.029,0.031l0.031,0.03l0.031,0.029l0.033,0.029l0.034,0.028l0.034,0.027l0.037,0.026l0.037,0.025l0.038,0.025l0.039,0.024l0.041,0.023l0.041,0.023l0.042,0.021l0.044,0.021l0.044,0.021l0.046,0.019l0.046,0.019l0.047,0.018l0.049,0.017l0.049,0.017l0.05,0.016l0.051,0.015l0.052,0.015l0.052,0.013l0.054,0.014l0.054,0.012l0.055,0.012l0.056,0.011l0.057,0.01l0.057,0.01l0.058,0.009l0.119,0.016l0.121,0.014l0.124,0.011l0.126,0.009l0.129,0.006l0.131,0.004l0.133,0.001l0.136,-0.001l0.137,-0.003l0.139,-0.006l0.14,-0.007l0.142,-0.01l0.143,-0.013l0.145,-0.014l0.146,-0.016l0.147,-0.019l0.147,-0.02l0.148,-0.022l0.149,-0.025l0.15,-0.026l0.15,-0.028l0.15,-0.029l0.15,-0.032l0.15,-0.033l0.15,-0.035l0.149,-0.037l0.15,-0.038l0.148,-0.04l0.148,-0.041l0.148,-0.043l0.146,-0.044l0.145,-0.046l0.145,-0.047l0.143,-0.048l0.141,-0.05l0.14,-0.051l0.138,-0.052l0.137,-0.053l0.134,-0.055l0.133,-0.056l0.13,-0.056l0.128,-0.058l0.126,-0.059l0.123,-0.059l0.12,-0.061l0.118,-0.061l78.607,-41.889l0.117,-0.063l0.117,-0.066l0.117,-0.069l0.118,-0.071l0.118,-0.073l0.118,-0.076l0.119,-0.078l0.118,-0.08l0.119,-0.083l0.118,-0.084l0.117,-0.087l0.118,-0.088l0.117,-0.09l0.116,-0.092l0.115,-0.093l0.115,-0.095l0.114,-0.096l0.113,-0.098l0.112,-0.099l0.11,-0.1l0.109,-0.101l0.108,-0.103l0.106,-0.103l0.105,-0.104l0.103,-0.105l0.101,-0.106l0.099,-0.106l0.097,-0.107l0.095,-0.108l0.093,-0.108l0.091,-0.108l0.088,-0.108l0.086,-0.108l0.083,-0.109l0.08,-0.108l0.078,-0.109l0.074,-0.108l0.072,-0.108l0.069,-0.108l0.065,-0.107l0.062,-0.106l0.059,-0.106l0.055,-0.106l0.051,-0.104l0.025,-0.052l0.023,-0.052l0.023,-0.052l0.021,-0.051l0.021,-0.051l0.019,-0.051l0.019,-0.05l0.017,-0.051l0.017,-0.049l0.015,-0.05l0.015,-0.049l0.013,-0.049l0.012,-0.049l0.011,-0.048l0.011,-0.048l0.009,-0.048l0.007,-0.047l0.007,-0.047l0.006,-0.047l0.004,-0.046l0.003,-0.045l0.002,-0.045l0.001,-0.045l0,-0.045l-0.002,-0.043l-0.003,-0.044l-0.004,-0.043l-0.005,-0.042l-0.007,-0.042l-0.008,-0.042l-0.009,-0.04l-0.01,-0.041l-0.012,-0.04l-0.013,-0.039l-0.015,-0.039l-0.016,-0.038l-0.017,-0.037l-0.019,-0.037l-0.02,-0.037l-0.021,-0.036l-3.432,-5.486l-0.023,-0.035l-0.024,-0.034l-0.025,-0.033l-0.027,-0.033l-0.028,-0.032l-0.029,-0.031l-0.03,-0.03l-0.032,-0.029l-0.032,-0.029l-0.034,-0.028l-0.035,-0.027l-0.036,-0.026l-0.037,-0.026l-0.038,-0.024l-0.04,-0.024l-0.04,-0.024l-0.041,-0.022l-0.043,-0.022l-0.043,-0.021l-0.045,-0.02l-0.045,-0.019l-0.047,-0.019l-0.047,-0.018l-0.048,-0.018l-0.049,-0.016l-0.05,-0.016l-0.051,-0.015l-0.052,-0.015l-0.053,-0.014l-0.053,-0.013l-0.055,-0.012l-0.055,-0.012l-0.056,-0.011l-0.056,-0.011l-0.058,-0.009l-0.058,-0.009l-0.118,-0.017l-0.122,-0.013l-0.123,-0.012l-0.127,-0.008l-0.129,-0.006l-0.131,-0.004l-0.133,-0.001l-0.135,0.001Z" style="fill:#fff;"/><path d="M317.804,78.737l48.201,75.702c0,0 10.487,12.832 46.652,40.984c15.068,11.729 42.707,-0.651 38.871,-21.385c-8.175,-44.18 -12.629,-57.593 -12.629,-57.593l-47.965,-76.678" style="fill:none;stroke:#fff;stroke-width:5px;"/><path d="M334.201,69.999l46.666,74.603c0,0 11.019,16.961 42.917,37.786c3.406,2.223 6.224,-0.364 6.224,-0.364c0,0 4.516,-0.918 4.275,-4.984c-1.795,-30.311 -11.949,-54.536 -11.949,-54.536l-46.666,-74.602" style="fill:none;stroke:#fff;stroke-width:5px;"/><path d="M428.798,202.443l49.593,79.283l-0.549,17.905l4.709,7.529l37.143,-19.793l-4.506,-7.203l-17.37,-8.618" style="fill:none;stroke:#fff;stroke-width:5px;"/><path d="M479.547,281.282l18.271,-9.736l-49.674,-79.412" style="fill:none;stroke:#fff;stroke-width:5px;"/><path d="M395.995,80.397l-39.83,21.224" style="fill:none;stroke:#fff;stroke-width:5px;"/><path d="M405.632,95.804l-40.276,21.463" style="fill:none;stroke:#fff;stroke-width:5px;"/></g></g></g></svg>