<?xml version="1.0" encoding="UTF-8" standalone="no"?><!DOCTYPE svg PUBLIC "-//W3C//DTD SVG 1.1//EN" "http://www.w3.org/Graphics/SVG/1.1/DTD/svg11.dtd"><svg width="100%" height="100%" viewBox="0 0 215 40" version="1.1" xmlns="http://www.w3.org/2000/svg" xmlns:xlink="http://www.w3.org/1999/xlink" xml:space="preserve" style="fill-rule:evenodd;clip-rule:evenodd;stroke-linejoin:round;stroke-miterlimit:1.41421;"><path d="M12.688,7.675l-10.688,4.275l0,21.376l10.688,-4.275l0,-21.376Z" style="fill:#1370b8;fill-rule:nonzero;"/><path d="M12.688,7.675l0,21.376l10.688,4.275l0,-21.376l-10.688,-4.275l0,0Z" style="fill:#fec20f;fill-rule:nonzero;"/><path d="M23.376,11.95l0,21.376l10.688,-4.275l0,-21.376l-10.688,4.275Z" style="fill:#1370b8;fill-rule:nonzero;"/><g><path d="M56.407,29.022l0,-21.347l-3.997,0l0,9.011l-10.511,0l0,-9.011l-4.029,0l0,21.347l4.029,0l0,-8.614l10.511,0l0,8.614l3.997,0Z" style="fill-rule:nonzero;"/><path d="M71.745,16.041c-0.856,-1.495 -2.781,-2.44 -4.798,-2.44c-4.4,-0.031 -7.848,2.685 -7.848,7.878c0,5.286 3.296,8.032 7.757,8.001c1.68,-0.03 4.033,-0.884 4.889,-2.654l0.183,2.196l3.509,0l0,-15.055l-3.57,0l-0.122,2.074Zm-4.462,0.885c5.866,0 5.866,9.137 0,9.137c-2.475,0 -4.461,-1.711 -4.461,-4.584c0,-2.872 1.986,-4.553 4.461,-4.553Z" style="fill-rule:nonzero;"/><path d="M93.398,29.022l0,-7.911c0,-4.734 -2.838,-7.388 -6.382,-7.388c-1.895,0 -3.423,0.763 -4.95,2.258l-0.245,-2.044l-3.326,0l0,15.085l3.693,0l0,-7.695c0,-2.293 1.558,-4.217 3.85,-4.217c2.384,0 3.637,1.741 3.637,4.032l0,7.88l3.723,0Z" style="fill-rule:nonzero;"/><path d="M103.907,17.079c2.353,0 4.37,1.772 4.37,4.4c0,2.72 -2.017,4.431 -4.37,4.431c-2.383,0 -4.278,-1.803 -4.278,-4.431c0,-2.719 1.895,-4.4 4.278,-4.4Zm4.614,-9.404l0,8.336c-0.886,-1.556 -3.361,-2.41 -4.95,-2.41c-4.4,0 -7.665,2.685 -7.665,7.878c0,4.95 3.326,7.879 7.757,7.879c1.833,0 3.697,-0.61 4.858,-2.41l0.244,2.074l3.479,0l0,-21.347l-3.723,0Z" style="fill-rule:nonzero;"/><path d="M126.541,13.967l-2.749,6.597l-1.558,4.153l-1.435,-4.245l-2.291,-6.505l-4.338,0l6.018,14.812l-2.81,6.535l4.093,0l9.194,-21.347l-4.124,0Z" style="fill-rule:nonzero;"/><path d="M151.529,29.022l4.028,0l0,-21.347l-4.609,0l-6.691,9.179l-6.691,-9.179l-4.639,0l0,21.347l4.028,0l0,-15.522l6.813,9.301l0.795,0l6.966,-9.271l0,15.492Z" style="fill-rule:nonzero;"/><path d="M171.2,16.041c-0.856,-1.495 -2.781,-2.44 -4.798,-2.44c-4.4,-0.031 -7.848,2.685 -7.848,7.878c0,5.286 3.296,8.032 7.757,8.001c1.68,-0.03 4.033,-0.884 4.889,-2.654l0.183,2.196l3.509,0l0,-15.055l-3.57,0l-0.122,2.074Zm-4.461,0.885c5.865,0 5.865,9.137 0,9.137c-2.476,0 -4.462,-1.711 -4.462,-4.584c0,-2.872 1.986,-4.553 4.462,-4.553Z" style="fill-rule:nonzero;"/><path d="M186.379,25.788c-2.536,0 -4.278,-1.925 -4.278,-4.278c0,-2.353 1.589,-4.278 4.278,-4.278c2.689,0 4.278,1.925 4.278,4.278c0,2.353 -1.741,4.278 -4.278,4.278Zm-4.614,9.526l0,-8.061c1.069,1.648 3.422,2.136 5.011,2.136c4.827,0 7.604,-3.479 7.604,-7.879c0,-4.431 -3.082,-7.879 -7.726,-7.879c-1.711,0 -3.728,0.733 -4.889,2.411l-0.244,-2.075l-3.479,0l0,21.347l3.723,0Z" style="fill-rule:nonzero;"/><path d="M205.47,25.788c-2.536,0 -4.278,-1.925 -4.278,-4.278c0,-2.353 1.589,-4.278 4.278,-4.278c2.689,0 4.278,1.925 4.278,4.278c0,2.353 -1.742,4.278 -4.278,4.278Zm-4.614,9.526l0,-8.061c1.069,1.648 3.422,2.136 5.011,2.136c4.827,0 7.604,-3.479 7.604,-7.879c0,-4.431 -3.082,-7.879 -7.726,-7.879c-1.711,0 -3.728,0.733 -4.889,2.411l-0.244,-2.075l-3.479,0l0,21.347l3.723,0Z" style="fill-rule:nonzero;"/></g></svg>