<?xml version="1.0" encoding="UTF-8" standalone="no"?><!DOCTYPE svg PUBLIC "-//W3C//DTD SVG 1.1//EN" "http://www.w3.org/Graphics/SVG/1.1/DTD/svg11.dtd"><svg width="100%" height="100%" viewBox="0 0 75 65" version="1.1" xmlns="http://www.w3.org/2000/svg" xmlns:xlink="http://www.w3.org/1999/xlink" xml:space="preserve" style="fill-rule:evenodd;clip-rule:evenodd;stroke-linejoin:round;stroke-miterlimit:1.41421;"><rect x="10.534" y="32.96" width="13.601" height="26.561" style="fill:#fec20f;"/><clipPath id="_clip1"><rect id="like" x="7.789" y="3.249" width="59.423" height="59.423"/></clipPath><g clip-path="url(#_clip1)"><path d="M64.648,43.647c1.218,-1.554 1.802,-3.219 1.728,-4.934c-0.075,-1.888 -0.92,-3.367 -1.616,-4.274c0.808,-2.013 1.119,-5.182 -1.578,-7.642c-1.976,-1.802 -5.331,-2.61 -9.978,-2.386c-3.268,0.149 -6.002,0.758 -6.114,0.783l-0.012,0c-0.622,0.111 -1.28,0.248 -1.951,0.397c-0.05,-0.795 0.087,-2.771 1.553,-7.219c1.74,-5.294 1.64,-9.345 -0.323,-12.054c-2.063,-2.846 -5.356,-3.069 -6.325,-3.069c-0.932,0 -1.79,0.385 -2.398,1.093c-1.38,1.603 -1.218,4.561 -1.044,5.928c-1.641,4.398 -6.238,15.185 -10.128,18.179c-0.074,0.05 -0.136,0.112 -0.199,0.174c-1.143,1.206 -1.913,2.51 -2.435,3.654c-0.733,-0.398 -1.566,-0.622 -2.461,-0.622l-7.58,0c-2.858,0 -5.169,2.324 -5.169,5.17l0,20.192c0,2.859 2.324,5.17 5.169,5.17l7.58,0c1.106,0 2.138,-0.348 2.983,-0.945l2.92,0.348c0.447,0.062 8.4,1.069 16.564,0.907c1.479,0.112 2.871,0.174 4.163,0.174c2.224,0 4.163,-0.174 5.778,-0.521c3.803,-0.808 6.4,-2.424 7.717,-4.797c1.007,-1.814 1.007,-3.616 0.845,-4.759c2.473,-2.237 2.908,-4.71 2.821,-6.45c-0.05,-1.006 -0.273,-1.864 -0.51,-2.497Zm-50.861,15.185c-1.006,0 -1.814,-0.82 -1.814,-1.815l0,-20.205c0,-1.006 0.82,-1.814 1.814,-1.814l7.58,0c1.007,0 1.815,0.82 1.815,1.814l0,20.193c0,1.007 -0.82,1.814 -1.815,1.814l-7.58,0l0,0.013Zm47.68,-16.639c-0.522,0.547 -0.621,1.379 -0.223,2.025c0,0.013 0.509,0.883 0.571,2.076c0.087,1.627 -0.696,3.069 -2.336,4.299c-0.584,0.447 -0.82,1.218 -0.572,1.914c0,0.012 0.535,1.652 -0.335,3.206c-0.833,1.491 -2.684,2.56 -5.492,3.156c-2.25,0.485 -5.307,0.572 -9.059,0.273c-0.05,0 -0.112,0 -0.174,0c-7.99,0.174 -16.068,-0.869 -16.154,-0.882l-0.013,0l-1.255,-0.149c0.075,-0.348 0.112,-0.721 0.112,-1.094l0,-20.205c0,-0.534 -0.087,-1.056 -0.236,-1.541c0.223,-0.832 0.845,-2.684 2.311,-4.262c5.579,-4.424 11.035,-19.348 11.271,-19.994c0.099,-0.261 0.124,-0.547 0.074,-0.832c-0.211,-1.392 -0.136,-3.095 0.162,-3.604c0.658,0.012 2.435,0.199 3.504,1.677c1.268,1.753 1.218,4.884 -0.149,9.034c-2.088,6.325 -2.262,9.656 -0.609,11.122c0.82,0.733 1.914,0.77 2.709,0.485c0.758,-0.174 1.479,-0.323 2.162,-0.435c0.05,-0.013 0.112,-0.025 0.162,-0.038c3.815,-0.832 10.649,-1.342 13.023,0.821c2.013,1.839 0.584,4.274 0.422,4.535c-0.46,0.696 -0.323,1.603 0.298,2.162c0.013,0.013 1.317,1.243 1.38,2.896c0.049,1.106 -0.473,2.236 -1.554,3.355Z" style="fill:#1371b8;fill-rule:nonzero;"/></g></svg>