<?xml version="1.0" encoding="UTF-8" standalone="no"?><!DOCTYPE svg PUBLIC "-//W3C//DTD SVG 1.1//EN" "http://www.w3.org/Graphics/SVG/1.1/DTD/svg11.dtd"><svg width="100%" height="100%" viewBox="0 0 75 65" version="1.1" xmlns="http://www.w3.org/2000/svg" xmlns:xlink="http://www.w3.org/1999/xlink" xml:space="preserve" style="fill-rule:evenodd;clip-rule:evenodd;stroke-miterlimit:10;"><path d="M16.551,2.116l-14.25,6.208l0.333,41.378l14.126,-4.959l14.459,5.542l14.126,-5.584l14.792,5.418l0,-41.169l-14.75,-7.252l-14.168,5.876l-14.668,-5.458l0,0Z" style="fill:#fff;"/><path d="M60.542,7.583l-14.949,-6.976c-0.015,-0.007 -0.032,-0.009 -0.047,-0.015c-0.042,-0.017 -0.085,-0.03 -0.127,-0.041c-0.036,-0.009 -0.071,-0.018 -0.107,-0.023c-0.045,-0.007 -0.09,-0.008 -0.136,-0.008c-0.036,0 -0.073,0 -0.11,0.004c-0.043,0.004 -0.084,0.014 -0.126,0.024c-0.04,0.01 -0.079,0.02 -0.118,0.034c-0.014,0.005 -0.029,0.006 -0.043,0.012l-13.56,5.811l-13.559,-5.811c-0.009,-0.004 -0.018,-0.004 -0.027,-0.008c-0.04,-0.016 -0.081,-0.025 -0.122,-0.035c-0.038,-0.01 -0.076,-0.021 -0.115,-0.027c-0.041,-0.005 -0.082,-0.004 -0.124,-0.004c-0.039,0 -0.077,-0.003 -0.115,0.002c-0.043,0.005 -0.084,0.017 -0.126,0.027c-0.037,0.009 -0.074,0.016 -0.11,0.029c-0.008,0.003 -0.017,0.003 -0.025,0.007l-14.949,5.98c-0.377,0.151 -0.625,0.517 -0.625,0.925l0,42.853c0,0.331 0.164,0.64 0.437,0.825c0.167,0.113 0.363,0.171 0.559,0.171c0.125,0 0.25,-0.022 0.371,-0.07l14.566,-5.826l13.573,5.816c0.013,0.006 0.028,0.003 0.042,0.009c0.114,0.043 0.231,0.071 0.35,0.071c0.12,0 0.237,-0.028 0.35,-0.071c0.014,-0.005 0.029,-0.003 0.043,-0.009l13.572,-5.816l14.567,5.826c0.119,0.048 0.245,0.07 0.37,0.07c0.197,0 0.392,-0.058 0.559,-0.171c0.271,-0.185 0.436,-0.494 0.436,-0.825l0,-41.857c0,-0.388 -0.224,-0.739 -0.575,-0.903Zm-57.227,0.581l12.955,-5.182l0,40.707l-12.955,5.182l0,-40.707Zm14.949,-5.142l11.959,5.125l0,40.684l-11.959,-5.125l0,-40.684l0,0Zm13.952,5.124l11.959,-5.125l0,40.685l-11.959,5.125l0,-40.685Zm26.908,40.725l-12.956,-5.182l0,-40.614l12.956,6.045l0,39.751Z" style="fill:#1370b8;fill-rule:nonzero;"/><circle cx="50.965" cy="41.07" r="13.135" style="fill:#fff;stroke:#1370b8;stroke-width:2.11px;"/><path d="M73.678,63.634l-12.676,-12.676" style="fill:#fff;fill-rule:nonzero;stroke:#1370b8;stroke-width:2.11px;stroke-linecap:round;"/></svg>