<?xml version="1.0" encoding="UTF-8" standalone="no"?><!DOCTYPE svg PUBLIC "-//W3C//DTD SVG 1.1//EN" "http://www.w3.org/Graphics/SVG/1.1/DTD/svg11.dtd"><svg width="100%" height="100%" viewBox="0 0 60 60" version="1.1" xmlns="http://www.w3.org/2000/svg" xmlns:xlink="http://www.w3.org/1999/xlink" xml:space="preserve" style="fill-rule:evenodd;clip-rule:evenodd;stroke-linejoin:round;stroke-miterlimit:1.41421;"><path d="M15.282,6.105l-14.299,6.229l0.334,41.52l14.174,-4.976l14.509,5.561l14.174,-5.603l14.843,5.436l0,-41.31l-14.801,-7.276l-14.216,5.896l-14.718,-5.477l0,0Z" style="fill:#fff;"/><path d="M59.423,11.591l-15,-7c-0.015,-0.007 -0.032,-0.009 -0.047,-0.015c-0.042,-0.017 -0.085,-0.03 -0.128,-0.041c-0.036,-0.009 -0.071,-0.018 -0.107,-0.023c-0.045,-0.007 -0.09,-0.008 -0.136,-0.008c-0.037,0 -0.074,0 -0.111,0.004c-0.043,0.004 -0.084,0.014 -0.126,0.024c-0.04,0.01 -0.08,0.02 -0.119,0.034c-0.014,0.005 -0.029,0.006 -0.043,0.012l-13.606,5.831l-13.606,-5.831c-0.009,-0.004 -0.018,-0.004 -0.027,-0.008c-0.04,-0.016 -0.081,-0.025 -0.122,-0.035c-0.038,-0.01 -0.076,-0.021 -0.115,-0.027c-0.042,-0.005 -0.083,-0.004 -0.125,-0.004c-0.039,0 -0.077,-0.003 -0.115,0.002c-0.043,0.005 -0.085,0.017 -0.127,0.027c-0.037,0.009 -0.074,0.016 -0.11,0.029c-0.008,0.003 -0.017,0.003 -0.025,0.007l-15,6c-0.379,0.152 -0.628,0.519 -0.628,0.928l0,43c0,0.332 0.165,0.642 0.439,0.828c0.168,0.113 0.364,0.172 0.561,0.172c0.125,0 0.251,-0.023 0.372,-0.071l14.616,-5.846l13.619,5.836c0.014,0.006 0.029,0.003 0.043,0.009c0.114,0.043 0.231,0.072 0.351,0.072c0.12,0 0.238,-0.029 0.351,-0.072c0.014,-0.005 0.029,-0.003 0.043,-0.009l13.619,-5.836l14.616,5.846c0.12,0.048 0.246,0.071 0.372,0.071c0.197,0 0.393,-0.059 0.561,-0.172c0.272,-0.186 0.437,-0.496 0.437,-0.828l0,-42c0,-0.389 -0.225,-0.742 -0.577,-0.906Zm-57.423,0.583l13,-5.2l0,40.846l-13,5.2l0,-40.846Zm15,-5.16l12,5.143l0,40.823l-12,-5.143l0,-40.823l0,0Zm14,5.142l12,-5.143l0,40.824l-12,5.143l0,-40.824Zm27,40.864l-13,-5.2l0,-40.753l13,6.066l0,39.887Z" style="fill:#1370b8;fill-rule:nonzero;"/></svg>