<?xml version="1.0" encoding="UTF-8" standalone="no"?><!DOCTYPE svg PUBLIC "-//W3C//DTD SVG 1.1//EN" "http://www.w3.org/Graphics/SVG/1.1/DTD/svg11.dtd"><svg width="100%" height="100%" viewBox="0 0 75 65" version="1.1" xmlns="http://www.w3.org/2000/svg" xmlns:xlink="http://www.w3.org/1999/xlink" xml:space="preserve" style="fill-rule:evenodd;clip-rule:evenodd;stroke-linejoin:round;stroke-miterlimit:1.41421;"><path d="M19.426,2.487l-17.559,7.649l0.411,50.985l17.405,-6.11l17.816,6.828l17.406,-6.88l18.226,6.676l0,-50.728l-18.174,-8.935l-17.458,7.24l-18.073,-6.725l0,0Z" style="fill:#fff;"/><path d="M73.63,10.223l-18.419,-8.596c-0.019,-0.008 -0.04,-0.011 -0.058,-0.018c-0.052,-0.021 -0.105,-0.037 -0.157,-0.051c-0.044,-0.011 -0.087,-0.022 -0.132,-0.028c-0.055,-0.009 -0.11,-0.01 -0.167,-0.01c-0.044,0 -0.09,0 -0.136,0.005c-0.053,0.005 -0.103,0.017 -0.155,0.03c-0.049,0.012 -0.097,0.024 -0.145,0.042c-0.018,0.006 -0.036,0.007 -0.053,0.014l-16.709,7.161l-16.707,-7.161c-0.011,-0.005 -0.022,-0.005 -0.033,-0.009c-0.049,-0.02 -0.1,-0.031 -0.15,-0.044c-0.047,-0.012 -0.094,-0.025 -0.142,-0.033c-0.051,-0.006 -0.101,-0.005 -0.153,-0.005c-0.048,0 -0.095,-0.003 -0.141,0.003c-0.053,0.006 -0.104,0.021 -0.156,0.033c-0.045,0.011 -0.091,0.02 -0.135,0.036c-0.01,0.003 -0.021,0.003 -0.031,0.008l-18.42,7.369c-0.464,0.186 -0.77,0.637 -0.77,1.139l0,52.803c0,0.408 0.202,0.789 0.538,1.016c0.206,0.14 0.448,0.211 0.689,0.211c0.154,0 0.308,-0.027 0.457,-0.086l17.948,-7.179l16.725,7.167c0.016,0.007 0.034,0.003 0.051,0.011c0.141,0.053 0.285,0.087 0.432,0.087c0.147,0 0.292,-0.034 0.431,-0.087c0.017,-0.006 0.036,-0.004 0.053,-0.011l16.723,-7.167l17.949,7.179c0.147,0.059 0.302,0.086 0.456,0.086c0.243,0 0.483,-0.071 0.689,-0.211c0.334,-0.227 0.537,-0.608 0.537,-1.016l0,-51.575c0,-0.478 -0.276,-0.911 -0.709,-1.113l0,0Zm-70.513,0.716l15.963,-6.385l0,50.158l-15.963,6.385l0,-50.158l0,0Zm18.42,-6.336l14.735,6.315l0,50.13l-14.735,-6.315l0,-50.13l0,0Zm17.191,6.314l14.735,-6.315l0,50.131l-14.735,6.315l0,-50.131l0,0Zm33.155,50.18l-15.964,-6.385l0,-50.044l15.964,7.449l0,48.98Z" style="fill:#1370b8;fill-rule:nonzero;"/></svg>