<?xml version="1.0" encoding="utf-8"?>
<!-- Generator: Adobe Illustrator 22.0.1, SVG Export Plug-In . SVG Version: 6.00 Build 0)  -->
<svg version="1.1" id="Layer_1" xmlns="http://www.w3.org/2000/svg" xmlns:xlink="http://www.w3.org/1999/xlink" x="0px" y="0px"
	 viewBox="0 0 512 512" style="enable-background:new 0 0 512 512;" xml:space="preserve">
<style type="text/css">
	.st0{fill:#DAE2F2;}
	.st1{fill:#E6EEFF;}
	.st2{fill:#F9BC35;}
	.st3{fill:#F39E31;}
	.st4{fill:#7F838C;}
	.st5{fill:#757982;}
</style>
<path class="st0" d="M452.5,467c0,7.5-3,14.3-7.9,19.2c-0.2,0.2-0.4,0.4-0.6,0.6c-4.8,4.6-11.4,7.3-18.5,7.3
	c-15,0-27.1-12.1-27.1-27.1c0-7.5,3-14.3,7.9-19.2c4.9-4.9,11.7-7.9,19.2-7.9c7.2,0,13.7,2.8,18.5,7.3c0.2,0.2,0.4,0.4,0.6,0.6
	C449.4,452.8,452.5,459.6,452.5,467z"/>
<path class="st1" d="M118.4,466.4c0,7.5-3,14.3-7.9,19.2c-0.2,0.2-0.4,0.4-0.6,0.6c-4.8,4.6-11.4,7.3-18.5,7.3
	c-15,0-27.1-12.1-27.1-27.1c0-7.5,3-14.3,7.9-19.2c4.9-4.9,11.7-7.9,19.2-7.9c7.2,0,13.7,2.8,18.5,7.3c0.2,0.2,0.4,0.4,0.6,0.6
	C115.4,452.1,118.4,458.9,118.4,466.4z"/>
<g>
	<path class="st2" d="M368.7,244.7h-96.8c-13.5,0-25.2,9.1-28.5,22.2l-29.4,117.4c-3.9,15.7,5.7,31.7,21.4,35.6
		c15.9,4,31.7-5.7,35.6-21.4l23.8-95.2h50.9"/>
	<path class="st2" d="M345.3,44c0-24.3,19.8-44,44-44c24.3,0,44,19.8,44,44s-19.8,44-44,44C365.1,88.1,345.3,68.3,345.3,44z"/>
	<path class="st2" d="M360,117.4c0-17.9,15.2-29.1,29.4-29.3l0.4,0c19.7,0.8,29,11.7,29,31.4l0,61.5l0,91
		c0.4,19.2-13.3,31.3-43,31.3l-37.5,0v-58.1c9.4,0,23.4-0.1,21.7-14.8V117.4z"/>
	<path class="st2" d="M391.1,183.3H279.6c-9.3,0-16.9-7.6-16.9-16.9v-1c0-9.3,7.6-16.9,16.9-16.9h111.5c9.3,0,16.9,7.6,16.9,16.9v1
		C408,175.7,400.5,183.3,391.1,183.3z"/>
</g>
<path class="st3" d="M340.3,263.5"/>
<path class="st3" d="M317.4,322.2"/>
<g>
	<g>
		<path class="st4" d="M454.2,343h-25.5c-4.1,0-7.5-3.4-7.5-7.5V132c0-4.1,3.4-7.5,7.5-7.5h25.5c4.1,0,7.5,3.4,7.5,7.5v203.5
			C461.7,339.6,458.3,343,454.2,343z"/>
		<path class="st4" d="M311.9,335.2v-25.5c0-4.1,3.4-7.5,7.5-7.5h134.8c4.1,0,7.5,3.4,7.5,7.5v25.5c0,4.1-3.4,7.5-7.5,7.5H319.4
			C315.2,342.7,311.9,339.4,311.9,335.2z"/>
		<path class="st4" d="M327.2,241.2v-8.3c0-3.7,3-6.8,6.8-6.8h120.9c3.7,0,6.8,3,6.8,6.8v27c0,3.7-3,6.8-6.8,6.8l-33.8-2.5
			l-83.3-13.5C331.4,249.8,327.3,246.6,327.2,241.2z"/>
	</g>
	<path class="st4" d="M120.9,342.3h-16.1c-5.4-1.4-8.7-6.9-7.3-12.3l42.1-166.4c2.7-11.2,7.8-15.3,12.9-15c0,0,47.2-0.5,52.6,0.9
		c10.3,2.3,14.5,8.1,15.9,15.5l11.2,0.1c0.1-2.8,2.1-4.1,5.5-4.5h28.1c2.9-0.1,5,0.8,4.9,3.7v9.8c0.1,3.3-1.8,4.9-4.9,4.8l-28,0
		c-2.9,0.2-5.3-0.6-5.5-3.8l-11.2,0c-2.5,8.7-8.2,13.3-16.5,14.7l-24.4-0.2c-3.6-0.1-7.1,3.8-9.3,13.7l-33,125.5
		C136.4,335.7,132.5,341.8,120.9,342.3z"/>
	<path class="st4" d="M98.6,277.1c-1.4,4.4-3.6,7.6-8,7.7H21.7c-3.8,0-5.3-0.8-7.1-7.2L0,221.6c-1-5.4-0.8-8.5,8.4-8.3H104
		c7-0.3,9.5,2.6,8.5,7.7L98.6,277.1z M63.4,243.4h30.5l4.8-17H63.4V243.4z M63.4,272.6h23.1l4.8-17H63.4V272.6z M51.1,226.4H15.9
		l4.8,17h30.5V226.4z M51.1,255.6H23.2l4.8,17h23.1V255.6z"/>
	<path class="st4" d="M147.2,466.4h221.6c0-74.5,111.7-74.5,111.7,0c15.4-2.8,24.8-9.5,26.6-21.2v-55.4
		c-2.4-11.6-8.6-20.4-22.1-23.4l-82.8,0l-0.1-7.7c-0.2-2.1-0.9-3.8-5.4-3.2l0-13.2h-20.7v12.8c-4.4-0.4-6.1,1.1-6.3,3.4v7.5h-33.3
		c-13.7,2.2-21.7,10.3-24.1,24.1l-0.5,55.6H175.6v-55.4c-2.4-11.9-10.1-20.4-25.2-23.9l-25.2,0l0-7.2c-0.7-3.1-2.4-4.5-5-4.5v-12.3
		H109l0,12.5c-2.2,0.2-4,1.4-4.5,3.4v8.1l-27.1,0c-40.3,8.2-63.4,23.1-68.4,45v30.6c2.7,14.2,10.6,23.7,28.2,24.3
		C37.2,391,147.2,391,147.2,466.4z"/>
	<path class="st4" d="M138,466.4c0,25.2-20.4,45.6-45.6,45.6s-45.6-20.4-45.6-45.6c0-25.2,20.4-45.6,45.6-45.6S138,441.2,138,466.4z
		 M92.4,448.1c-10.1,0-18.3,8.2-18.3,18.3c0,10.1,8.2,18.3,18.3,18.3s18.3-8.2,18.3-18.3C110.7,456.3,102.5,448.1,92.4,448.1z"/>
	<path class="st4" d="M471.1,466.4c0,25.2-20.4,45.6-45.6,45.6c-25.2,0-45.6-20.4-45.6-45.6c0-25.2,20.4-45.6,45.6-45.6
		C450.7,420.8,471.1,441.2,471.1,466.4z M425.5,448.1c-10.1,0-18.3,8.2-18.3,18.3c0,10.1,8.2,18.3,18.3,18.3
		c10.1,0,18.3-8.2,18.3-18.3C443.8,456.3,435.6,448.1,425.5,448.1z"/>
</g>
<g>
	<path class="st3" d="M345.6,303.4l23-58.7h-96.8c-7.1,0-13.8,2.6-19,6.9l0,167.3c8.7-3.3,15.7-10.7,18.1-20.4l23.8-95.2H345.6"/>
	<path class="st3" d="M345.2,44c0-24.3,19.8-44,44-44c24.3,0,44,19.8,44,44s-19.8,44-44,44C364.9,88.1,345.2,68.3,345.2,44z"/>
	<path class="st3" d="M359.8,117.4c0-17.9,15.2-29.1,29.4-29.3l0.4,0c19.7,0.8,29,11.7,29,31.4l0,61.5l0,91
		c0.4,19.2-13.3,31.3-43,31.3l-37.5,0v-58.1c9.4,0,23.4-0.1,21.7-14.8V117.4z"/>
	<path class="st3" d="M391,183.3H279.4c-9.3,0-16.9-7.6-16.9-16.9v-1c0-9.3,7.6-16.9,16.9-16.9H391c9.3,0,16.9,7.6,16.9,16.9v1
		C407.9,175.8,400.3,183.3,391,183.3z"/>
	<g>
		<path class="st5" d="M454,343h-25.5c-4.1,0-7.5-3.4-7.5-7.5V132c0-4.1,3.4-7.5,7.5-7.5H454c4.1,0,7.5,3.4,7.5,7.5v203.5
			C461.5,339.6,458.1,343,454,343z"/>
		<path class="st5" d="M311.7,335.3v-25.5c0-4.1,3.4-7.5,7.5-7.5H454c4.1,0,7.5,3.4,7.5,7.5v25.5c0,4.1-3.4,7.5-7.5,7.5H319.2
			C315.1,342.8,311.7,339.4,311.7,335.3z"/>
		<path class="st5" d="M327,241.2l0-8.3c0-3.7,3-6.8,6.8-6.8h120.9c3.7,0,6.8,3,6.8,6.8v27c0,3.7-3,6.8-6.8,6.8l-33.8-2.5
			l-83.3-13.5C331.2,249.9,327.2,246.6,327,241.2z"/>
	</g>
	<path class="st5" d="M252.8,178.9l12.7,0c3.1,0.1,5-1.6,4.9-4.8v-9.8c0.1-2.9-2-3.7-4.9-3.7h-12.6L252.8,178.9z"/>
	<path class="st5" d="M252.8,466.4h115.9c0-74.5,111.7-74.5,111.7,0c15.4-2.8,24.8-9.5,26.6-21.2v-55.4
		c-2.4-11.6-8.6-20.4-22.1-23.4l-82.8,0l-0.1-7.7c-0.2-2.1-0.9-3.8-5.4-3.2l0-13.2h-20.7v12.8c-4.4-0.4-6.1,1.1-6.3,3.4v7.5h-33.3
		c-13.7,2.2-21.7,10.3-24.1,24.1l-0.5,55.6h-58.9V466.4z"/>
	<path class="st4" d="M470.9,466.4c0,25.2-20.4,45.6-45.6,45.6c-25.2,0-45.6-20.4-45.6-45.6s20.4-45.6,45.6-45.6
		C450.5,420.8,470.9,441.2,470.9,466.4z M425.3,448.1c-10.1,0-18.3,8.2-18.3,18.3s8.2,18.3,18.3,18.3c10.1,0,18.3-8.2,18.3-18.3
		S435.4,448.1,425.3,448.1z"/>
</g>
</svg>
