<?xml version="1.0" encoding="UTF-8" standalone="no"?><!DOCTYPE svg PUBLIC "-//W3C//DTD SVG 1.1//EN" "http://www.w3.org/Graphics/SVG/1.1/DTD/svg11.dtd"><svg width="100%" height="100%" viewBox="0 0 52 52" version="1.1" xmlns="http://www.w3.org/2000/svg" xmlns:xlink="http://www.w3.org/1999/xlink" xml:space="preserve" style="fill-rule:evenodd;clip-rule:evenodd;stroke-linejoin:round;stroke-miterlimit:1.41421;"><path d="M50.215,2.231l-48.794,21.986l22.202,4.066l3.095,21.446l23.497,-47.498l0,0Z" style="fill:#fff;"/><path d="M51.353,0.914c-0.295,-0.305 -0.75,-0.39 -1.135,-0.213l-49.635,22.78c-0.399,0.184 -0.632,0.605 -0.574,1.041c0.058,0.436 0.393,0.782 0.826,0.854l22.263,3.731l2.545,21.038c0.054,0.438 0.389,0.791 0.824,0.865c0.057,0.01 0.113,0.015 0.169,0.015c0.375,0 0.726,-0.211 0.896,-0.556l24,-48.415c0.188,-0.379 0.116,-0.836 -0.179,-1.14l0,0Zm-24.127,45.668l-2.232,-18.457c-0.054,-0.44 -0.391,-0.793 -0.828,-0.866l-19.792,-3.318l44.111,-20.244l-21.259,42.885l0,0Z" style="fill:#1370b8;fill-rule:nonzero;"/></svg>