<?xml version="1.0" encoding="UTF-8" standalone="no"?><!DOCTYPE svg PUBLIC "-//W3C//DTD SVG 1.1//EN" "http://www.w3.org/Graphics/SVG/1.1/DTD/svg11.dtd"><svg width="100%" height="100%" viewBox="0 0 75 65" version="1.1" xmlns="http://www.w3.org/2000/svg" xmlns:xlink="http://www.w3.org/1999/xlink" xml:space="preserve" style="fill-rule:evenodd;clip-rule:evenodd;stroke-linejoin:round;stroke-miterlimit:1.41421;"><path d="M67.169,4.021l-59.784,26.938l27.203,4.982l3.792,26.277l28.789,-58.197l0,0Z" style="fill:#fff;"/><path d="M68.563,2.408c-0.361,-0.374 -0.919,-0.478 -1.39,-0.261l-60.815,27.911c-0.489,0.225 -0.774,0.741 -0.703,1.275c0.071,0.534 0.482,0.958 1.012,1.046l27.277,4.572l3.119,25.776c0.066,0.537 0.476,0.969 1.009,1.06c0.07,0.012 0.139,0.018 0.207,0.018c0.46,0 0.89,-0.258 1.098,-0.681l29.406,-59.319c0.23,-0.465 0.142,-1.025 -0.22,-1.397l0,0Zm-29.561,55.954l-2.735,-22.614c-0.066,-0.539 -0.479,-0.972 -1.014,-1.061l-24.25,-4.066l54.046,-24.803l-26.047,52.544l0,0Z" style="fill:#1370b8;fill-rule:nonzero;"/></svg>