<?xml version="1.0" encoding="UTF-8" standalone="no"?><!DOCTYPE svg PUBLIC "-//W3C//DTD SVG 1.1//EN" "http://www.w3.org/Graphics/SVG/1.1/DTD/svg11.dtd"><svg width="100%" height="100%" viewBox="0 0 75 65" version="1.1" xmlns="http://www.w3.org/2000/svg" xmlns:xlink="http://www.w3.org/1999/xlink" xml:space="preserve" style="fill-rule:evenodd;clip-rule:evenodd;stroke-linecap:round;stroke-linejoin:round;stroke-miterlimit:1.5;"><path d="M62.894,53.047c5.96,0 10.799,-4.839 10.799,-10.799l0,-24.815c0,-5.961 -4.839,-10.799 -10.799,-10.799l-50.884,0c-5.961,0 -10.8,4.838 -10.8,10.799l0,24.815c0,5.96 4.839,10.799 10.8,10.799l33.468,0l13.62,7.947c0,0 3.159,1.849 3.617,-5.096c0.058,-0.878 0.179,-2.851 0.179,-2.851Z" style="fill:#fff;stroke:#1370b8;stroke-width:1.83px;"/><path d="M15.256,22.069c0.241,-0.578 0.806,-0.954 1.432,-0.954c0.626,0 1.191,0.376 1.433,0.954l1.403,3.349l3.619,0.299c0.624,0.052 1.156,0.473 1.35,1.068c0.193,0.596 0.01,1.249 -0.464,1.658l-2.753,2.369l0.834,3.534c0.144,0.61 -0.092,1.246 -0.598,1.614c-0.507,0.368 -1.185,0.396 -1.72,0.071l-3.104,-1.886l-3.103,1.886c-0.535,0.325 -1.213,0.297 -1.72,-0.071c-0.506,-0.368 -0.742,-1.004 -0.599,-1.614l0.834,-3.534l-2.752,-2.369c-0.474,-0.409 -0.657,-1.062 -0.464,-1.658c0.194,-0.595 0.726,-1.016 1.35,-1.068l3.619,-0.299l1.403,-3.349Z" style="fill:#1370b8;"/><path d="M38.282,33.937l-3.465,2.105c-0.535,0.325 -1.213,0.297 -1.72,-0.071c-0.506,-0.368 -0.742,-1.005 -0.598,-1.614l0.834,-3.534l-2.753,-2.369c-0.474,-0.409 -0.657,-1.062 -0.463,-1.658c0.193,-0.595 0.725,-1.016 1.349,-1.068l3.619,-0.299l1.403,-3.349c0.117,-0.28 0.31,-0.513 0.549,-0.678c0.254,-0.176 0.561,-0.276 0.884,-0.276c0.115,0 0.251,-0.024 0.361,0" style="fill:#1370b8;"/><path d="M57.667,22.689c0.219,-0.523 0.73,-0.862 1.296,-0.862c0.566,0 1.077,0.339 1.295,0.862l1.269,3.028l3.272,0.271c0.564,0.046 1.045,0.427 1.22,0.965c0.175,0.539 0.01,1.129 -0.419,1.499l-2.489,2.142l0.754,3.196c0.13,0.551 -0.083,1.126 -0.541,1.458c-0.458,0.333 -1.071,0.358 -1.555,0.065l-2.806,-1.705l-2.807,1.705c-0.483,0.293 -1.096,0.268 -1.554,-0.065c-0.458,-0.332 -0.672,-0.907 -0.542,-1.458l0.754,-3.196l-2.488,-2.142c-0.429,-0.37 -0.595,-0.96 -0.42,-1.499c0.175,-0.538 0.656,-0.919 1.221,-0.965l3.272,-0.271l1.268,-3.028Z" style="fill:#fff;stroke:#1370b8;stroke-width:1.75px;"/><path d="M38.027,21.987c0.555,0 1.055,0.333 1.269,0.845l1.242,2.966l3.205,0.265c0.553,0.045 1.024,0.418 1.195,0.945c0.171,0.528 0.009,1.106 -0.411,1.468l-2.437,2.098l0.739,3.13c0.127,0.539 -0.082,1.103 -0.531,1.428c-0.448,0.326 -1.049,0.351 -1.522,0.063l-2.749,-1.669" style="fill:#fff;stroke:#1370b8;stroke-width:1.75px;"/></svg>