<?xml version="1.0" encoding="UTF-8" standalone="no"?><!DOCTYPE svg PUBLIC "-//W3C//DTD SVG 1.1//EN" "http://www.w3.org/Graphics/SVG/1.1/DTD/svg11.dtd"><svg width="100%" height="100%" viewBox="0 0 75 65" version="1.1" xmlns="http://www.w3.org/2000/svg" xmlns:xlink="http://www.w3.org/1999/xlink" xml:space="preserve" style="fill-rule:evenodd;clip-rule:evenodd;stroke-linecap:round;stroke-linejoin:round;stroke-miterlimit:1.5;"><path d="M21.929,27.91c0,0 7.2,0.037 10.85,0.055c1.152,0.006 2.088,0.93 2.11,2.081c0.029,1.58 0.069,3.714 0.096,5.103c0.007,0.373 -0.137,0.733 -0.398,0.999c-0.261,0.266 -0.618,0.416 -0.991,0.416c-1.522,0 -3.727,0 -3.727,0l0,4.811c0,0 2.346,0 3.483,0c0.375,0 0.721,0.198 0.911,0.521c1.07,1.814 4.571,7.752 4.571,7.752l9.704,0.132c0,0 2.49,-12.794 3.133,-16.102c0.087,-0.449 0.481,-0.773 0.938,-0.773c0.857,0 2.221,0 3.092,0c0.186,0 0.36,-0.092 0.466,-0.245c0.105,-0.154 0.128,-0.349 0.061,-0.523c-1.427,-3.714 -7.549,-19.636 -7.549,-19.636c0,0 -2.284,0 -3.898,0c-0.414,0 -0.812,-0.164 -1.105,-0.458c-0.293,-0.293 -0.458,-0.69 -0.458,-1.105c0,-0.704 0,-1.546 0,-2.307c0,-1.176 0.953,-2.129 2.129,-2.129c2.533,0 6.706,0 8.997,0c0.9,0 1.63,0.73 1.631,1.631c0,0.888 0,1.981 0,2.851c0,0.838 -0.68,1.517 -1.518,1.517c-0.616,0 -1.185,0 -1.185,0c0,0 6.197,15.722 7.711,19.564c0.2,0.507 0.689,0.84 1.234,0.84c0.89,0 2.267,0 3.312,0c0.84,0 1.559,0.605 1.701,1.433c0.406,2.356 1.213,7.045 1.666,9.678c0.082,0.474 -0.05,0.96 -0.36,1.328c-0.31,0.368 -0.766,0.58 -1.247,0.58c-1.717,0 -4.33,0 -6.81,0c-3.805,0 -6.932,3.004 -7.084,6.806c-0.1,2.507 -0.189,4.747 -0.189,4.747l-21.557,0c0,0 -0.203,-2.593 -0.419,-5.342c-0.285,-3.618 -3.303,-6.409 -6.932,-6.409c-2.894,0 -6.063,0 -7.881,0c-0.383,0 -0.747,-0.164 -1,-0.451c-0.254,-0.287 -0.371,-0.669 -0.324,-1.049c0.328,-2.601 0.965,-7.674 0.965,-7.674l-4.482,0c0,0 -5.731,-24.396 -7.287,-31.024c-0.094,-0.398 0,-0.817 0.253,-1.137c0.254,-0.32 0.641,-0.507 1.049,-0.507c0.926,0 2.049,0 2.874,0c0.682,0 1.281,0.453 1.468,1.109c0.884,3.113 3.324,11.703 3.324,11.703c0,0 11.798,0 16.112,0c0.859,0 1.555,0.697 1.555,1.556c0,0.694 0,1.506 0,2.185c0,0.787 -0.638,1.425 -1.426,1.425c-3.98,0 -14.923,0 -14.923,0l2.08,6.146l5.274,-0.098Z" style="fill:#fff;stroke:#1370b8;stroke-width:1.8px;"/><circle cx="21.747" cy="55.212" r="5.521" style="fill:#fff;stroke:#1370b8;stroke-width:1.8px;"/><circle cx="62.653" cy="55.212" r="5.521" style="fill:#fff;stroke:#1370b8;stroke-width:1.8px;"/><path d="M62.407,32.904l-6.965,0" style="fill:none;stroke:#1370b8;stroke-width:1.8px;"/><path d="M31.494,36.564l-16.711,0" style="fill:none;stroke:#1370b8;stroke-width:1.8px;"/></svg>