<?xml version="1.0" encoding="utf-8"?>
<!-- Generator: Adobe Illustrator 22.0.1, SVG Export Plug-In . SVG Version: 6.00 Build 0)  -->
<svg version="1.1" id="Laag_1" xmlns="http://www.w3.org/2000/svg" xmlns:xlink="http://www.w3.org/1999/xlink" x="0px" y="0px"
	 viewBox="0 0 270 50" style="enable-background:new 0 0 270 50;" xml:space="preserve">
<style type="text/css">
	.st0{fill:#C7C7C7;}
</style>
<path class="st0" d="M25,39.4l-14.1,8.5c-1,0.6-2.2-0.3-1.9-1.4l3.7-15.9L0.4,19.9c-0.9-0.7-0.4-2.2,0.7-2.2l16.3-1.4l6.4-15
	C24,0.8,24.5,0.5,25,0.5V39.4z"/>
<path class="st0" d="M25,0.5c0.5,0,0.9,0.2,1.2,0.7l0,0l6.4,15l16.3,1.4c1.1,0.1,1.6,1.5,0.7,2.2L37.2,30.5l3.7,15.9
	c0.3,1.1-0.9,2-1.9,1.4l-14-8.4V0.5z"/>
<path class="st0" d="M23.8,1.3c0.4-0.9,1.8-1.1,2.4-0.1v39L25,39.4l-1.5,0.9L23.8,1.3z"/>
<path class="st0" d="M80,39.4l-14.1,8.5c-1,0.6-2.2-0.3-1.9-1.4l3.7-15.9L55.4,19.9c-0.9-0.7-0.4-2.2,0.7-2.2l16.3-1.4l6.4-15
	C79,0.8,79.5,0.5,80,0.5V39.4z"/>
<path class="st0" d="M80,0.5c0.5,0,0.9,0.2,1.2,0.7l0,0l6.4,15l16.3,1.4c1.1,0.1,1.6,1.5,0.7,2.2L92.2,30.5l3.7,15.9
	c0.3,1.1-0.9,2-1.9,1.4l-14-8.4V0.5z"/>
<path class="st0" d="M78.8,1.3c0.4-0.9,1.8-1.1,2.4-0.1v39L80,39.4l-1.5,0.9L78.8,1.3z"/>
<path class="st0" d="M135,39.4l-14.1,8.5c-1,0.6-2.2-0.3-1.9-1.4l3.7-15.9l-12.3-10.7c-0.9-0.7-0.4-2.2,0.7-2.2l16.3-1.4l6.4-15
	c0.2-0.5,0.7-0.8,1.2-0.8V39.4z"/>
<path class="st0" d="M135,0.5c0.5,0,0.9,0.2,1.2,0.7l0,0l6.4,15l16.3,1.4c1.1,0.1,1.6,1.5,0.7,2.2l-12.4,10.7l3.7,15.9
	c0.3,1.1-0.9,2-1.9,1.4l-14-8.4V0.5z"/>
<path class="st0" d="M133.8,1.3c0.4-0.9,1.8-1.1,2.4-0.1v39l-1.2-0.8l-1.5,0.9L133.8,1.3z"/>
<path class="st0" d="M190,39.4l-14.1,8.5c-1,0.6-2.2-0.3-1.9-1.4l3.7-15.9l-12.3-10.7c-0.9-0.7-0.4-2.2,0.7-2.2l16.3-1.4l6.4-15
	c0.2-0.5,0.7-0.8,1.2-0.8V39.4z"/>
<path class="st0" d="M190,0.5c0.5,0,0.9,0.2,1.2,0.7l0,0l6.4,15l16.3,1.4c1.1,0.1,1.6,1.5,0.7,2.2l-12.4,10.7l3.7,15.9
	c0.3,1.1-0.9,2-1.9,1.4l-14-8.4V0.5z"/>
<path class="st0" d="M188.8,1.3c0.4-0.9,1.8-1.1,2.4-0.1v39l-1.2-0.8l-1.5,0.9L188.8,1.3z"/>
<path class="st0" d="M245,39.4l-14.1,8.5c-1,0.6-2.2-0.3-1.9-1.4l3.7-15.9l-12.3-10.7c-0.9-0.7-0.4-2.2,0.7-2.2l16.3-1.4l6.4-15
	c0.2-0.5,0.7-0.8,1.2-0.8V39.4z"/>
<path class="st0" d="M245,0.5c0.5,0,0.9,0.2,1.2,0.7l0,0l6.4,15l16.3,1.4c1.1,0.1,1.6,1.5,0.7,2.2l-12.4,10.7l3.7,15.9
	c0.3,1.1-0.9,2-1.9,1.4l-14-8.4V0.5z"/>
<path class="st0" d="M243.8,1.3c0.4-0.9,1.8-1.1,2.4-0.1v39l-1.2-0.8l-1.5,0.9L243.8,1.3z"/>
</svg>
