<?xml version="1.0" encoding="UTF-8" standalone="no"?><!DOCTYPE svg PUBLIC "-//W3C//DTD SVG 1.1//EN" "http://www.w3.org/Graphics/SVG/1.1/DTD/svg11.dtd"><svg width="100%" height="100%" viewBox="0 0 700 400" version="1.1" xmlns="http://www.w3.org/2000/svg" xmlns:xlink="http://www.w3.org/1999/xlink" xml:space="preserve" style="fill-rule:evenodd;clip-rule:evenodd;stroke-linecap:round;stroke-linejoin:round;stroke-miterlimit:1.5;"><g><path d="M237.591,149.013l-13.473,74.571c0,0 -1.121,16.026 13.473,18.821c11.446,2.191 17.522,-11.11 19.689,-17.465c2.166,-6.354 10.668,-56.769 10.668,-56.769l40.071,-25.828c0,0 -40.14,150.478 -40.14,152.223c0,1.746 -43.445,60.03 -43.445,60.03c0,0 -4.226,15.078 3.118,22.186c7.999,7.743 20.851,8.653 27.556,2.979c6.706,-5.673 48.763,-62.74 48.763,-62.74l19.579,-51.45l68.357,106.077c0,0 13.394,20.038 29.409,12.085c10.529,-5.229 17.677,-16.811 4.621,-36.221c-13.055,-19.41 -76.138,-121.429 -76.138,-121.429l13.396,-77.07c0,0 20.543,22.034 38.31,39.222c4.585,4.437 58.12,17.817 60.931,17.303c8.948,-1.636 13.027,-4.144 14.074,-10.868c1.135,-7.286 0.165,-13.36 -10.816,-18.248c-5.988,-2.666 -40.471,-6.369 -49.451,-15.047c-11.852,-11.453 -47.497,-51.393 -47.497,-51.393c0,0 -10.293,-13.916 -34.263,-14.8" style="fill:#fff;stroke:#1370b8;stroke-width:11.91px;"/><circle cx="363.095" cy="43.113" r="28.712" style="fill:#fff;stroke:#1370b8;stroke-width:11.83px;"/><path d="M334.383,95.274c0,0 -15.138,1.19 -43.388,18.912c-27.762,17.415 -53.404,34.827 -53.404,34.827" style="fill:#fff;stroke:#1370b8;stroke-width:11.91px;"/></g></svg>