<?xml version="1.0" encoding="UTF-8" standalone="no"?><!DOCTYPE svg PUBLIC "-//W3C//DTD SVG 1.1//EN" "http://www.w3.org/Graphics/SVG/1.1/DTD/svg11.dtd"><svg width="100%" height="100%" viewBox="0 0 75 65" version="1.1" xmlns="http://www.w3.org/2000/svg" xmlns:xlink="http://www.w3.org/1999/xlink" xml:space="preserve" style="fill-rule:evenodd;clip-rule:evenodd;stroke-linecap:round;stroke-linejoin:round;stroke-miterlimit:1.5;"><path d="M15.273,54.446c0,0 -0.175,0 -0.417,0c-0.841,0 -1.549,0.629 -1.648,1.464c-0.283,2.397 -0.814,6.895 -0.814,6.895l9.007,0c0,0 0.445,-3.772 0.737,-6.248c0.064,-0.536 -0.105,-1.074 -0.464,-1.477c-0.358,-0.404 -0.872,-0.634 -1.412,-0.634c-1.056,0 -2.11,0 -2.11,0" style="fill:#fff;stroke:#1370b8;stroke-width:1.8px;"/><path d="M25.12,19.006l24.457,0l0.507,4.875l-25.321,0l0.357,-4.875" style="fill:#fff;stroke:#1370b8;stroke-width:1.8px;"/><path d="M21.086,37.784l30.517,0l0.632,4.875l-31.595,0l0.446,-4.875" style="fill:#fff;stroke:#1370b8;stroke-width:1.8px;"/><path d="M33.256,7.876c0,0 -2.332,0 -4.244,0c-1.405,0 -2.591,1.043 -2.771,2.436c-1.235,9.579 -5.691,44.134 -5.691,44.134l-5.019,0c0,0 3.762,-32.374 5.353,-46.063c0.397,-3.418 3.293,-5.996 6.734,-5.996l19.742,0c3.556,0 6.508,2.747 6.762,6.294c0.993,13.855 3.28,45.765 3.28,45.765l-5.019,0c0,0 -2.71,-34.231 -3.483,-43.997c-0.115,-1.453 -1.327,-2.573 -2.784,-2.573c-2.292,0 -5.28,0 -5.28,0l-7.58,0Z" style="fill:#fff;stroke:#1370b8;stroke-width:1.8px;"/><circle cx="54.119" cy="56.407" r="6.398" style="fill:#fff;stroke:#1370b8;stroke-width:1.8px;"/></svg>