<?xml version="1.0" encoding="iso-8859-1"?>
<!-- Generator: Adobe Illustrator 19.0.0, SVG Export Plug-In . SVG Version: 6.00 Build 0)  -->
<svg version="1.1" id="Layer_1" xmlns="http://www.w3.org/2000/svg" xmlns:xlink="http://www.w3.org/1999/xlink" x="0px" y="0px"
	 viewBox="0 0 512 512" style="enable-background:new 0 0 512 512;" xml:space="preserve">
<rect x="119.46" y="364.09" style="fill:#C4CAD9;" width="170.67" height="34.13"/>
<rect x="204.79" y="364.09" style="fill:#B8BFCC;" width="85.33" height="34.13"/>
<path style="fill:#5C5F66;" d="M309.81,511.772c-9.331,1.479-17.977-4.892-19.456-14.222l-29.356-187.506
	c-1.364-8.192-8.533-14.222-16.839-14.222h-78.733c-8.306,0-15.475,6.03-16.839,14.222L119.231,497.55
	c-1.479,9.33-10.125,15.701-19.456,14.222s-15.701-10.126-14.222-19.456l29.355-187.733c4.21-24.917,25.374-42.894,50.518-42.894
	h78.733c25.145,0,46.309,17.977,50.518,42.894l29.355,187.733C325.512,501.646,319.141,510.293,309.81,511.772z"/>
<path style="fill:#53565C;" d="M309.81,511.772c-9.331,1.479-17.977-4.892-19.456-14.222l-29.356-187.506
	c-1.364-8.192-8.533-14.222-16.839-14.222h-39.367v-34.133h39.367c25.145,0,46.309,17.977,50.518,42.894l29.355,187.733
	C325.512,501.646,319.141,510.293,309.81,511.772z"/>
<g>
	<path style="fill:#F9BC35;" d="M284.438,102.4c-28.233,0-51.2-22.967-51.2-51.2S256.206,0,284.438,0
		c28.233,0,51.2,22.967,51.2,51.2S312.671,102.4,284.438,102.4z"/>
	<path style="fill:#F9BC35;" d="M426.661,261.689v216.178c0,18.773-15.36,34.133-34.133,34.133s-34.133-15.36-34.133-34.133V261.689
		c0-16.156-2.844-32.085-8.647-47.445l-12.175-32.882l-18.317,29.924c-3.413,5.461-68.608,69.86-73.274,74.524
		c-13.312,13.312-34.929,13.312-48.242,0s-13.312-35.044,0-48.242l64.284-64.398c30.834-61.554,34.133-82.148,62.236-82.148
		c7.508,0,14.564,2.389,20.48,6.827c19,14.222,35.044,31.403,47.787,50.745C414.485,181.817,426.661,221.184,426.661,261.689z"/>
</g>
<path style="fill:#F39E31;" d="M426.661,261.689v216.178c0,18.773-15.36,34.133-34.133,34.133V148.594
	C414.485,181.817,426.661,221.184,426.661,261.689z"/>
<g>
</g>
<g>
</g>
<g>
</g>
<g>
</g>
<g>
</g>
<g>
</g>
<g>
</g>
<g>
</g>
<g>
</g>
<g>
</g>
<g>
</g>
<g>
</g>
<g>
</g>
<g>
</g>
<g>
</g>
</svg>
