<?xml version="1.0" encoding="utf-8"?>
<!-- Generator: Adobe Illustrator 21.0.0, SVG Export Plug-In . SVG Version: 6.00 Build 0)  -->
<svg version="1.1" id="Layer_1" xmlns="http://www.w3.org/2000/svg" xmlns:xlink="http://www.w3.org/1999/xlink" x="0px" y="0px"
	 viewBox="0 0 512 512" style="enable-background:new 0 0 512 512;" xml:space="preserve">
<style type="text/css">
	.st0{fill:#E7812E;}
	.st1{fill:#F39E31;}
	.st2{fill:#F9BC35;}
</style>
<path class="st0" d="M368.6,396.5v81.1c0,19.3-15.6,34.9-34.9,34.9c-19.3,0-34.9-15.6-34.9-34.9v-70.1l-85.5-85.5l49.4-49.4L356,366
	C367.4,377.4,368.6,388.7,368.6,396.5z"/>
<path class="st1" d="M178.3,512.4c-6.1,0-12.3-1.6-17.9-5c-16.5-9.9-21.9-31.4-12-47.9c42.4-70.7,64.8-163.3,64.8-245.7v-73.7
	c0-19.3,15.6-34.9,34.9-34.9s34.9,15.6,34.9,34.9v73.7c0,95.1-25.9,200.1-74.8,281.7C201.7,506.4,190.2,512.4,178.3,512.4z"/>
<g>
	<path class="st2" d="M248.2,314.6c-8.9,0-17.9-3.4-24.7-10.2l-69.8-69.8c-13.6-13.6-13.6-35.7,0-49.4l69.8-69.8
		c13.6-13.6,35.7-13.6,49.4,0c13.6,13.6,13.6,35.7,0,49.4l-45.1,45.1l45.1,45.1c13.6,13.6,13.6,35.7,0,49.4
		C266,311.2,257.1,314.6,248.2,314.6z"/>
	<path class="st2" d="M265.6,105.2c-28.9,0-52.4-23.5-52.4-52.4s23.5-52.4,52.4-52.4S318,23.9,318,52.8S294.5,105.2,265.6,105.2z"/>
</g>
</svg>
