<?xml version="1.0" encoding="UTF-8" standalone="no"?><!DOCTYPE svg PUBLIC "-//W3C//DTD SVG 1.1//EN" "http://www.w3.org/Graphics/SVG/1.1/DTD/svg11.dtd"><svg width="100%" height="100%" viewBox="0 0 75 65" version="1.1" xmlns="http://www.w3.org/2000/svg" xmlns:xlink="http://www.w3.org/1999/xlink" xml:space="preserve" style="fill-rule:evenodd;clip-rule:evenodd;stroke-linecap:round;stroke-linejoin:round;stroke-miterlimit:1.5;"><path d="M34.603,57.006c0,0 0,0 0,0c-0.802,0 -1.485,0.584 -1.61,1.376c-0.215,1.357 -0.51,3.229 -0.51,3.229l7.403,0c0,0 -0.152,-1.586 -0.278,-2.896c-0.093,-0.969 -0.907,-1.709 -1.881,-1.709c-0.542,0 -1.003,0 -1.003,0" style="fill:#fff;stroke:#1370b8;stroke-width:1.92px;"/><path d="M28.785,3.526c-0.54,-0.17 -0.678,1.682 -0.692,3.407c-0.008,0.735 0.282,1.442 0.803,1.96c0.521,0.517 1.23,0.802 1.965,0.789c1.551,-0.026 3.194,-0.055 3.194,-0.055l0,47.379l4.072,0l0,-47.326c0,0 5.004,0 8.035,0c1.3,0 2.404,-0.951 2.598,-2.236c0.005,-0.031 0.009,-0.062 0.014,-0.092c0.187,-1.239 -0.599,-2.416 -1.814,-2.718c-1.455,-0.313 -3.731,-0.449 -7.049,0.302c-6.686,1.515 -10.133,-1.096 -11.126,-1.41" style="fill:#fff;stroke:#1370b8;stroke-width:1.8px;"/></svg>