<?xml version="1.0" encoding="UTF-8" standalone="no"?>
<!DOCTYPE svg PUBLIC "-//W3C//DTD SVG 1.1//EN" "http://www.w3.org/Graphics/SVG/1.1/DTD/svg11.dtd">
<svg width="100%" height="100%" viewBox="0 0 700 400" version="1.1" xmlns="http://www.w3.org/2000/svg" xmlns:xlink="http://www.w3.org/1999/xlink" xml:space="preserve" style="fill-rule:evenodd;clip-rule:evenodd;stroke-linecap:round;stroke-linejoin:round;stroke-miterlimit:1.5;">
    <g transform="matrix(1.88448,0,0,1.88448,-736.679,7.4966)">
        <g transform="matrix(0.96391,0,0,0.96391,400.901,-121.629)">
            <circle cx="158.562" cy="151.172" r="16.5" style="fill:none;stroke:white;stroke-width:6.8px;"/>
        </g>
        <g transform="matrix(1,0,0,1,429.654,-136.4)">
            <path d="M142.896,225.619C142.896,225.619 141.535,210.746 136.476,199.248C133.264,191.945 128.252,186.486 121.146,186.499C116.274,186.507 109.885,186.381 104.51,199.584C102.736,203.941 101.205,211.747 99.502,220.565C98.767,224.371 97.413,229.102 96.776,232.499C93.81,248.33 109.746,245.757 112.269,245.903C113.874,245.997 157.056,248.132 157.056,248.132C157.056,248.132 165.426,247.014 165.492,237.193C165.545,229.167 155.974,228.066 151.69,227.672C147.676,227.304 119.946,225.215 119.946,225.215L122.895,214.156" style="fill:none;stroke:white;stroke-width:6.5px;"/>
        </g>
        <g transform="matrix(1,0,0,1,441.777,-157.075)">
            <path d="M168.334,317.403C158.862,336.126 146.386,353.05 112.546,353.195C81.253,353.33 38.151,310.493 72.636,261.985" style="fill:none;stroke:white;stroke-width:6.5px;"/>
        </g>
        <g transform="matrix(0.67759,-0.337207,0.337207,0.67759,376.996,-26.9074)">
            <path d="M68.819,338.554C49.811,314.446 55.596,279.709 74.854,262.938" style="fill:none;stroke:white;stroke-width:8.55px;"/>
        </g>
        <g transform="matrix(1,0,0,1,429.654,-136.4)">
            <path d="M114.374,245.814L117.174,263.614C117.174,263.614 120.009,273.514 130.951,273.514C141.807,273.514 179.959,270.299 179.959,270.299L201.377,310.22C201.377,310.22 205.266,317.998 214.821,314.776C224.377,311.554 221.581,301.179 221.581,301.179L200.727,261.443C200.727,261.443 196.18,253.142 193.576,251.808C191.766,250.881 188.935,249.389 180.457,249.228C171.757,249.063 155.906,248.132 155.906,248.132" style="fill:none;stroke:white;stroke-width:6.47px;"/>
        </g>
    </g>
</svg>
