<?xml version="1.0" encoding="UTF-8" standalone="no"?><!DOCTYPE svg PUBLIC "-//W3C//DTD SVG 1.1//EN" "http://www.w3.org/Graphics/SVG/1.1/DTD/svg11.dtd"><svg width="100%" height="100%" viewBox="0 0 700 400" version="1.1" xmlns="http://www.w3.org/2000/svg" xmlns:xlink="http://www.w3.org/1999/xlink" xml:space="preserve" style="fill-rule:evenodd;clip-rule:evenodd;stroke-linecap:round;stroke-linejoin:round;stroke-miterlimit:1.5;"><g><path d="M407.956,24.18l-15.522,0l-125.37,233.325l-20.561,74.921" style="fill:none;stroke:#fff;stroke-width:5px;"/><path d="M241.012,315.236l0.257,0.002l0.257,0.004l0.257,0.006l0.256,0.007l0.255,0.009l0.256,0.011l0.255,0.012l0.254,0.013l0.255,0.016l0.254,0.017l0.253,0.018l0.254,0.02l0.252,0.022l0.253,0.023l0.252,0.025l0.252,0.026l0.251,0.028l0.251,0.03l0.249,0.031l0.25,0.032l0.25,0.035l0.249,0.035l0.248,0.038l0.248,0.038l0.248,0.041l0.247,0.041l0.246,0.044l0.246,0.044l0.245,0.047l0.245,0.047l0.245,0.05l0.244,0.051l0.244,0.052l0.242,0.054l0.242,0.055l0.242,0.056l0.242,0.059l0.24,0.059l0.24,0.061l0.24,0.063l0.239,0.064l0.238,0.065l0.238,0.067l0.237,0.068l0.237,0.07l0.235,0.071l0.236,0.072l0.235,0.074l0.234,0.075l0.234,0.077l0.233,0.078l0.232,0.079l0.231,0.081l0.232,0.083l0.229,0.083l0.23,0.085l0.229,0.086l0.228,0.088l0.228,0.089l0.227,0.09l0.226,0.092l0.226,0.093l0.224,0.094l0.224,0.096l0.224,0.097l0.223,0.098l0.221,0.1l0.222,0.101l0.22,0.102l0.22,0.104l0.219,0.104l0.218,0.106l0.218,0.108l0.217,0.108l0.215,0.11l0.215,0.111l0.215,0.113l0.214,0.113l0.213,0.115l0.212,0.116l0.211,0.117l0.211,0.119l0.209,0.12l0.209,0.121l0.208,0.122l0.208,0.124l0.206,0.124l0.206,0.126l0.204,0.127l0.204,0.129l0.204,0.129l0.202,0.131l0.201,0.131l0.201,0.133l0.2,0.135l0.198,0.135l0.198,0.136l0.198,0.138l0.196,0.138l0.195,0.14l0.195,0.141l0.193,0.142l0.193,0.144l0.192,0.144l0.191,0.146l0.19,0.146l0.189,0.148l0.188,0.149l0.187,0.149l0.187,0.152l0.185,0.152l0.185,0.153l0.183,0.154l0.182,0.155l0.182,0.157l0.181,0.157l0.179,0.159l0.179,0.159l0.179,0.162l0.176,0.161l0.175,0.162l0.176,0.164l0.173,0.165l0.173,0.166l0.172,0.166l0.171,0.168l0.17,0.17l0.169,0.169l0.167,0.171l0.167,0.172l0.166,0.173l0.165,0.174l0.164,0.174l0.162,0.176l0.162,0.177l0.161,0.178l0.159,0.179l0.159,0.179l0.157,0.181l0.157,0.182l0.155,0.182l0.154,0.184l0.154,0.184l0.152,0.186l0.15,0.186l0.15,0.187l0.149,0.188l0.148,0.19l0.147,0.189l0.145,0.191l0.144,0.192l0.144,0.193l0.142,0.194l0.141,0.194l0.14,0.195l0.138,0.197l0.138,0.196l0.137,0.199l0.135,0.199l0.134,0.199l0.133,0.201l0.132,0.201l0.13,0.203l0.13,0.203l0.128,0.204l0.127,0.204l0.126,0.206l0.124,0.207l0.124,0.207l0.122,0.208l0.121,0.209l0.12,0.21l0.119,0.21l0.117,0.212l0.116,0.212l0.115,0.213l0.113,0.213l0.113,0.214l0.111,0.216l0.11,0.216l0.109,0.217l0.107,0.217l0.106,0.218l0.105,0.219l0.103,0.22l0.102,0.221l0.101,0.221l0.1,0.222l0.098,0.223l0.097,0.223l0.096,0.224l0.094,0.225l0.093,0.225l0.092,0.226l0.09,0.228l0.089,0.227l0.088,0.228l0.086,0.229l0.085,0.23l0.084,0.23l0.082,0.231l0.081,0.232l0.079,0.232l0.078,0.233l0.077,0.233l0.075,0.234l0.074,0.235l0.072,0.235l0.071,0.236l0.07,0.237l0.068,0.237l0.067,0.238l0.066,0.239l0.064,0.238l0.062,0.24l0.061,0.24l0.06,0.241l0.058,0.241l0.056,0.241l0.056,0.243l0.053,0.243l0.053,0.243l0.05,0.244l0.05,0.245l0.047,0.245l0.047,0.245l0.045,0.246l0.043,0.246l0.042,0.248l0.04,0.247l0.039,0.248l0.037,0.249l0.035,0.248l0.035,0.25l0.032,0.25l0.031,0.25l0.03,0.251l0.028,0.251l0.026,0.251l0.025,0.252l0.023,0.253l0.022,0.253l0.02,0.252l0.018,0.254l0.017,0.254l0.016,0.255l0.013,0.254l0.013,0.256l0.01,0.255l0.009,0.256l0.007,0.256l0.006,0.256l0.004,0.257l0.003,0.257l0,0.258l0,0.257l-0.003,0.257l-0.004,0.257l-0.006,0.256l-0.007,0.257l-0.009,0.256l-0.01,0.255l-0.013,0.255l-0.013,0.254l-0.016,0.255l-0.017,0.254l-0.018,0.254l-0.02,0.252l-0.022,0.253l-0.023,0.253l-0.025,0.252l-0.026,0.252l-0.028,0.25l-0.03,0.251l-0.031,0.25l-0.032,0.25l-0.035,0.25l-0.035,0.249l-0.037,0.248l-0.039,0.248l-0.04,0.248l-0.042,0.247l-0.043,0.246l-0.045,0.246l-0.047,0.246l-0.047,0.244l-0.05,0.245l-0.05,0.244l-0.053,0.243l-0.053,0.243l-0.056,0.243l-0.056,0.241l-0.058,0.241l-0.06,0.241l-0.061,0.241l-0.063,0.239l-0.063,0.238l-0.066,0.24l-0.067,0.237l-0.068,0.237l-0.069,0.237l-0.072,0.236l-0.072,0.235l-0.074,0.235l-0.075,0.234l-0.077,0.234l-0.078,0.233l-0.079,0.232l-0.081,0.232l-0.082,0.23l-0.084,0.23l-0.085,0.23l-0.086,0.229l-0.088,0.228l-0.089,0.227l-0.09,0.228l-0.092,0.226l-0.093,0.225l-0.094,0.225l-0.096,0.224l-0.097,0.223l-0.098,0.224l-0.1,0.221l-0.101,0.222l-0.102,0.22l-0.103,0.22l-0.105,0.219l-0.106,0.218l-0.107,0.218l-0.109,0.216l-0.11,0.216l-0.111,0.216l-0.112,0.214l-0.114,0.214l-0.115,0.213l-0.116,0.212l-0.117,0.211l-0.119,0.211l-0.12,0.209l-0.121,0.209l-0.122,0.208l-0.124,0.208l-0.124,0.206l-0.126,0.206l-0.127,0.204l-0.128,0.204l-0.13,0.204l-0.13,0.202l-0.132,0.201l-0.133,0.201l-0.134,0.199l-0.135,0.2l-0.137,0.198l-0.137,0.196l-0.139,0.197l-0.14,0.195l-0.141,0.195l-0.142,0.193l-0.143,0.193l-0.145,0.192l-0.145,0.191l-0.147,0.19l-0.148,0.189l-0.149,0.188l-0.15,0.187l-0.15,0.187l-0.152,0.185l-0.154,0.185l-0.154,0.183l-0.155,0.182l-0.157,0.182l-0.157,0.181l-0.159,0.18l-0.159,0.178l-0.161,0.178l-0.161,0.177l-0.163,0.176l-0.164,0.174l-0.165,0.174l-0.166,0.173l-0.167,0.172l-0.167,0.171l-0.169,0.17l-0.17,0.169l-0.171,0.168l-0.172,0.166l-0.173,0.166l-0.174,0.165l-0.174,0.164l-0.176,0.163l-0.177,0.161l-0.178,0.161l-0.179,0.159l-0.179,0.159l-0.181,0.157l-0.182,0.157l-0.182,0.155l-0.183,0.154l-0.185,0.154l-0.185,0.151l-0.187,0.151l-0.187,0.151l-0.188,0.148l-0.189,0.148l-0.19,0.147l-0.191,0.145l-0.192,0.144l-0.193,0.144l-0.193,0.142l-0.195,0.141l-0.195,0.14l-0.196,0.138l-0.197,0.138l-0.199,0.137l-0.199,0.135l-0.199,0.134l-0.201,0.133l-0.202,0.132l-0.201,0.13l-0.204,0.13l-0.203,0.128l-0.205,0.127l-0.206,0.126l-0.206,0.124l-0.208,0.124l-0.208,0.122l-0.209,0.121l-0.209,0.12l-0.211,0.119l-0.211,0.117l-0.212,0.116l-0.213,0.115l-0.214,0.114l-0.215,0.112l-0.215,0.111l-0.215,0.11l-0.218,0.109l-0.217,0.107l-0.218,0.106l-0.219,0.105l-0.22,0.103l-0.22,0.102l-0.222,0.101l-0.221,0.1l-0.223,0.098l-0.224,0.097l-0.224,0.096l-0.224,0.094l-0.226,0.093l-0.226,0.092l-0.227,0.09l-0.228,0.089l-0.228,0.088l-0.228,0.086l-0.231,0.085l-0.23,0.084l-0.23,0.082l-0.232,0.081l-0.233,0.079l-0.232,0.078l-0.234,0.077l-0.234,0.075l-0.235,0.074l-0.235,0.072l-0.236,0.072l-0.237,0.069l-0.237,0.069l-0.237,0.066l-0.239,0.066l-0.239,0.064l-0.239,0.062l-0.241,0.061l-0.24,0.06l-0.242,0.058l-0.242,0.057l-0.242,0.055l-0.242,0.053l-0.244,0.053l-0.244,0.05l-0.245,0.05l-0.244,0.047l-0.246,0.047l-0.246,0.045l-0.246,0.043l-0.247,0.042l-0.248,0.04l-0.248,0.039l-0.248,0.037l-0.249,0.036l-0.25,0.034l-0.249,0.032l-0.251,0.031l-0.251,0.03l-0.25,0.028l-0.252,0.026l-0.252,0.025l-0.253,0.023l-0.253,0.022l-0.252,0.02l-0.254,0.018l-0.254,0.017l-0.254,0.016l-0.255,0.013l-0.255,0.013l-0.255,0.01l-0.256,0.009l-0.257,0.007l-0.256,0.006l-0.257,0.004l-0.257,0.003l-0.257,0l-0.258,0l-0.257,-0.003l-0.257,-0.004l-0.256,-0.006l-0.256,-0.007l-0.256,-0.009l-0.255,-0.01l-0.256,-0.013l-0.255,-0.013l-0.254,-0.016l-0.254,-0.017l-0.254,-0.018l-0.252,-0.02l-0.253,-0.022l-0.253,-0.023l-0.252,-0.025l-0.251,-0.026l-0.251,-0.028l-0.251,-0.03l-0.251,-0.031l-0.249,-0.032l-0.249,-0.034l-0.249,-0.036l-0.249,-0.037l-0.248,-0.039l-0.247,-0.04l-0.248,-0.042l-0.246,-0.043l-0.246,-0.045l-0.245,-0.047l-0.245,-0.047l-0.245,-0.05l-0.244,-0.05l-0.243,-0.053l-0.243,-0.053l-0.242,-0.055l-0.242,-0.057l-0.241,-0.058l-0.241,-0.06l-0.24,-0.061l-0.24,-0.062l-0.239,-0.064l-0.238,-0.066l-0.238,-0.066l-0.237,-0.069l-0.237,-0.07l-0.236,-0.071l-0.235,-0.072l-0.235,-0.074l-0.234,-0.075l-0.233,-0.077l-0.233,-0.078l-0.232,-0.079l-0.232,-0.081l-0.231,-0.082l-0.23,-0.084l-0.23,-0.085l-0.229,-0.086l-0.228,-0.088l-0.228,-0.089l-0.227,-0.09l-0.226,-0.092l-0.226,-0.093l-0.224,-0.094l-0.224,-0.096l-0.224,-0.097l-0.222,-0.098l-0.222,-0.1l-0.221,-0.101l-0.221,-0.102l-0.22,-0.103l-0.219,-0.105l-0.218,-0.106l-0.217,-0.107l-0.217,-0.109l-0.216,-0.11l-0.215,-0.111l-0.215,-0.113l-0.213,-0.113l-0.213,-0.115l-0.212,-0.116l-0.212,-0.117l-0.21,-0.119l-0.21,-0.12l-0.209,-0.121l-0.208,-0.122l-0.207,-0.124l-0.207,-0.124l-0.206,-0.126l-0.204,-0.127l-0.204,-0.128l-0.203,-0.13l-0.202,-0.13l-0.202,-0.132l-0.201,-0.133l-0.199,-0.134l-0.199,-0.135l-0.199,-0.137l-0.197,-0.138l-0.196,-0.138l-0.195,-0.14l-0.194,-0.141l-0.194,-0.142l-0.193,-0.144l-0.192,-0.144l-0.191,-0.145l-0.19,-0.147l-0.189,-0.148l-0.187,-0.148l-0.188,-0.151l-0.186,-0.15l-0.186,-0.152l-0.184,-0.154l-0.184,-0.154l-0.182,-0.155l-0.182,-0.157l-0.181,-0.157l-0.179,-0.159l-0.179,-0.16l-0.178,-0.16l-0.177,-0.161l-0.176,-0.163l-0.174,-0.164l-0.174,-0.165l-0.173,-0.166l-0.172,-0.167l-0.171,-0.167l-0.17,-0.169l-0.168,-0.17l-0.168,-0.171l-0.167,-0.172l-0.166,-0.173l-0.165,-0.173l-0.164,-0.175l-0.162,-0.176l-0.162,-0.177l-0.161,-0.178l-0.159,-0.178l-0.159,-0.18l-0.157,-0.181l-0.156,-0.181l-0.156,-0.183l-0.154,-0.183l-0.153,-0.185l-0.153,-0.186l-0.151,-0.186l-0.149,-0.187l-0.149,-0.188l-0.148,-0.189l-0.146,-0.19l-0.146,-0.191l-0.145,-0.192l-0.142,-0.192l-0.142,-0.194l-0.142,-0.195l-0.14,-0.195l-0.138,-0.197l-0.138,-0.197l-0.136,-0.197l-0.136,-0.199l-0.134,-0.2l-0.133,-0.201l-0.132,-0.201l-0.13,-0.202l-0.129,-0.203l-0.129,-0.205l-0.127,-0.204l-0.126,-0.206l-0.124,-0.206l-0.124,-0.208l-0.122,-0.208l-0.121,-0.209l-0.12,-0.209l-0.118,-0.211l-0.118,-0.211l-0.116,-0.212l-0.115,-0.213l-0.113,-0.214l-0.113,-0.215l-0.111,-0.215l-0.11,-0.216l-0.108,-0.216l-0.108,-0.218l-0.106,-0.219l-0.104,-0.218l-0.104,-0.22l-0.102,-0.22l-0.101,-0.222l-0.1,-0.222l-0.098,-0.222l-0.097,-0.223l-0.096,-0.225l-0.094,-0.225l-0.093,-0.225l-0.092,-0.227l-0.09,-0.226l-0.089,-0.228l-0.088,-0.228l-0.086,-0.229l-0.085,-0.23l-0.084,-0.23l-0.082,-0.231l-0.08,-0.231l-0.08,-0.232l-0.078,-0.233l-0.077,-0.234l-0.075,-0.234l-0.074,-0.235l-0.072,-0.235l-0.071,-0.236l-0.07,-0.237l-0.068,-0.237l-0.067,-0.238l-0.065,-0.238l-0.064,-0.239l-0.063,-0.24l-0.061,-0.24l-0.06,-0.241l-0.058,-0.241l-0.056,-0.241l-0.055,-0.243l-0.054,-0.243l-0.053,-0.243l-0.05,-0.244l-0.049,-0.244l-0.048,-0.245l-0.047,-0.246l-0.044,-0.246l-0.044,-0.247l-0.042,-0.247l-0.04,-0.247l-0.038,-0.248l-0.038,-0.248l-0.035,-0.249l-0.034,-0.25l-0.033,-0.249l-0.031,-0.251l-0.03,-0.251l-0.028,-0.251l-0.026,-0.251l-0.025,-0.252l-0.023,-0.252l-0.022,-0.253l-0.02,-0.253l-0.018,-0.254l-0.017,-0.254l-0.016,-0.254l-0.013,-0.255l-0.012,-0.255l-0.011,-0.256l-0.009,-0.255l-0.007,-0.257l-0.006,-0.256l-0.004,-0.257l-0.002,-0.257l-0.001,-0.257l0.001,-0.258l0.002,-0.257l0.004,-0.257l0.006,-0.256l0.007,-0.257l0.009,-0.255l0.011,-0.255l0.012,-0.256l0.013,-0.254l0.016,-0.255l0.017,-0.254l0.018,-0.253l0.02,-0.254l0.022,-0.252l0.023,-0.253l0.025,-0.252l0.026,-0.251l0.028,-0.251l0.03,-0.251l0.031,-0.25l0.033,-0.25l0.034,-0.249l0.035,-0.249l0.038,-0.249l0.038,-0.248l0.04,-0.247l0.042,-0.247l0.044,-0.247l0.044,-0.246l0.047,-0.245l0.048,-0.246l0.049,-0.244l0.05,-0.243l0.053,-0.244l0.054,-0.243l0.055,-0.242l0.056,-0.242l0.058,-0.241l0.06,-0.241l0.061,-0.24l0.063,-0.24l0.064,-0.239l0.065,-0.238l0.067,-0.238l0.068,-0.237l0.07,-0.237l0.071,-0.236l0.072,-0.235l0.074,-0.235l0.075,-0.234l0.077,-0.233l0.078,-0.233l0.08,-0.233l0.08,-0.231l0.082,-0.231l0.084,-0.23l0.085,-0.23l0.086,-0.229l0.088,-0.228l0.089,-0.228l0.09,-0.226l0.092,-0.227l0.093,-0.225l0.094,-0.225l0.096,-0.224l0.097,-0.224l0.098,-0.222l0.1,-0.222l0.101,-0.221l0.102,-0.221l0.104,-0.22l0.104,-0.219l0.106,-0.218l0.108,-0.218l0.108,-0.216l0.11,-0.216l0.111,-0.215l0.113,-0.215l0.113,-0.213l0.115,-0.213l0.116,-0.213l0.118,-0.211l0.118,-0.21l0.12,-0.21l0.121,-0.209l0.122,-0.208l0.124,-0.207l0.125,-0.207l0.125,-0.205l0.127,-0.205l0.129,-0.204l0.129,-0.203l0.131,-0.203l0.131,-0.201l0.133,-0.2l0.134,-0.201l0.136,-0.199l0.136,-0.197l0.138,-0.197l0.138,-0.197l0.14,-0.195l0.141,-0.195l0.143,-0.193l0.143,-0.193l0.144,-0.191l0.146,-0.192l0.146,-0.189l0.148,-0.19l0.149,-0.188l0.149,-0.187l0.151,-0.186l0.153,-0.186l0.153,-0.184l0.154,-0.184l0.156,-0.183l0.156,-0.181l0.157,-0.181l0.159,-0.179l0.159,-0.179l0.161,-0.178l0.162,-0.177l0.162,-0.176l0.164,-0.175l0.165,-0.173l0.166,-0.173l0.167,-0.172l0.167,-0.171l0.169,-0.17l0.17,-0.169l0.171,-0.167l0.172,-0.167l0.173,-0.166l0.173,-0.165l0.176,-0.164l0.175,-0.162l0.177,-0.162l0.178,-0.16l0.179,-0.16l0.179,-0.159l0.181,-0.157l0.182,-0.157l0.182,-0.155l0.184,-0.154l0.184,-0.153l0.186,-0.153l0.186,-0.151l0.187,-0.149l0.188,-0.149l0.189,-0.148l0.19,-0.146l0.191,-0.146l0.192,-0.144l0.193,-0.144l0.193,-0.142l0.195,-0.141l0.195,-0.14l0.196,-0.138l0.198,-0.138l0.198,-0.136l0.198,-0.135l0.2,-0.135l0.201,-0.133l0.201,-0.131l0.203,-0.131l0.203,-0.129l0.204,-0.129l0.205,-0.127l0.205,-0.125l0.207,-0.125l0.207,-0.124l0.208,-0.122l0.209,-0.121l0.21,-0.12l0.21,-0.119l0.211,-0.117l0.213,-0.116l0.213,-0.115l0.213,-0.113l0.215,-0.113l0.215,-0.111l0.216,-0.11l0.216,-0.108l0.218,-0.108l0.218,-0.106l0.219,-0.104l0.22,-0.104l0.221,-0.102l0.221,-0.101l0.222,-0.1l0.222,-0.098l0.224,-0.097l0.224,-0.096l0.224,-0.094l0.226,-0.093l0.226,-0.092l0.227,-0.09l0.228,-0.089l0.228,-0.088l0.229,-0.086l0.23,-0.085l0.23,-0.083l0.231,-0.083l0.232,-0.081l0.232,-0.079l0.233,-0.078l0.233,-0.077l0.234,-0.075l0.235,-0.074l0.236,-0.072l0.235,-0.071l0.237,-0.07l0.237,-0.068l0.238,-0.067l0.238,-0.065l0.239,-0.064l0.24,-0.063l0.24,-0.061l0.24,-0.059l0.242,-0.059l0.242,-0.056l0.242,-0.055l0.243,-0.054l0.243,-0.052l0.244,-0.051l0.245,-0.05l0.245,-0.047l0.245,-0.047l0.246,-0.044l0.246,-0.044l0.248,-0.041l0.247,-0.041l0.248,-0.038l0.249,-0.038l0.249,-0.035l0.249,-0.035l0.25,-0.032l0.25,-0.031l0.25,-0.03l0.252,-0.028l0.251,-0.026l0.253,-0.025l0.252,-0.023l0.252,-0.022l0.254,-0.02l0.253,-0.018l0.254,-0.017l0.255,-0.016l0.254,-0.013l0.255,-0.012l0.256,-0.011l0.256,-0.009l0.256,-0.007l0.256,-0.006l0.257,-0.004l0.258,-0.002l0.257,-0.001l0.257,0.001Zm-0.465,7.924l-0.206,0.002l-0.207,0.003l-0.206,0.004l-0.206,0.006l-0.206,0.007l-0.205,0.009l-0.205,0.01l-0.205,0.011l-0.204,0.012l-0.204,0.014l-0.203,0.014l-0.204,0.017l-0.202,0.017l-0.203,0.019l-0.202,0.02l-0.202,0.021l-0.201,0.022l-0.201,0.024l-0.201,0.025l-0.2,0.026l-0.2,0.027l-0.2,0.029l-0.199,0.03l-0.198,0.031l-0.199,0.032l-0.197,0.033l-0.198,0.035l-0.197,0.036l-0.197,0.037l-0.196,0.038l-0.196,0.04l-0.195,0.04l-0.195,0.042l-0.194,0.043l-0.194,0.044l-0.194,0.046l-0.193,0.046l-0.193,0.048l-0.192,0.049l-0.192,0.05l-0.191,0.051l-0.191,0.052l-0.19,0.054l-0.19,0.054l-0.189,0.056l-0.189,0.057l-0.189,0.058l-0.188,0.059l-0.187,0.061l-0.187,0.061l-0.186,0.062l-0.186,0.064l-0.186,0.065l-0.184,0.066l-0.185,0.066l-0.184,0.068l-0.183,0.07l-0.183,0.07l-0.182,0.071l-0.182,0.072l-0.181,0.074l-0.18,0.074l-0.18,0.076l-0.18,0.076l-0.179,0.078l-0.178,0.079l-0.178,0.08l-0.177,0.08l-0.177,0.082l-0.176,0.083l-0.175,0.084l-0.175,0.085l-0.174,0.086l-0.174,0.087l-0.173,0.088l-0.173,0.089l-0.171,0.09l-0.172,0.091l-0.17,0.092l-0.17,0.093l-0.17,0.095l-0.168,0.095l-0.169,0.096l-0.167,0.097l-0.167,0.098l-0.166,0.099l-0.166,0.1l-0.165,0.101l-0.164,0.101l-0.163,0.103l-0.163,0.104l-0.163,0.105l-0.161,0.106l-0.161,0.106l-0.16,0.108l-0.16,0.108l-0.159,0.11l-0.158,0.11l-0.157,0.111l-0.157,0.113l-0.156,0.113l-0.156,0.114l-0.154,0.115l-0.154,0.116l-0.154,0.117l-0.152,0.117l-0.152,0.119l-0.151,0.119l-0.15,0.121l-0.15,0.121l-0.149,0.122l-0.148,0.123l-0.147,0.124l-0.146,0.124l-0.146,0.126l-0.145,0.126l-0.145,0.128l-0.143,0.128l-0.143,0.129l-0.142,0.13l-0.141,0.13l-0.14,0.132l-0.14,0.132l-0.139,0.133l-0.138,0.134l-0.137,0.135l-0.136,0.136l-0.136,0.136l-0.135,0.137l-0.134,0.138l-0.133,0.139l-0.132,0.14l-0.132,0.14l-0.13,0.141l-0.13,0.142l-0.129,0.143l-0.128,0.143l-0.128,0.145l-0.126,0.145l-0.126,0.146l-0.124,0.146l-0.124,0.147l-0.123,0.148l-0.122,0.149l-0.121,0.15l-0.121,0.15l-0.119,0.151l-0.119,0.152l-0.117,0.152l-0.117,0.154l-0.116,0.154l-0.115,0.154l-0.114,0.156l-0.113,0.156l-0.113,0.157l-0.111,0.157l-0.11,0.158l-0.11,0.159l-0.108,0.16l-0.108,0.16l-0.106,0.161l-0.106,0.161l-0.105,0.163l-0.104,0.163l-0.103,0.163l-0.101,0.164l-0.101,0.165l-0.1,0.166l-0.099,0.166l-0.098,0.167l-0.097,0.167l-0.096,0.169l-0.095,0.168l-0.095,0.17l-0.093,0.17l-0.092,0.17l-0.091,0.172l-0.09,0.171l-0.089,0.173l-0.088,0.173l-0.087,0.174l-0.086,0.174l-0.085,0.175l-0.084,0.175l-0.083,0.176l-0.082,0.177l-0.08,0.177l-0.08,0.178l-0.079,0.178l-0.078,0.179l-0.076,0.18l-0.076,0.18l-0.074,0.18l-0.074,0.181l-0.072,0.182l-0.071,0.182l-0.07,0.183l-0.07,0.183l-0.068,0.184l-0.066,0.185l-0.066,0.184l-0.065,0.186l-0.064,0.186l-0.062,0.186l-0.061,0.187l-0.061,0.187l-0.059,0.188l-0.058,0.189l-0.057,0.189l-0.056,0.189l-0.054,0.19l-0.054,0.19l-0.052,0.191l-0.051,0.191l-0.05,0.192l-0.049,0.192l-0.048,0.193l-0.046,0.193l-0.046,0.194l-0.044,0.194l-0.043,0.194l-0.042,0.195l-0.04,0.195l-0.04,0.196l-0.038,0.196l-0.037,0.197l-0.036,0.197l-0.035,0.198l-0.033,0.197l-0.032,0.199l-0.031,0.198l-0.03,0.199l-0.029,0.2l-0.027,0.2l-0.026,0.2l-0.025,0.201l-0.024,0.201l-0.022,0.201l-0.021,0.202l-0.02,0.202l-0.019,0.203l-0.017,0.202l-0.017,0.204l-0.014,0.203l-0.014,0.204l-0.012,0.204l-0.011,0.205l-0.01,0.205l-0.009,0.205l-0.007,0.206l-0.006,0.206l-0.004,0.206l-0.003,0.207l-0.002,0.206l-0.001,0.208l0.001,0.207l0.002,0.207l0.003,0.206l0.004,0.206l0.006,0.206l0.007,0.206l0.009,0.205l0.01,0.205l0.011,0.205l0.012,0.204l0.014,0.204l0.014,0.204l0.017,0.203l0.017,0.203l0.019,0.202l0.02,0.202l0.021,0.202l0.022,0.201l0.024,0.201l0.025,0.201l0.026,0.2l0.027,0.2l0.029,0.2l0.03,0.199l0.031,0.198l0.032,0.199l0.033,0.198l0.035,0.197l0.036,0.197l0.037,0.197l0.038,0.196l0.04,0.196l0.04,0.195l0.042,0.195l0.043,0.194l0.044,0.194l0.046,0.194l0.046,0.193l0.048,0.193l0.049,0.192l0.05,0.192l0.051,0.191l0.052,0.191l0.054,0.19l0.054,0.19l0.056,0.19l0.057,0.188l0.058,0.189l0.059,0.188l0.061,0.187l0.061,0.187l0.062,0.187l0.064,0.185l0.065,0.186l0.066,0.185l0.066,0.184l0.068,0.184l0.07,0.183l0.07,0.183l0.071,0.182l0.072,0.182l0.074,0.181l0.074,0.18l0.076,0.181l0.076,0.179l0.078,0.179l0.079,0.178l0.08,0.178l0.08,0.177l0.082,0.177l0.083,0.176l0.084,0.175l0.085,0.175l0.086,0.174l0.087,0.174l0.088,0.173l0.089,0.173l0.09,0.172l0.091,0.171l0.092,0.17l0.093,0.17l0.095,0.17l0.095,0.169l0.096,0.168l0.097,0.167l0.098,0.167l0.099,0.166l0.1,0.166l0.101,0.165l0.101,0.164l0.103,0.164l0.104,0.163l0.105,0.162l0.106,0.161l0.106,0.161l0.108,0.161l0.108,0.159l0.11,0.159l0.11,0.158l0.111,0.158l0.113,0.156l0.113,0.157l0.114,0.155l0.115,0.155l0.116,0.153l0.117,0.154l0.117,0.152l0.119,0.152l0.119,0.151l0.121,0.15l0.121,0.15l0.122,0.149l0.123,0.148l0.124,0.147l0.124,0.147l0.126,0.145l0.126,0.146l0.128,0.144l0.128,0.143l0.129,0.143l0.13,0.142l0.13,0.141l0.132,0.141l0.132,0.139l0.133,0.139l0.134,0.138l0.135,0.137l0.136,0.137l0.136,0.135l0.137,0.135l0.138,0.134l0.139,0.133l0.14,0.132l0.14,0.132l0.141,0.131l0.142,0.129l0.143,0.129l0.143,0.128l0.145,0.128l0.145,0.126l0.146,0.126l0.146,0.124l0.147,0.124l0.148,0.123l0.149,0.122l0.15,0.122l0.15,0.12l0.151,0.119l0.152,0.119l0.152,0.118l0.154,0.116l0.154,0.116l0.154,0.115l0.156,0.114l0.156,0.113l0.157,0.113l0.157,0.111l0.158,0.11l0.159,0.11l0.16,0.108l0.16,0.108l0.161,0.107l0.161,0.105l0.163,0.105l0.163,0.104l0.163,0.103l0.164,0.102l0.165,0.101l0.166,0.1l0.166,0.099l0.167,0.098l0.167,0.097l0.169,0.096l0.168,0.095l0.17,0.094l0.17,0.093l0.17,0.092l0.172,0.091l0.171,0.09l0.173,0.089l0.173,0.088l0.174,0.087l0.174,0.086l0.175,0.085l0.175,0.084l0.176,0.083l0.177,0.082l0.177,0.081l0.178,0.079l0.178,0.079l0.179,0.078l0.18,0.076l0.18,0.076l0.18,0.074l0.181,0.074l0.182,0.072l0.182,0.071l0.183,0.071l0.183,0.069l0.184,0.068l0.185,0.067l0.184,0.065l0.186,0.065l0.186,0.064l0.186,0.062l0.187,0.062l0.187,0.06l0.188,0.059l0.189,0.058l0.189,0.057l0.189,0.056l0.19,0.054l0.19,0.054l0.191,0.052l0.191,0.051l0.192,0.05l0.192,0.049l0.193,0.048l0.193,0.046l0.194,0.046l0.194,0.044l0.194,0.043l0.195,0.042l0.195,0.041l0.196,0.039l0.196,0.038l0.197,0.037l0.197,0.036l0.198,0.035l0.197,0.033l0.199,0.033l0.198,0.031l0.199,0.029l0.2,0.029l0.2,0.027l0.2,0.027l0.201,0.024l0.201,0.024l0.201,0.022l0.202,0.022l0.202,0.02l0.203,0.018l0.202,0.018l0.204,0.016l0.203,0.015l0.204,0.013l0.204,0.012l0.205,0.012l0.205,0.009l0.205,0.009l0.206,0.007l0.206,0.006l0.206,0.004l0.207,0.004l0.206,0.002l0.208,0l0.207,0l0.207,-0.002l0.206,-0.004l0.206,-0.004l0.206,-0.006l0.206,-0.007l0.205,-0.009l0.205,-0.009l0.205,-0.012l0.204,-0.012l0.204,-0.013l0.204,-0.015l0.203,-0.016l0.203,-0.018l0.202,-0.018l0.202,-0.02l0.202,-0.022l0.201,-0.022l0.201,-0.024l0.201,-0.024l0.2,-0.027l0.2,-0.027l0.2,-0.029l0.199,-0.029l0.198,-0.031l0.199,-0.033l0.198,-0.033l0.197,-0.035l0.197,-0.036l0.197,-0.037l0.196,-0.038l0.196,-0.039l0.195,-0.041l0.195,-0.042l0.194,-0.043l0.194,-0.044l0.194,-0.046l0.193,-0.046l0.193,-0.048l0.192,-0.049l0.192,-0.05l0.191,-0.051l0.191,-0.052l0.19,-0.054l0.19,-0.054l0.19,-0.056l0.188,-0.057l0.189,-0.058l0.188,-0.059l0.187,-0.06l0.187,-0.062l0.187,-0.062l0.185,-0.064l0.186,-0.065l0.185,-0.065l0.184,-0.067l0.184,-0.068l0.183,-0.069l0.183,-0.071l0.182,-0.071l0.182,-0.072l0.181,-0.074l0.18,-0.074l0.18,-0.076l0.18,-0.076l0.179,-0.078l0.178,-0.079l0.178,-0.079l0.177,-0.081l0.177,-0.082l0.176,-0.083l0.175,-0.084l0.175,-0.085l0.174,-0.086l0.174,-0.087l0.173,-0.088l0.173,-0.089l0.172,-0.09l0.171,-0.091l0.17,-0.092l0.17,-0.093l0.17,-0.094l0.169,-0.095l0.168,-0.096l0.167,-0.097l0.167,-0.098l0.166,-0.099l0.166,-0.1l0.165,-0.101l0.164,-0.102l0.164,-0.103l0.163,-0.104l0.162,-0.105l0.161,-0.105l0.161,-0.107l0.161,-0.108l0.159,-0.108l0.159,-0.11l0.158,-0.11l0.158,-0.111l0.156,-0.113l0.156,-0.113l0.156,-0.114l0.155,-0.115l0.153,-0.116l0.154,-0.116l0.152,-0.118l0.152,-0.119l0.151,-0.119l0.15,-0.12l0.15,-0.122l0.149,-0.122l0.148,-0.123l0.147,-0.124l0.147,-0.124l0.145,-0.126l0.146,-0.126l0.144,-0.128l0.143,-0.128l0.143,-0.129l0.142,-0.129l0.141,-0.131l0.141,-0.132l0.139,-0.132l0.139,-0.133l0.138,-0.134l0.137,-0.135l0.137,-0.135l0.135,-0.137l0.135,-0.137l0.134,-0.138l0.133,-0.139l0.132,-0.139l0.132,-0.141l0.131,-0.141l0.129,-0.142l0.129,-0.143l0.128,-0.143l0.128,-0.144l0.126,-0.146l0.126,-0.145l0.124,-0.147l0.124,-0.147l0.123,-0.148l0.122,-0.149l0.122,-0.15l0.12,-0.15l0.119,-0.151l0.119,-0.152l0.118,-0.152l0.116,-0.154l0.116,-0.153l0.115,-0.155l0.114,-0.155l0.113,-0.157l0.113,-0.156l0.111,-0.158l0.11,-0.158l0.11,-0.159l0.108,-0.159l0.108,-0.161l0.107,-0.161l0.105,-0.161l0.105,-0.162l0.104,-0.163l0.103,-0.164l0.102,-0.164l0.101,-0.165l0.1,-0.166l0.099,-0.166l0.098,-0.167l0.097,-0.167l0.096,-0.168l0.095,-0.169l0.094,-0.17l0.093,-0.17l0.092,-0.17l0.091,-0.171l0.09,-0.172l0.089,-0.173l0.088,-0.173l0.087,-0.174l0.086,-0.174l0.085,-0.175l0.084,-0.175l0.083,-0.176l0.082,-0.177l0.081,-0.177l0.079,-0.178l0.079,-0.178l0.078,-0.179l0.076,-0.179l0.076,-0.181l0.074,-0.18l0.074,-0.181l0.072,-0.182l0.071,-0.182l0.071,-0.183l0.069,-0.183l0.068,-0.184l0.067,-0.184l0.065,-0.185l0.065,-0.186l0.064,-0.185l0.062,-0.187l0.062,-0.187l0.06,-0.187l0.059,-0.188l0.058,-0.189l0.057,-0.188l0.056,-0.19l0.054,-0.19l0.054,-0.19l0.052,-0.191l0.051,-0.191l0.05,-0.192l0.049,-0.192l0.048,-0.193l0.046,-0.193l0.046,-0.194l0.044,-0.194l0.043,-0.194l0.042,-0.195l0.041,-0.195l0.039,-0.196l0.038,-0.196l0.037,-0.197l0.036,-0.197l0.035,-0.197l0.033,-0.198l0.033,-0.199l0.031,-0.198l0.029,-0.199l0.029,-0.2l0.027,-0.2l0.027,-0.2l0.024,-0.201l0.024,-0.201l0.022,-0.201l0.022,-0.202l0.02,-0.202l0.018,-0.202l0.018,-0.203l0.016,-0.203l0.015,-0.204l0.013,-0.204l0.012,-0.204l0.012,-0.205l0.009,-0.205l0.009,-0.205l0.007,-0.206l0.006,-0.206l0.004,-0.206l0.004,-0.206l0.002,-0.207l0,-0.207l0,-0.208l-0.002,-0.206l-0.004,-0.207l-0.004,-0.206l-0.006,-0.206l-0.007,-0.206l-0.009,-0.205l-0.009,-0.205l-0.012,-0.205l-0.012,-0.204l-0.013,-0.204l-0.015,-0.203l-0.016,-0.204l-0.018,-0.202l-0.018,-0.203l-0.02,-0.202l-0.022,-0.202l-0.022,-0.201l-0.024,-0.201l-0.024,-0.201l-0.027,-0.2l-0.027,-0.2l-0.029,-0.2l-0.029,-0.199l-0.031,-0.198l-0.033,-0.199l-0.033,-0.197l-0.035,-0.198l-0.036,-0.197l-0.037,-0.197l-0.038,-0.196l-0.039,-0.196l-0.041,-0.195l-0.042,-0.195l-0.043,-0.194l-0.044,-0.194l-0.046,-0.194l-0.046,-0.193l-0.048,-0.193l-0.049,-0.192l-0.05,-0.192l-0.051,-0.191l-0.052,-0.191l-0.054,-0.19l-0.054,-0.19l-0.056,-0.189l-0.057,-0.189l-0.058,-0.189l-0.059,-0.188l-0.06,-0.187l-0.062,-0.187l-0.062,-0.186l-0.064,-0.186l-0.065,-0.186l-0.065,-0.184l-0.067,-0.185l-0.068,-0.184l-0.069,-0.183l-0.071,-0.183l-0.071,-0.182l-0.072,-0.182l-0.074,-0.181l-0.074,-0.18l-0.076,-0.18l-0.076,-0.18l-0.078,-0.179l-0.079,-0.178l-0.079,-0.178l-0.081,-0.177l-0.082,-0.177l-0.083,-0.176l-0.084,-0.175l-0.085,-0.175l-0.086,-0.174l-0.087,-0.174l-0.088,-0.173l-0.089,-0.173l-0.09,-0.171l-0.091,-0.172l-0.092,-0.17l-0.093,-0.17l-0.094,-0.17l-0.095,-0.168l-0.096,-0.169l-0.097,-0.167l-0.098,-0.167l-0.099,-0.166l-0.1,-0.166l-0.101,-0.165l-0.102,-0.164l-0.103,-0.163l-0.104,-0.163l-0.105,-0.163l-0.105,-0.161l-0.107,-0.161l-0.108,-0.16l-0.108,-0.16l-0.11,-0.159l-0.11,-0.158l-0.111,-0.157l-0.113,-0.157l-0.113,-0.156l-0.114,-0.156l-0.115,-0.154l-0.116,-0.154l-0.116,-0.154l-0.118,-0.152l-0.119,-0.152l-0.119,-0.151l-0.12,-0.15l-0.122,-0.15l-0.122,-0.149l-0.123,-0.148l-0.124,-0.147l-0.124,-0.146l-0.126,-0.146l-0.126,-0.145l-0.128,-0.145l-0.128,-0.143l-0.129,-0.143l-0.129,-0.142l-0.131,-0.141l-0.132,-0.14l-0.132,-0.14l-0.133,-0.139l-0.134,-0.138l-0.135,-0.137l-0.135,-0.136l-0.137,-0.136l-0.137,-0.135l-0.138,-0.134l-0.139,-0.133l-0.139,-0.132l-0.141,-0.132l-0.141,-0.13l-0.142,-0.13l-0.143,-0.129l-0.143,-0.128l-0.144,-0.128l-0.146,-0.126l-0.145,-0.126l-0.147,-0.124l-0.147,-0.124l-0.148,-0.123l-0.149,-0.122l-0.15,-0.121l-0.15,-0.121l-0.151,-0.119l-0.152,-0.119l-0.152,-0.117l-0.154,-0.117l-0.153,-0.116l-0.155,-0.115l-0.156,-0.114l-0.156,-0.113l-0.156,-0.113l-0.158,-0.111l-0.158,-0.11l-0.159,-0.11l-0.159,-0.108l-0.161,-0.108l-0.161,-0.106l-0.161,-0.106l-0.162,-0.105l-0.163,-0.104l-0.164,-0.103l-0.164,-0.101l-0.165,-0.101l-0.166,-0.1l-0.166,-0.099l-0.167,-0.098l-0.167,-0.097l-0.168,-0.096l-0.169,-0.095l-0.17,-0.095l-0.17,-0.093l-0.17,-0.092l-0.171,-0.091l-0.172,-0.09l-0.173,-0.089l-0.173,-0.088l-0.174,-0.087l-0.174,-0.086l-0.175,-0.085l-0.175,-0.084l-0.176,-0.083l-0.177,-0.082l-0.177,-0.08l-0.178,-0.08l-0.178,-0.079l-0.179,-0.078l-0.18,-0.076l-0.18,-0.076l-0.18,-0.074l-0.181,-0.074l-0.182,-0.072l-0.182,-0.071l-0.183,-0.07l-0.183,-0.07l-0.184,-0.068l-0.184,-0.066l-0.185,-0.066l-0.186,-0.065l-0.185,-0.064l-0.187,-0.062l-0.187,-0.061l-0.187,-0.061l-0.188,-0.059l-0.189,-0.058l-0.188,-0.057l-0.19,-0.056l-0.19,-0.054l-0.19,-0.054l-0.191,-0.052l-0.191,-0.051l-0.192,-0.05l-0.192,-0.049l-0.193,-0.048l-0.193,-0.046l-0.194,-0.046l-0.194,-0.044l-0.194,-0.043l-0.195,-0.042l-0.195,-0.04l-0.196,-0.04l-0.196,-0.038l-0.197,-0.037l-0.197,-0.036l-0.197,-0.035l-0.198,-0.033l-0.199,-0.032l-0.198,-0.031l-0.199,-0.03l-0.2,-0.029l-0.2,-0.027l-0.2,-0.026l-0.201,-0.025l-0.201,-0.024l-0.201,-0.022l-0.202,-0.021l-0.202,-0.02l-0.202,-0.019l-0.203,-0.017l-0.203,-0.017l-0.204,-0.014l-0.204,-0.014l-0.204,-0.012l-0.205,-0.011l-0.205,-0.01l-0.205,-0.009l-0.206,-0.007l-0.206,-0.006l-0.206,-0.004l-0.206,-0.003l-0.207,-0.002l-0.207,-0.001l-0.208,0.001Z" style="fill:#fff;"/><path d="M466.297,315.236l0.257,0.002l0.257,0.004l0.257,0.006l0.256,0.007l0.255,0.009l0.256,0.011l0.255,0.012l0.255,0.013l0.255,0.016l0.253,0.017l0.254,0.018l0.253,0.02l0.253,0.022l0.252,0.023l0.252,0.025l0.252,0.026l0.251,0.028l0.251,0.03l0.25,0.031l0.249,0.032l0.25,0.035l0.249,0.035l0.248,0.038l0.248,0.038l0.248,0.041l0.247,0.041l0.246,0.044l0.246,0.044l0.245,0.047l0.246,0.047l0.244,0.05l0.244,0.051l0.244,0.052l0.243,0.054l0.242,0.055l0.242,0.056l0.241,0.059l0.241,0.059l0.239,0.061l0.24,0.063l0.239,0.064l0.239,0.065l0.237,0.067l0.238,0.068l0.236,0.07l0.236,0.071l0.236,0.072l0.235,0.074l0.233,0.075l0.234,0.077l0.233,0.078l0.232,0.079l0.231,0.081l0.232,0.083l0.23,0.083l0.229,0.085l0.229,0.086l0.228,0.088l0.228,0.089l0.227,0.09l0.226,0.092l0.226,0.093l0.225,0.094l0.223,0.096l0.224,0.097l0.223,0.098l0.221,0.1l0.222,0.101l0.221,0.102l0.219,0.103l0.219,0.105l0.219,0.107l0.217,0.107l0.217,0.108l0.216,0.11l0.215,0.111l0.214,0.113l0.214,0.113l0.213,0.115l0.212,0.116l0.211,0.117l0.211,0.119l0.21,0.12l0.208,0.121l0.208,0.122l0.208,0.124l0.206,0.124l0.206,0.126l0.205,0.127l0.204,0.129l0.203,0.129l0.202,0.131l0.202,0.131l0.2,0.133l0.2,0.134l0.199,0.136l0.198,0.136l0.197,0.138l0.196,0.138l0.195,0.14l0.195,0.141l0.193,0.142l0.193,0.144l0.192,0.144l0.191,0.146l0.19,0.146l0.189,0.148l0.188,0.149l0.187,0.149l0.187,0.152l0.185,0.151l0.185,0.154l0.184,0.155l0.182,0.155l0.181,0.156l0.181,0.157l0.18,0.159l0.179,0.159l0.178,0.161l0.176,0.162l0.175,0.162l0.176,0.164l0.174,0.165l0.173,0.166l0.171,0.166l0.171,0.168l0.17,0.17l0.169,0.169l0.168,0.171l0.167,0.172l0.165,0.173l0.165,0.173l0.164,0.176l0.163,0.175l0.161,0.177l0.161,0.178l0.16,0.179l0.158,0.179l0.157,0.181l0.157,0.182l0.155,0.182l0.154,0.183l0.154,0.185l0.152,0.186l0.151,0.186l0.15,0.187l0.149,0.188l0.148,0.19l0.146,0.189l0.145,0.191l0.145,0.192l0.143,0.193l0.142,0.194l0.141,0.194l0.14,0.195l0.139,0.197l0.137,0.197l0.137,0.198l0.135,0.198l0.134,0.201l0.133,0.2l0.132,0.201l0.13,0.203l0.13,0.203l0.128,0.204l0.127,0.205l0.126,0.205l0.125,0.207l0.123,0.207l0.122,0.208l0.121,0.209l0.12,0.209l0.119,0.211l0.117,0.212l0.116,0.212l0.115,0.212l0.113,0.214l0.113,0.215l0.112,0.215l0.109,0.216l0.109,0.217l0.107,0.217l0.106,0.218l0.105,0.219l0.104,0.221l0.102,0.22l0.1,0.22l0.1,0.223l0.098,0.223l0.097,0.222l0.096,0.225l0.094,0.225l0.093,0.225l0.092,0.226l0.09,0.227l0.089,0.228l0.088,0.229l0.086,0.228l0.085,0.23l0.084,0.231l0.082,0.23l0.081,0.231l0.079,0.232l0.078,0.234l0.077,0.233l0.075,0.234l0.074,0.235l0.073,0.235l0.071,0.236l0.07,0.237l0.068,0.237l0.067,0.238l0.065,0.239l0.064,0.238l0.062,0.24l0.061,0.24l0.06,0.24l0.058,0.242l0.057,0.242l0.055,0.242l0.054,0.243l0.052,0.243l0.051,0.244l0.049,0.245l0.048,0.245l0.046,0.245l0.045,0.246l0.043,0.247l0.042,0.247l0.04,0.248l0.039,0.247l0.037,0.249l0.036,0.249l0.034,0.249l0.033,0.25l0.031,0.25l0.029,0.25l0.028,0.252l0.026,0.251l0.025,0.252l0.023,0.252l0.022,0.253l0.02,0.254l0.019,0.253l0.017,0.254l0.015,0.255l0.014,0.254l0.012,0.256l0.01,0.254l0.009,0.256l0.008,0.257l0.005,0.256l0.004,0.257l0.003,0.258l0.001,0.257l-0.001,0.257l-0.003,0.257l-0.004,0.257l-0.005,0.256l-0.008,0.257l-0.009,0.256l-0.01,0.254l-0.012,0.256l-0.014,0.254l-0.015,0.255l-0.017,0.254l-0.019,0.253l-0.02,0.254l-0.022,0.253l-0.023,0.252l-0.025,0.252l-0.026,0.252l-0.028,0.251l-0.029,0.25l-0.031,0.25l-0.033,0.25l-0.034,0.25l-0.036,0.249l-0.037,0.248l-0.039,0.248l-0.04,0.248l-0.042,0.246l-0.043,0.247l-0.045,0.247l-0.046,0.244l-0.048,0.245l-0.049,0.245l-0.051,0.244l-0.052,0.243l-0.054,0.243l-0.055,0.242l-0.057,0.242l-0.058,0.242l-0.06,0.24l-0.061,0.24l-0.062,0.241l-0.064,0.237l-0.065,0.239l-0.067,0.238l-0.068,0.237l-0.07,0.237l-0.071,0.236l-0.073,0.235l-0.074,0.235l-0.075,0.234l-0.076,0.234l-0.079,0.233l-0.079,0.232l-0.081,0.232l-0.082,0.23l-0.083,0.23l-0.086,0.23l-0.086,0.229l-0.088,0.228l-0.089,0.228l-0.09,0.227l-0.092,0.226l-0.092,0.225l-0.095,0.225l-0.096,0.225l-0.096,0.222l-0.099,0.223l-0.1,0.223l-0.1,0.221l-0.102,0.22l-0.104,0.22l-0.105,0.219l-0.106,0.218l-0.107,0.218l-0.109,0.216l-0.109,0.216l-0.112,0.215l-0.112,0.215l-0.114,0.214l-0.115,0.212l-0.116,0.213l-0.117,0.211l-0.119,0.211l-0.12,0.209l-0.121,0.209l-0.122,0.208l-0.123,0.208l-0.125,0.206l-0.126,0.206l-0.127,0.204l-0.128,0.205l-0.13,0.203l-0.13,0.202l-0.132,0.201l-0.133,0.201l-0.134,0.2l-0.135,0.199l-0.137,0.197l-0.137,0.197l-0.139,0.197l-0.14,0.195l-0.141,0.195l-0.142,0.194l-0.143,0.192l-0.145,0.192l-0.145,0.191l-0.147,0.19l-0.147,0.189l-0.149,0.188l-0.15,0.187l-0.151,0.187l-0.152,0.185l-0.154,0.185l-0.154,0.183l-0.155,0.182l-0.157,0.182l-0.157,0.181l-0.159,0.18l-0.159,0.178l-0.161,0.178l-0.161,0.177l-0.163,0.175l-0.164,0.176l-0.165,0.173l-0.165,0.173l-0.167,0.172l-0.168,0.171l-0.169,0.17l-0.17,0.169l-0.171,0.168l-0.171,0.166l-0.173,0.166l-0.174,0.165l-0.175,0.164l-0.176,0.163l-0.177,0.161l-0.177,0.161l-0.179,0.159l-0.18,0.159l-0.181,0.157l-0.181,0.157l-0.183,0.155l-0.183,0.154l-0.185,0.154l-0.185,0.151l-0.186,0.151l-0.188,0.151l-0.188,0.148l-0.189,0.148l-0.19,0.147l-0.191,0.145l-0.191,0.144l-0.194,0.144l-0.193,0.142l-0.195,0.141l-0.195,0.14l-0.196,0.138l-0.197,0.138l-0.198,0.137l-0.2,0.135l-0.198,0.134l-0.201,0.133l-0.202,0.132l-0.202,0.13l-0.203,0.13l-0.204,0.128l-0.205,0.127l-0.206,0.126l-0.206,0.124l-0.208,0.124l-0.208,0.122l-0.208,0.121l-0.21,0.12l-0.211,0.119l-0.212,0.117l-0.211,0.116l-0.213,0.115l-0.214,0.114l-0.214,0.112l-0.215,0.111l-0.216,0.11l-0.217,0.109l-0.217,0.107l-0.219,0.106l-0.219,0.105l-0.22,0.103l-0.22,0.102l-0.222,0.101l-0.221,0.1l-0.223,0.098l-0.224,0.097l-0.223,0.096l-0.225,0.094l-0.226,0.093l-0.226,0.092l-0.227,0.09l-0.228,0.089l-0.228,0.088l-0.228,0.086l-0.23,0.085l-0.231,0.084l-0.23,0.082l-0.232,0.081l-0.233,0.079l-0.232,0.078l-0.234,0.077l-0.233,0.075l-0.235,0.074l-0.236,0.072l-0.236,0.071l-0.237,0.07l-0.237,0.069l-0.237,0.066l-0.239,0.066l-0.239,0.064l-0.239,0.062l-0.24,0.061l-0.241,0.06l-0.241,0.058l-0.242,0.057l-0.243,0.055l-0.242,0.053l-0.244,0.053l-0.244,0.05l-0.244,0.05l-0.245,0.047l-0.246,0.047l-0.246,0.045l-0.246,0.043l-0.247,0.042l-0.248,0.04l-0.248,0.039l-0.248,0.037l-0.249,0.036l-0.249,0.034l-0.25,0.032l-0.251,0.031l-0.25,0.03l-0.251,0.028l-0.252,0.026l-0.252,0.025l-0.252,0.023l-0.253,0.022l-0.253,0.02l-0.254,0.018l-0.254,0.017l-0.254,0.016l-0.255,0.013l-0.255,0.013l-0.255,0.01l-0.256,0.009l-0.257,0.007l-0.256,0.006l-0.257,0.004l-0.257,0.003l-0.257,0l-0.258,0l-0.257,-0.003l-0.257,-0.004l-0.256,-0.006l-0.256,-0.007l-0.256,-0.009l-0.255,-0.01l-0.255,-0.013l-0.255,-0.013l-0.254,-0.016l-0.254,-0.017l-0.254,-0.018l-0.253,-0.02l-0.253,-0.022l-0.253,-0.023l-0.251,-0.025l-0.252,-0.026l-0.251,-0.028l-0.251,-0.03l-0.25,-0.031l-0.25,-0.032l-0.249,-0.034l-0.249,-0.036l-0.248,-0.037l-0.249,-0.039l-0.247,-0.04l-0.247,-0.042l-0.247,-0.043l-0.246,-0.045l-0.245,-0.047l-0.245,-0.047l-0.245,-0.05l-0.243,-0.05l-0.244,-0.053l-0.243,-0.053l-0.242,-0.055l-0.242,-0.057l-0.241,-0.058l-0.241,-0.06l-0.24,-0.061l-0.24,-0.063l-0.238,-0.063l-0.239,-0.066l-0.237,-0.066l-0.237,-0.069l-0.238,-0.07l-0.236,-0.071l-0.235,-0.072l-0.235,-0.074l-0.234,-0.075l-0.233,-0.077l-0.233,-0.078l-0.232,-0.079l-0.232,-0.081l-0.231,-0.082l-0.23,-0.084l-0.23,-0.085l-0.229,-0.086l-0.228,-0.088l-0.227,-0.089l-0.227,-0.09l-0.226,-0.092l-0.226,-0.093l-0.225,-0.094l-0.224,-0.096l-0.224,-0.097l-0.222,-0.098l-0.222,-0.1l-0.221,-0.101l-0.221,-0.102l-0.22,-0.103l-0.219,-0.105l-0.218,-0.106l-0.217,-0.107l-0.217,-0.109l-0.216,-0.11l-0.215,-0.111l-0.215,-0.113l-0.213,-0.113l-0.213,-0.115l-0.212,-0.116l-0.212,-0.117l-0.21,-0.119l-0.21,-0.12l-0.209,-0.121l-0.208,-0.122l-0.207,-0.124l-0.207,-0.124l-0.205,-0.126l-0.205,-0.127l-0.204,-0.128l-0.203,-0.13l-0.202,-0.13l-0.202,-0.132l-0.2,-0.133l-0.2,-0.134l-0.199,-0.135l-0.198,-0.137l-0.197,-0.138l-0.196,-0.138l-0.196,-0.14l-0.194,-0.141l-0.194,-0.142l-0.193,-0.144l-0.191,-0.144l-0.192,-0.146l-0.19,-0.146l-0.188,-0.148l-0.188,-0.148l-0.188,-0.151l-0.186,-0.151l-0.186,-0.152l-0.184,-0.153l-0.183,-0.154l-0.183,-0.155l-0.182,-0.157l-0.181,-0.157l-0.179,-0.159l-0.179,-0.159l-0.178,-0.161l-0.176,-0.161l-0.177,-0.164l-0.174,-0.163l-0.174,-0.164l-0.173,-0.166l-0.172,-0.168l-0.171,-0.168l-0.17,-0.168l-0.168,-0.17l-0.168,-0.17l-0.167,-0.172l-0.166,-0.174l-0.165,-0.174l-0.163,-0.174l-0.163,-0.176l-0.162,-0.177l-0.161,-0.178l-0.159,-0.178l-0.158,-0.18l-0.158,-0.181l-0.156,-0.181l-0.156,-0.183l-0.154,-0.184l-0.153,-0.184l-0.152,-0.185l-0.151,-0.187l-0.15,-0.186l-0.149,-0.189l-0.148,-0.189l-0.146,-0.191l-0.146,-0.19l-0.144,-0.192l-0.144,-0.193l-0.141,-0.193l-0.141,-0.195l-0.14,-0.194l-0.139,-0.198l-0.138,-0.197l-0.136,-0.197l-0.136,-0.2l-0.133,-0.199l-0.133,-0.201l-0.132,-0.201l-0.131,-0.202l-0.129,-0.203l-0.128,-0.204l-0.128,-0.205l-0.126,-0.207l-0.124,-0.205l-0.123,-0.207l-0.123,-0.209l-0.121,-0.209l-0.12,-0.21l-0.118,-0.21l-0.117,-0.211l-0.116,-0.212l-0.116,-0.214l-0.113,-0.213l-0.113,-0.215l-0.11,-0.214l-0.111,-0.217l-0.108,-0.216l-0.108,-0.218l-0.106,-0.219l-0.104,-0.218l-0.103,-0.219l-0.103,-0.221l-0.101,-0.222l-0.099,-0.221l-0.099,-0.223l-0.097,-0.224l-0.096,-0.225l-0.093,-0.223l-0.094,-0.226l-0.092,-0.227l-0.09,-0.226l-0.089,-0.228l-0.087,-0.228l-0.087,-0.229l-0.085,-0.23l-0.083,-0.229l-0.082,-0.231l-0.081,-0.232l-0.08,-0.233l-0.078,-0.232l-0.076,-0.233l-0.076,-0.236l-0.074,-0.234l-0.072,-0.235l-0.071,-0.237l-0.07,-0.235l-0.068,-0.238l-0.067,-0.238l-0.065,-0.238l-0.064,-0.239l-0.063,-0.24l-0.061,-0.24l-0.059,-0.241l-0.058,-0.241l-0.057,-0.241l-0.055,-0.242l-0.054,-0.244l-0.052,-0.243l-0.051,-0.245l-0.049,-0.244l-0.048,-0.244l-0.046,-0.246l-0.045,-0.246l-0.043,-0.247l-0.042,-0.246l-0.04,-0.247l-0.039,-0.249l-0.037,-0.248l-0.036,-0.249l-0.034,-0.25l-0.033,-0.249l-0.031,-0.251l-0.029,-0.251l-0.028,-0.25l-0.027,-0.252l-0.024,-0.252l-0.024,-0.252l-0.021,-0.254l-0.021,-0.252l-0.018,-0.254l-0.017,-0.254l-0.015,-0.255l-0.014,-0.254l-0.012,-0.255l-0.011,-0.256l-0.009,-0.255l-0.007,-0.256l-0.006,-0.258l-0.004,-0.256l-0.002,-0.256l-0.001,-0.258l0.001,-0.258l0.002,-0.257l0.004,-0.256l0.006,-0.257l0.007,-0.257l0.009,-0.255l0.011,-0.256l0.012,-0.255l0.014,-0.254l0.015,-0.255l0.017,-0.254l0.018,-0.254l0.021,-0.252l0.021,-0.254l0.024,-0.252l0.024,-0.252l0.027,-0.251l0.028,-0.251l0.029,-0.251l0.031,-0.251l0.033,-0.249l0.034,-0.249l0.036,-0.249l0.037,-0.249l0.039,-0.248l0.04,-0.247l0.042,-0.247l0.043,-0.246l0.045,-0.246l0.046,-0.247l0.048,-0.244l0.049,-0.244l0.051,-0.245l0.052,-0.243l0.054,-0.244l0.055,-0.242l0.057,-0.241l0.058,-0.241l0.059,-0.241l0.061,-0.24l0.063,-0.239l0.064,-0.24l0.065,-0.238l0.067,-0.238l0.068,-0.238l0.07,-0.235l0.071,-0.237l0.072,-0.235l0.074,-0.234l0.076,-0.236l0.076,-0.232l0.078,-0.233l0.08,-0.233l0.081,-0.231l0.082,-0.231l0.083,-0.23l0.085,-0.23l0.087,-0.229l0.087,-0.228l0.089,-0.228l0.09,-0.226l0.092,-0.227l0.094,-0.226l0.093,-0.223l0.096,-0.225l0.098,-0.224l0.098,-0.223l0.099,-0.221l0.101,-0.221l0.102,-0.221l0.104,-0.22l0.104,-0.219l0.106,-0.218l0.108,-0.217l0.108,-0.217l0.111,-0.216l0.111,-0.215l0.112,-0.215l0.113,-0.213l0.116,-0.214l0.116,-0.212l0.117,-0.211l0.118,-0.21l0.12,-0.209l0.121,-0.21l0.123,-0.209l0.123,-0.206l0.124,-0.206l0.126,-0.206l0.128,-0.205l0.128,-0.204l0.129,-0.203l0.131,-0.203l0.132,-0.201l0.133,-0.201l0.133,-0.199l0.136,-0.199l0.136,-0.198l0.138,-0.197l0.139,-0.197l0.14,-0.195l0.14,-0.194l0.142,-0.194l0.144,-0.193l0.144,-0.192l0.146,-0.19l0.146,-0.19l0.148,-0.19l0.149,-0.188l0.15,-0.187l0.151,-0.186l0.152,-0.186l0.153,-0.184l0.154,-0.184l0.156,-0.183l0.156,-0.181l0.158,-0.181l0.158,-0.179l0.159,-0.179l0.161,-0.178l0.163,-0.177l0.162,-0.176l0.163,-0.174l0.165,-0.174l0.166,-0.173l0.167,-0.172l0.168,-0.171l0.168,-0.169l0.17,-0.169l0.171,-0.168l0.172,-0.167l0.173,-0.166l0.174,-0.165l0.175,-0.164l0.176,-0.162l0.176,-0.162l0.178,-0.161l0.179,-0.159l0.179,-0.158l0.182,-0.158l0.181,-0.156l0.182,-0.156l0.184,-0.154l0.184,-0.153l0.186,-0.152l0.186,-0.152l0.188,-0.15l0.188,-0.148l0.188,-0.148l0.19,-0.146l0.192,-0.146l0.192,-0.144l0.192,-0.143l0.194,-0.143l0.194,-0.141l0.196,-0.14l0.196,-0.138l0.197,-0.138l0.198,-0.136l0.198,-0.135l0.201,-0.135l0.2,-0.133l0.201,-0.131l0.203,-0.131l0.203,-0.129l0.204,-0.129l0.205,-0.127l0.205,-0.125l0.207,-0.125l0.207,-0.124l0.208,-0.122l0.209,-0.121l0.21,-0.12l0.211,-0.119l0.211,-0.117l0.212,-0.116l0.213,-0.115l0.213,-0.113l0.215,-0.113l0.215,-0.111l0.216,-0.11l0.217,-0.108l0.217,-0.108l0.219,-0.106l0.218,-0.104l0.22,-0.104l0.221,-0.102l0.221,-0.101l0.222,-0.1l0.222,-0.098l0.224,-0.097l0.224,-0.096l0.225,-0.094l0.226,-0.093l0.226,-0.092l0.227,-0.09l0.227,-0.089l0.228,-0.088l0.23,-0.086l0.229,-0.085l0.23,-0.083l0.231,-0.083l0.232,-0.08l0.232,-0.08l0.233,-0.078l0.233,-0.077l0.234,-0.075l0.235,-0.074l0.236,-0.072l0.236,-0.071l0.236,-0.07l0.237,-0.068l0.238,-0.067l0.239,-0.065l0.238,-0.064l0.24,-0.063l0.24,-0.061l0.24,-0.059l0.242,-0.059l0.242,-0.056l0.242,-0.055l0.243,-0.054l0.244,-0.053l0.243,-0.05l0.245,-0.05l0.245,-0.047l0.245,-0.047l0.246,-0.044l0.247,-0.044l0.247,-0.041l0.247,-0.041l0.248,-0.038l0.249,-0.038l0.249,-0.035l0.25,-0.035l0.249,-0.032l0.25,-0.031l0.25,-0.03l0.252,-0.028l0.252,-0.026l0.252,-0.025l0.252,-0.023l0.253,-0.022l0.253,-0.02l0.254,-0.018l0.253,-0.017l0.255,-0.016l0.255,-0.013l0.254,-0.012l0.256,-0.011l0.256,-0.009l0.256,-0.007l0.256,-0.006l0.257,-0.004l0.258,-0.002l0.257,-0.001l0.257,0.001Zm-0.464,7.924l-0.207,0.002l-0.207,0.003l-0.206,0.004l-0.206,0.006l-0.206,0.007l-0.205,0.009l-0.205,0.01l-0.204,0.011l-0.205,0.012l-0.204,0.014l-0.203,0.014l-0.203,0.017l-0.203,0.017l-0.203,0.019l-0.202,0.02l-0.202,0.021l-0.201,0.022l-0.201,0.024l-0.201,0.025l-0.2,0.026l-0.2,0.027l-0.199,0.029l-0.199,0.03l-0.199,0.031l-0.198,0.032l-0.198,0.033l-0.198,0.035l-0.197,0.036l-0.196,0.037l-0.197,0.038l-0.195,0.04l-0.196,0.04l-0.195,0.042l-0.194,0.043l-0.194,0.044l-0.194,0.046l-0.193,0.046l-0.192,0.048l-0.193,0.049l-0.191,0.05l-0.192,0.051l-0.191,0.052l-0.19,0.054l-0.19,0.054l-0.189,0.056l-0.189,0.057l-0.188,0.058l-0.188,0.059l-0.188,0.061l-0.187,0.061l-0.186,0.062l-0.186,0.064l-0.185,0.065l-0.185,0.066l-0.185,0.066l-0.183,0.068l-0.184,0.07l-0.182,0.07l-0.183,0.071l-0.181,0.072l-0.181,0.074l-0.181,0.074l-0.18,0.076l-0.18,0.076l-0.178,0.078l-0.179,0.079l-0.178,0.08l-0.177,0.08l-0.176,0.082l-0.176,0.083l-0.176,0.084l-0.175,0.085l-0.174,0.086l-0.174,0.087l-0.173,0.088l-0.172,0.089l-0.172,0.09l-0.171,0.091l-0.171,0.092l-0.17,0.093l-0.169,0.095l-0.169,0.095l-0.168,0.096l-0.168,0.097l-0.167,0.098l-0.166,0.099l-0.165,0.1l-0.165,0.101l-0.165,0.101l-0.163,0.103l-0.163,0.104l-0.162,0.105l-0.162,0.106l-0.161,0.106l-0.16,0.108l-0.16,0.108l-0.159,0.11l-0.158,0.11l-0.157,0.111l-0.157,0.113l-0.156,0.113l-0.155,0.114l-0.155,0.115l-0.154,0.116l-0.153,0.117l-0.153,0.117l-0.152,0.119l-0.151,0.119l-0.15,0.121l-0.149,0.121l-0.149,0.122l-0.148,0.123l-0.148,0.124l-0.146,0.124l-0.146,0.126l-0.145,0.126l-0.144,0.128l-0.144,0.128l-0.143,0.129l-0.142,0.13l-0.141,0.13l-0.14,0.132l-0.14,0.132l-0.139,0.133l-0.138,0.134l-0.137,0.135l-0.136,0.136l-0.136,0.136l-0.135,0.137l-0.134,0.138l-0.133,0.139l-0.132,0.14l-0.131,0.14l-0.131,0.141l-0.13,0.142l-0.129,0.143l-0.128,0.143l-0.127,0.145l-0.127,0.145l-0.125,0.146l-0.125,0.146l-0.124,0.147l-0.123,0.148l-0.122,0.149l-0.121,0.15l-0.12,0.15l-0.12,0.151l-0.119,0.152l-0.117,0.152l-0.117,0.154l-0.116,0.154l-0.115,0.154l-0.114,0.156l-0.113,0.156l-0.112,0.157l-0.112,0.157l-0.11,0.158l-0.109,0.159l-0.109,0.16l-0.108,0.16l-0.106,0.161l-0.106,0.161l-0.105,0.163l-0.103,0.163l-0.103,0.163l-0.102,0.164l-0.101,0.165l-0.1,0.166l-0.099,0.166l-0.098,0.167l-0.097,0.167l-0.096,0.169l-0.095,0.168l-0.094,0.17l-0.093,0.17l-0.092,0.17l-0.092,0.172l-0.09,0.171l-0.089,0.173l-0.088,0.173l-0.087,0.174l-0.086,0.174l-0.085,0.175l-0.084,0.175l-0.083,0.176l-0.081,0.177l-0.081,0.177l-0.08,0.178l-0.079,0.178l-0.077,0.179l-0.077,0.18l-0.076,0.18l-0.074,0.18l-0.073,0.181l-0.073,0.182l-0.071,0.182l-0.07,0.183l-0.069,0.183l-0.068,0.184l-0.067,0.185l-0.066,0.184l-0.065,0.186l-0.063,0.186l-0.063,0.186l-0.061,0.187l-0.06,0.187l-0.06,0.188l-0.058,0.189l-0.057,0.189l-0.055,0.189l-0.055,0.19l-0.053,0.19l-0.053,0.191l-0.051,0.191l-0.05,0.192l-0.049,0.192l-0.047,0.193l-0.047,0.193l-0.045,0.194l-0.045,0.194l-0.043,0.194l-0.041,0.195l-0.041,0.195l-0.04,0.196l-0.038,0.196l-0.037,0.197l-0.036,0.197l-0.034,0.198l-0.034,0.197l-0.032,0.199l-0.031,0.198l-0.03,0.199l-0.029,0.2l-0.027,0.2l-0.026,0.2l-0.025,0.201l-0.024,0.201l-0.022,0.201l-0.021,0.202l-0.02,0.202l-0.019,0.203l-0.017,0.202l-0.016,0.204l-0.015,0.203l-0.014,0.204l-0.012,0.204l-0.011,0.205l-0.01,0.205l-0.008,0.205l-0.007,0.206l-0.006,0.206l-0.005,0.206l-0.003,0.207l-0.002,0.206l-0.001,0.208l0.001,0.207l0.002,0.207l0.003,0.206l0.005,0.206l0.006,0.206l0.007,0.206l0.008,0.205l0.01,0.205l0.011,0.205l0.012,0.204l0.014,0.204l0.015,0.204l0.016,0.203l0.017,0.203l0.019,0.202l0.02,0.202l0.021,0.202l0.022,0.201l0.024,0.201l0.025,0.201l0.026,0.2l0.027,0.2l0.029,0.2l0.03,0.199l0.031,0.198l0.032,0.199l0.034,0.198l0.034,0.197l0.036,0.197l0.037,0.197l0.038,0.196l0.04,0.196l0.041,0.195l0.041,0.195l0.043,0.194l0.045,0.194l0.045,0.194l0.047,0.193l0.047,0.193l0.049,0.192l0.05,0.192l0.051,0.191l0.053,0.191l0.053,0.19l0.055,0.19l0.055,0.19l0.057,0.188l0.058,0.189l0.06,0.188l0.06,0.187l0.061,0.187l0.063,0.187l0.063,0.185l0.065,0.186l0.066,0.185l0.067,0.184l0.068,0.184l0.069,0.183l0.07,0.183l0.071,0.182l0.073,0.182l0.073,0.181l0.074,0.18l0.076,0.181l0.077,0.179l0.077,0.179l0.079,0.178l0.08,0.178l0.081,0.177l0.081,0.177l0.083,0.176l0.084,0.175l0.085,0.175l0.086,0.174l0.087,0.174l0.088,0.173l0.089,0.173l0.09,0.172l0.092,0.171l0.092,0.17l0.093,0.17l0.094,0.17l0.095,0.169l0.096,0.168l0.097,0.167l0.098,0.167l0.099,0.166l0.1,0.166l0.101,0.165l0.102,0.164l0.103,0.164l0.103,0.163l0.105,0.162l0.106,0.161l0.106,0.161l0.108,0.161l0.109,0.159l0.109,0.159l0.11,0.158l0.112,0.158l0.112,0.156l0.113,0.157l0.114,0.155l0.115,0.155l0.116,0.153l0.117,0.154l0.117,0.152l0.119,0.152l0.12,0.151l0.12,0.15l0.121,0.15l0.122,0.149l0.123,0.148l0.124,0.147l0.125,0.147l0.125,0.145l0.127,0.146l0.127,0.144l0.128,0.143l0.129,0.143l0.13,0.142l0.131,0.141l0.131,0.141l0.132,0.139l0.133,0.139l0.134,0.138l0.135,0.137l0.136,0.137l0.136,0.135l0.137,0.135l0.138,0.134l0.139,0.133l0.14,0.132l0.14,0.132l0.141,0.131l0.142,0.129l0.143,0.129l0.144,0.128l0.144,0.128l0.145,0.126l0.146,0.126l0.146,0.124l0.148,0.124l0.148,0.123l0.149,0.122l0.149,0.122l0.15,0.12l0.151,0.119l0.152,0.119l0.153,0.118l0.153,0.116l0.154,0.116l0.155,0.115l0.155,0.114l0.156,0.113l0.157,0.113l0.157,0.111l0.158,0.11l0.159,0.11l0.16,0.108l0.16,0.108l0.161,0.107l0.162,0.105l0.162,0.105l0.163,0.104l0.163,0.103l0.165,0.102l0.165,0.101l0.165,0.1l0.166,0.099l0.167,0.098l0.168,0.097l0.168,0.096l0.169,0.095l0.169,0.094l0.17,0.093l0.171,0.092l0.171,0.091l0.172,0.09l0.172,0.089l0.173,0.088l0.174,0.087l0.174,0.086l0.175,0.085l0.176,0.084l0.176,0.083l0.176,0.082l0.177,0.081l0.178,0.079l0.179,0.079l0.178,0.078l0.18,0.076l0.18,0.076l0.181,0.074l0.181,0.074l0.181,0.072l0.183,0.071l0.182,0.071l0.184,0.069l0.183,0.068l0.185,0.067l0.185,0.065l0.185,0.065l0.186,0.064l0.186,0.062l0.187,0.062l0.188,0.06l0.188,0.059l0.188,0.058l0.189,0.057l0.189,0.056l0.19,0.054l0.19,0.054l0.191,0.052l0.192,0.051l0.191,0.05l0.193,0.049l0.192,0.048l0.193,0.046l0.194,0.046l0.194,0.044l0.194,0.043l0.195,0.042l0.196,0.041l0.195,0.039l0.197,0.038l0.196,0.037l0.197,0.036l0.198,0.035l0.198,0.033l0.198,0.033l0.199,0.031l0.199,0.029l0.199,0.029l0.2,0.027l0.2,0.027l0.201,0.024l0.201,0.024l0.201,0.022l0.202,0.022l0.202,0.02l0.203,0.018l0.203,0.018l0.203,0.016l0.203,0.015l0.204,0.013l0.205,0.012l0.204,0.012l0.205,0.009l0.205,0.009l0.206,0.007l0.206,0.006l0.206,0.004l0.207,0.004l0.207,0.002l0.207,0l0.207,0l0.207,-0.002l0.206,-0.004l0.207,-0.004l0.206,-0.006l0.205,-0.007l0.205,-0.009l0.205,-0.009l0.205,-0.012l0.204,-0.012l0.204,-0.013l0.204,-0.015l0.203,-0.016l0.203,-0.018l0.202,-0.018l0.202,-0.02l0.202,-0.022l0.202,-0.022l0.201,-0.024l0.2,-0.024l0.201,-0.027l0.199,-0.027l0.2,-0.029l0.199,-0.029l0.199,-0.031l0.198,-0.033l0.198,-0.033l0.197,-0.035l0.197,-0.036l0.197,-0.037l0.196,-0.038l0.196,-0.039l0.195,-0.041l0.195,-0.042l0.195,-0.043l0.194,-0.044l0.193,-0.046l0.193,-0.046l0.193,-0.048l0.192,-0.049l0.192,-0.05l0.191,-0.051l0.191,-0.052l0.191,-0.054l0.189,-0.054l0.19,-0.056l0.189,-0.057l0.188,-0.058l0.188,-0.059l0.187,-0.06l0.187,-0.062l0.187,-0.062l0.186,-0.064l0.185,-0.065l0.185,-0.065l0.184,-0.067l0.184,-0.068l0.183,-0.069l0.183,-0.071l0.182,-0.071l0.182,-0.072l0.181,-0.074l0.181,-0.074l0.18,-0.076l0.179,-0.076l0.179,-0.078l0.178,-0.079l0.178,-0.079l0.177,-0.081l0.177,-0.082l0.176,-0.083l0.176,-0.084l0.174,-0.085l0.175,-0.086l0.173,-0.087l0.173,-0.088l0.173,-0.089l0.172,-0.09l0.171,-0.091l0.171,-0.092l0.17,-0.093l0.169,-0.094l0.169,-0.095l0.168,-0.096l0.168,-0.097l0.166,-0.098l0.167,-0.099l0.165,-0.1l0.165,-0.101l0.164,-0.102l0.164,-0.103l0.163,-0.104l0.162,-0.105l0.162,-0.105l0.161,-0.107l0.16,-0.108l0.159,-0.108l0.159,-0.11l0.158,-0.11l0.158,-0.111l0.157,-0.113l0.156,-0.113l0.155,-0.114l0.155,-0.115l0.154,-0.116l0.153,-0.116l0.152,-0.118l0.152,-0.119l0.151,-0.119l0.151,-0.12l0.149,-0.122l0.149,-0.122l0.148,-0.123l0.147,-0.124l0.147,-0.124l0.146,-0.126l0.145,-0.126l0.144,-0.128l0.144,-0.128l0.142,-0.129l0.142,-0.129l0.141,-0.131l0.141,-0.132l0.139,-0.132l0.139,-0.133l0.138,-0.134l0.137,-0.135l0.137,-0.135l0.135,-0.137l0.135,-0.137l0.134,-0.138l0.133,-0.139l0.133,-0.139l0.131,-0.141l0.131,-0.141l0.13,-0.142l0.129,-0.143l0.128,-0.143l0.127,-0.144l0.126,-0.146l0.126,-0.145l0.125,-0.147l0.124,-0.147l0.123,-0.148l0.122,-0.149l0.121,-0.15l0.12,-0.15l0.12,-0.151l0.118,-0.152l0.118,-0.152l0.117,-0.154l0.116,-0.153l0.114,-0.155l0.115,-0.155l0.113,-0.157l0.112,-0.156l0.111,-0.158l0.111,-0.158l0.109,-0.159l0.109,-0.159l0.107,-0.161l0.107,-0.161l0.106,-0.161l0.104,-0.162l0.104,-0.163l0.103,-0.164l0.102,-0.164l0.101,-0.165l0.1,-0.166l0.099,-0.166l0.098,-0.167l0.097,-0.167l0.096,-0.168l0.095,-0.169l0.094,-0.17l0.093,-0.17l0.092,-0.17l0.091,-0.171l0.09,-0.172l0.089,-0.173l0.088,-0.173l0.087,-0.174l0.086,-0.174l0.085,-0.175l0.084,-0.175l0.083,-0.176l0.082,-0.177l0.081,-0.177l0.08,-0.178l0.078,-0.178l0.078,-0.179l0.077,-0.179l0.075,-0.181l0.075,-0.18l0.073,-0.181l0.072,-0.182l0.072,-0.182l0.07,-0.183l0.069,-0.183l0.068,-0.184l0.067,-0.184l0.066,-0.185l0.064,-0.186l0.064,-0.185l0.063,-0.187l0.061,-0.187l0.06,-0.187l0.059,-0.188l0.058,-0.189l0.057,-0.188l0.056,-0.19l0.055,-0.19l0.053,-0.19l0.052,-0.191l0.052,-0.191l0.05,-0.192l0.048,-0.192l0.048,-0.193l0.047,-0.193l0.045,-0.194l0.044,-0.194l0.043,-0.194l0.042,-0.195l0.041,-0.195l0.039,-0.196l0.039,-0.196l0.037,-0.197l0.035,-0.197l0.035,-0.197l0.034,-0.198l0.032,-0.199l0.031,-0.198l0.03,-0.199l0.028,-0.2l0.028,-0.2l0.026,-0.2l0.025,-0.201l0.023,-0.201l0.023,-0.201l0.021,-0.202l0.02,-0.202l0.018,-0.202l0.018,-0.203l0.016,-0.203l0.015,-0.204l0.013,-0.204l0.013,-0.204l0.011,-0.205l0.01,-0.205l0.008,-0.205l0.007,-0.206l0.006,-0.206l0.005,-0.206l0.003,-0.206l0.002,-0.207l0.001,-0.207l-0.001,-0.208l-0.002,-0.206l-0.003,-0.207l-0.005,-0.206l-0.006,-0.206l-0.007,-0.206l-0.008,-0.205l-0.01,-0.205l-0.011,-0.205l-0.013,-0.204l-0.013,-0.204l-0.015,-0.203l-0.016,-0.204l-0.018,-0.202l-0.018,-0.203l-0.02,-0.202l-0.021,-0.202l-0.023,-0.201l-0.023,-0.201l-0.025,-0.201l-0.026,-0.2l-0.028,-0.2l-0.028,-0.2l-0.03,-0.199l-0.031,-0.198l-0.032,-0.199l-0.034,-0.197l-0.035,-0.198l-0.035,-0.197l-0.037,-0.197l-0.039,-0.196l-0.039,-0.196l-0.041,-0.195l-0.042,-0.195l-0.043,-0.194l-0.044,-0.194l-0.045,-0.194l-0.047,-0.193l-0.048,-0.193l-0.048,-0.192l-0.05,-0.192l-0.052,-0.191l-0.052,-0.191l-0.053,-0.19l-0.055,-0.19l-0.056,-0.189l-0.057,-0.189l-0.058,-0.189l-0.059,-0.188l-0.06,-0.187l-0.061,-0.187l-0.063,-0.186l-0.064,-0.186l-0.064,-0.186l-0.066,-0.184l-0.067,-0.185l-0.068,-0.184l-0.069,-0.183l-0.07,-0.183l-0.072,-0.182l-0.072,-0.182l-0.073,-0.181l-0.075,-0.18l-0.075,-0.18l-0.077,-0.18l-0.078,-0.179l-0.078,-0.178l-0.08,-0.178l-0.081,-0.177l-0.082,-0.177l-0.083,-0.176l-0.084,-0.175l-0.085,-0.175l-0.086,-0.174l-0.087,-0.174l-0.088,-0.173l-0.089,-0.173l-0.09,-0.171l-0.091,-0.172l-0.092,-0.17l-0.093,-0.17l-0.094,-0.17l-0.095,-0.168l-0.096,-0.169l-0.097,-0.167l-0.098,-0.167l-0.099,-0.166l-0.1,-0.166l-0.101,-0.165l-0.102,-0.164l-0.103,-0.163l-0.104,-0.163l-0.104,-0.163l-0.106,-0.161l-0.107,-0.161l-0.107,-0.16l-0.109,-0.16l-0.109,-0.159l-0.111,-0.158l-0.111,-0.157l-0.112,-0.157l-0.113,-0.156l-0.115,-0.156l-0.114,-0.154l-0.116,-0.154l-0.117,-0.154l-0.118,-0.152l-0.118,-0.152l-0.12,-0.151l-0.12,-0.15l-0.121,-0.15l-0.122,-0.149l-0.123,-0.148l-0.124,-0.147l-0.125,-0.146l-0.126,-0.146l-0.126,-0.145l-0.127,-0.145l-0.128,-0.143l-0.129,-0.143l-0.13,-0.142l-0.131,-0.141l-0.131,-0.14l-0.133,-0.14l-0.133,-0.139l-0.134,-0.138l-0.135,-0.137l-0.135,-0.136l-0.137,-0.136l-0.137,-0.135l-0.138,-0.134l-0.139,-0.133l-0.139,-0.132l-0.141,-0.132l-0.141,-0.13l-0.142,-0.13l-0.142,-0.129l-0.144,-0.128l-0.144,-0.128l-0.145,-0.126l-0.146,-0.126l-0.147,-0.124l-0.147,-0.124l-0.148,-0.123l-0.149,-0.122l-0.149,-0.121l-0.151,-0.121l-0.151,-0.119l-0.152,-0.119l-0.152,-0.117l-0.153,-0.117l-0.154,-0.116l-0.155,-0.115l-0.155,-0.114l-0.156,-0.113l-0.157,-0.113l-0.158,-0.111l-0.158,-0.11l-0.159,-0.11l-0.159,-0.108l-0.16,-0.108l-0.161,-0.106l-0.162,-0.106l-0.162,-0.105l-0.163,-0.104l-0.164,-0.103l-0.164,-0.101l-0.165,-0.101l-0.165,-0.1l-0.167,-0.099l-0.166,-0.098l-0.168,-0.097l-0.168,-0.096l-0.169,-0.095l-0.169,-0.095l-0.17,-0.093l-0.171,-0.092l-0.171,-0.091l-0.172,-0.09l-0.173,-0.089l-0.173,-0.088l-0.173,-0.087l-0.175,-0.086l-0.174,-0.085l-0.176,-0.084l-0.176,-0.083l-0.177,-0.082l-0.177,-0.08l-0.178,-0.08l-0.178,-0.079l-0.179,-0.078l-0.179,-0.076l-0.18,-0.076l-0.181,-0.074l-0.181,-0.074l-0.182,-0.072l-0.182,-0.071l-0.183,-0.07l-0.183,-0.07l-0.184,-0.068l-0.184,-0.066l-0.185,-0.066l-0.185,-0.065l-0.186,-0.064l-0.187,-0.062l-0.187,-0.061l-0.187,-0.061l-0.188,-0.059l-0.188,-0.058l-0.189,-0.057l-0.19,-0.056l-0.189,-0.054l-0.191,-0.054l-0.191,-0.052l-0.191,-0.051l-0.192,-0.05l-0.192,-0.049l-0.193,-0.048l-0.193,-0.046l-0.193,-0.046l-0.194,-0.044l-0.195,-0.043l-0.195,-0.042l-0.195,-0.04l-0.196,-0.04l-0.196,-0.038l-0.197,-0.037l-0.197,-0.036l-0.197,-0.035l-0.198,-0.033l-0.198,-0.032l-0.199,-0.031l-0.199,-0.03l-0.2,-0.029l-0.199,-0.027l-0.201,-0.026l-0.2,-0.025l-0.201,-0.024l-0.202,-0.022l-0.202,-0.021l-0.202,-0.02l-0.202,-0.019l-0.203,-0.017l-0.203,-0.017l-0.204,-0.014l-0.204,-0.014l-0.204,-0.012l-0.205,-0.011l-0.205,-0.01l-0.205,-0.009l-0.205,-0.007l-0.206,-0.006l-0.207,-0.004l-0.206,-0.003l-0.207,-0.002l-0.207,-0.001l-0.207,0.001Z" style="fill:#fff;"/><path d="M338.528,124.505l128.157,176.202" style="fill:none;stroke:#fff;stroke-width:5px;"/><rect x="403.211" y="14.408" width="69.418" height="15.599" style="fill:#fff;"/><g><g><rect x="335.487" y="154.588" width="77.599" height="15.599" style="fill:#fff;"/><path d="M412.505,154.588c3.712,0 6.725,3.494 6.725,7.799c0,4.305 -3.013,7.8 -6.725,7.8c-3.711,0 -3.711,-15.599 0,-15.599Z" style="fill:#fff;"/></g><g><rect x="275.489" y="154.588" width="77.599" height="15.599" style="fill:#fff;"/><path d="M276.069,154.588c-3.711,0 -6.724,3.494 -6.724,7.799c0,4.305 3.013,7.8 6.724,7.8c3.712,0 3.712,-15.599 0,-15.599Z" style="fill:#fff;"/></g></g><g><g><rect x="335.487" y="154.588" width="77.599" height="15.599" style="fill:#fff;"/><path d="M412.505,154.588c3.712,0 6.725,3.494 6.725,7.799c0,4.305 -3.013,7.8 -6.725,7.8c-3.711,0 -3.711,-15.599 0,-15.599Z" style="fill:#fff;"/></g><g><rect x="275.489" y="154.588" width="77.599" height="15.599" style="fill:#fff;"/><path d="M276.069,154.588c-3.711,0 -6.724,3.494 -6.724,7.799c0,4.305 3.013,7.8 6.724,7.8c3.712,0 3.712,-15.599 0,-15.599Z" style="fill:#fff;"/></g></g><g><g><path d="M473.035,355.905l0,-29.825l-15.599,0l0,29.825l15.599,0Z" style="fill:#fff;"/><path d="M473.035,355.324c0,3.712 -3.495,6.725 -7.8,6.725c-4.305,0 -7.799,-3.013 -7.799,-6.725c0,-3.711 15.599,-3.711 15.599,0Z" style="fill:#fff;"/></g><g><path d="M473.035,298.347l0,29.825l-15.599,0l0,-29.825l15.599,0Z" style="fill:#fff;"/><path d="M473.035,298.927c0,-3.711 -3.495,-6.724 -7.8,-6.724c-4.305,0 -7.799,3.013 -7.799,6.724c0,3.712 15.599,3.712 15.599,0Z" style="fill:#fff;"/></g></g><g><g><path d="M248.536,357.705l7.211,-28.941l-15.136,-3.771l-7.211,28.94l15.136,3.772Z" style="fill:#fff;"/><path d="M248.677,357.141c-0.898,3.602 -5.017,5.68 -9.194,4.64c-4.177,-1.041 -6.84,-4.81 -5.942,-8.411c0.897,-3.601 16.033,0.17 15.136,3.771Z" style="fill:#fff;"/></g><g><path d="M261.102,307.338l-7.211,28.94l-15.137,-3.771l7.212,-28.941l15.136,3.772Z" style="fill:#fff;"/><path d="M260.961,307.901c0.898,-3.601 -1.765,-7.37 -5.942,-8.411c-4.177,-1.04 -8.296,1.038 -9.194,4.64c-0.897,3.601 14.239,7.372 15.136,3.771Z" style="fill:#fff;"/></g></g><path d="M403.211,11.361l0,5.543l8.696,0l0,-5.543l-8.696,0Z" style="fill:#fff;"/><path d="M471.844,14.408c5.02,0 9.096,3.495 9.096,7.799c0,4.305 -4.076,7.8 -9.096,7.8c-5.021,0 -5.021,-15.599 0,-15.599Z" style="fill:#fff;"/><path d="M468.687,43.067l-55.978,-12.021l-2.502,10.26l55.978,12.021l2.502,-10.26Z" style="fill:#fff;"/><path d="M468.129,42.947c3.568,0.766 5.904,3.687 5.214,6.518c-0.691,2.831 -4.148,4.508 -7.716,3.742c-3.567,-0.766 -1.066,-11.026 2.502,-10.26Z" style="fill:#fff;"/><path d="M403.211,11.799c0,-2.799 1.949,-5.071 4.348,-5.071c2.4,0 4.348,2.272 4.348,5.071c0,2.798 -8.696,2.798 -8.696,0Z" style="fill:#fff;"/><circle cx="407.559" cy="36.569" r="9.313" style="fill:#fff;"/><path d="M407.559,34.085c0,0 -176.7,36.358 -83.056,119.173" style="fill:none;stroke:#fff;stroke-width:3px;"/><rect x="276.326" y="162.387" width="134.537" height="68.589" style="fill:#fff;"/><circle cx="337.51" cy="126.603" r="12.208" style="fill:#fff;"/><circle cx="431.925" cy="255.176" r="11.028" style="fill:#fff;"/><circle cx="267.064" cy="255.176" r="11.028" style="fill:#fff;"/><path d="M431.925,255.176l-164.861,0" style="fill:none;stroke:#fff;stroke-width:4px;"/></g></svg>