<?xml version="1.0" encoding="UTF-8" standalone="no"?><!DOCTYPE svg PUBLIC "-//W3C//DTD SVG 1.1//EN" "http://www.w3.org/Graphics/SVG/1.1/DTD/svg11.dtd"><svg width="100%" height="100%" viewBox="0 0 75 65" version="1.1" xmlns="http://www.w3.org/2000/svg" xmlns:xlink="http://www.w3.org/1999/xlink" xml:space="preserve" style="fill-rule:evenodd;clip-rule:evenodd;stroke-linecap:round;stroke-linejoin:round;stroke-miterlimit:1.5;"><path d="M52.676,54.78c0,0 10.023,0 14.149,0c0.963,0 1.743,-0.781 1.743,-1.743c0,-0.346 0,-0.708 0,-1.05c0,-0.903 -0.728,-1.636 -1.63,-1.642c-3.25,-0.023 -10.227,-0.071 -10.227,-0.071" style="fill:#fff;stroke:#1370b8;stroke-width:1.8px;"/><path d="M24.032,24.819l30.831,0l0,19.409l-29.632,0l-1.199,-19.409Z" style="fill:#fff;stroke:#1370b8;stroke-width:1.8px;"/><path d="M57.862,52.527c0,0 -0.589,-17.931 -0.95,-28.94c-0.154,-4.679 -3.992,-8.394 -8.674,-8.394c-8.037,0 -19.558,0 -23.899,0c-0.962,0 -1.743,0.781 -1.743,1.743c0,0.342 0,0.7 0,1.039c0,0.435 0.173,0.853 0.481,1.161c0.308,0.308 0.725,0.481 1.161,0.481c4.178,0 15.368,0 22.192,0c3.104,0 5.658,2.443 5.794,5.544c0.413,9.379 1.204,27.366 1.204,27.366l4.434,0Z" style="fill:#fff;stroke:#1370b8;stroke-width:1.8px;"/><path d="M28.398,27.983c0,0 -2.689,-11.326 -4.489,-18.905c-0.929,-3.912 -4.423,-6.674 -8.444,-6.674c-2.678,0 -5.524,0 -7.29,0c-0.963,0 -1.743,0.78 -1.743,1.743c0,0.346 0,0.708 0,1.05c0,0.902 0.728,1.635 1.63,1.642c1.496,0.01 3.783,0.026 5.815,0.04c2.607,0.018 4.881,1.774 5.559,4.292c1.658,6.156 4.528,16.812 4.528,16.812l4.434,0Z" style="fill:#fff;stroke:#1370b8;stroke-width:1.8px;"/><circle cx="25.231" cy="45.289" r="17.307" style="fill:#fff;stroke:#1370b8;stroke-width:1.8px;"/><circle cx="55.587" cy="57.561" r="5.035" style="fill:#fff;stroke:#1370b8;stroke-width:1.8px;"/></svg>